<svg xmlns="http://www.w3.org/2000/svg" width="495" height="195" viewBox="0 0 495 195" role="img" aria-label="Top Languages"><defs><linearGradient id="bg" x1="0" y1="0" x2="0" y2="1"><stop offset="0%" stop-color="#1a1f29"/><stop offset="100%" stop-color="#0d1117"/></linearGradient></defs><rect width="493" height="193" x="1" y="1" rx="6" fill="url(#bg)" stroke="#30363d" stroke-width="1"/><text x="20" y="32" font-family="-apple-system,BlinkMacSystemFont,Segoe UI,sans-serif" font-size="16" font-weight="700" fill="#ff6f00">Most Used Languages</text><line x1="20" y1="40" x2="475" y2="40" stroke="#30363d" stroke-width="1"/><rect x="20" y="56" width="324" height="14" fill="#3572A5" rx="7"/><rect x="344" y="56" width="52" height="14" fill="#e34c26" /><rect x="396" y="56" width="27" height="14" fill="#3178c6" /><rect x="423" y="56" width="18" height="14" fill="#f1e05a" /><rect x="441" y="56" width="16" height="14" fill="#41b883" /><rect x="457" y="56" width="11" height="14" fill="#663399" /><rect x="468" y="56" width="2" height="14" fill="#012456" /><rect x="470" y="56" width="2" height="14" fill="#264b99" /><rect x="20" y="56" width="455" height="14" rx="7" fill="none" stroke="#30363d" stroke-width="0.5"/><circle cx="28" cy="91" r="6" fill="#3572A5"/><text x="42" y="94" font-family="-apple-system,BlinkMacSystemFont,Segoe UI,sans-serif" font-size="12" font-weight="600" fill="#c6c6c2">Python</text><text x="241" y="94" text-anchor="end" font-family="-apple-system,BlinkMacSystemFont,SF Mono,Monaco,monospace" font-size="11" fill="#7d8590">71.4%</text><circle cx="255" cy="91" r="6" fill="#e34c26"/><text x="269" y="94" font-family="-apple-system,BlinkMacSystemFont,Segoe UI,sans-serif" font-size="12" font-weight="600" fill="#c6c6c2">HTML</text><text x="468" y="94" text-anchor="end" font-family="-apple-system,BlinkMacSystemFont,SF Mono,Monaco,monospace" font-size="11" fill="#7d8590">11.6%</text><circle cx="28" cy="113" r="6" fill="#3178c6"/><text x="42" y="116" font-family="-apple-system,BlinkMacSystemFont,Segoe UI,sans-serif" font-size="12" font-weight="600" fill="#c6c6c2">TypeScript</text><text x="241" y="116" text-anchor="end" font-family="-apple-system,BlinkMacSystemFont,SF Mono,Monaco,monospace" font-size="11" fill="#7d8590">6.1%</text><circle cx="255" cy="113" r="6" fill="#f1e05a"/><text x="269" y="116" font-family="-apple-system,BlinkMacSystemFont,Segoe UI,sans-serif" font-size="12" font-weight="600" fill="#c6c6c2">JavaScript</text><text x="468" y="116" text-anchor="end" font-family="-apple-system,BlinkMacSystemFont,SF Mono,Monaco,monospace" font-size="11" fill="#7d8590">4.1%</text><circle cx="28" cy="135" r="6" fill="#41b883"/><text x="42" y="138" font-family="-apple-system,BlinkMacSystemFont,Segoe UI,sans-serif" font-size="12" font-weight="600" fill="#c6c6c2">Vue</text><text x="241" y="138" text-anchor="end" font-family="-apple-system,BlinkMacSystemFont,SF Mono,Monaco,monospace" font-size="11" fill="#7d8590">3.7%</text><circle cx="255" cy="135" r="6" fill="#663399"/><text x="269" y="138" font-family="-apple-system,BlinkMacSystemFont,Segoe UI,sans-serif" font-size="12" font-weight="600" fill="#c6c6c2">CSS</text><text x="468" y="138" text-anchor="end" font-family="-apple-system,BlinkMacSystemFont,SF Mono,Monaco,monospace" font-size="11" fill="#7d8590">2.6%</text><circle cx="28" cy="157" r="6" fill="#012456"/><text x="42" y="160" font-family="-apple-system,BlinkMacSystemFont,Segoe UI,sans-serif" font-size="12" font-weight="600" fill="#c6c6c2">PowerShell</text><text x="241" y="160" text-anchor="end" font-family="-apple-system,BlinkMacSystemFont,SF Mono,Monaco,monospace" font-size="11" fill="#7d8590">0.1%</text><circle cx="255" cy="157" r="6" fill="#264b99"/><text x="269" y="160" font-family="-apple-system,BlinkMacSystemFont,Segoe UI,sans-serif" font-size="12" font-weight="600" fill="#c6c6c2">Inno Setup</text><text x="468" y="160" text-anchor="end" font-family="-apple-system,BlinkMacSystemFont,SF Mono,Monaco,monospace" font-size="11" fill="#7d8590">0.1%</text></svg>