<svg xmlns="http://www.w3.org/2000/svg" width="720" height="240" viewBox="0 0 720 240" role="img" aria-label="Django-Store — featured project card"><defs><linearGradient id="bg" x1="0" y1="0" x2="0" y2="1"><stop offset="0%" stop-color="#1f242c"/><stop offset="100%" stop-color="#0d1117"/></linearGradient><linearGradient id="accentGrad" x1="0" y1="0" x2="1" y2="0"><stop offset="0%" stop-color="#F90001"/><stop offset="50%" stop-color="#FF652F"/><stop offset="100%" stop-color="#a855f7"/></linearGradient><filter id="bloom" x="-50%" y="-50%" width="200%" height="200%"><feGaussianBlur stdDeviation="2.4" result="b"/><feMerge><feMergeNode in="b"/><feMergeNode in="SourceGraphic"/></feMerge></filter></defs><rect width="718" height="238" x="1" y="1" rx="10" fill="url(#bg)" stroke="#30363d" stroke-width="1"/><rect width="700" height="3" x="10" y="0" fill="url(#accentGrad)" rx="1.5"/><g transform="translate(20, 22)"><rect width="148" height="26" rx="13" fill="#161b22" stroke="#30363d" stroke-width="1"/><text x="74" y="18" text-anchor="middle" font-family="-apple-system,BlinkMacSystemFont,Segoe UI,sans-serif" font-size="12" font-weight="700" fill="#c9d1d9" letter-spacing="0.5">🌐 Backend / API</text></g><text x="20" y="78" font-family="-apple-system,BlinkMacSystemFont,SF Pro Display,Inter,Segoe UI,sans-serif" font-size="22" font-weight="800" fill="#e6edf3" letter-spacing="-0.3">Django-Store</text><g transform="translate(572, 22)"><rect width="128" height="26" rx="13" fill="#0d1117" stroke="#7d8590" stroke-width="1.5"/><text x="64" y="18" text-anchor="middle" font-family="-apple-system,BlinkMacSystemFont,Segoe UI,sans-serif" font-size="12" font-weight="700" fill="#7d8590" letter-spacing="0.5">💤 quiet</text></g><text x="20" y="105" font-family="-apple-system,BlinkMacSystemFont,Segoe UI,sans-serif" font-size="13" font-weight="400" fill="#c9d1d9" opacity="0.9">Amazon-style e-commerce platform — products, brands,</text><text x="20" y="125" font-family="-apple-system,BlinkMacSystemFont,Segoe UI,sans-serif" font-size="13" font-weight="400" fill="#c9d1d9" opacity="0.9">reviews, orders, payments, charts, multi-language. Django +</text><text x="20" y="145" font-family="-apple-system,BlinkMacSystemFont,Segoe UI,sans-serif" font-size="13" font-weight="400" fill="#c9d1d9" opacity="0.9">DRF + Bootstrap.…</text><g transform="translate(20, 175)"><rect width="48" height="22" rx="11" fill="#0d1117" stroke="#1f6feb" stroke-width="1"/><text x="24" y="15" text-anchor="middle" font-family="-apple-system,BlinkMacSystemFont,Segoe UI,sans-serif" font-size="10.5" font-weight="600" fill="#388bfd" letter-spacing="0.2">ajax</text></g><g transform="translate(74, 175)"><rect width="79" height="22" rx="11" fill="#0d1117" stroke="#bf4b8a" stroke-width="1"/><text x="39" y="15" text-anchor="middle" font-family="-apple-system,BlinkMacSystemFont,Segoe UI,sans-serif" font-size="10.5" font-weight="600" fill="#db61a2" letter-spacing="0.2">bootstrap</text></g><g transform="translate(159, 175)"><rect width="65" height="22" rx="11" fill="#0d1117" stroke="#3fb950" stroke-width="1"/><text x="32" y="15" text-anchor="middle" font-family="-apple-system,BlinkMacSystemFont,Segoe UI,sans-serif" font-size="10.5" font-weight="600" fill="#56d364" letter-spacing="0.2">cashing</text></g><g transform="translate(230, 175)"><rect width="58" height="22" rx="11" fill="#0d1117" stroke="#d29922" stroke-width="1"/><text x="29" y="15" text-anchor="middle" font-family="-apple-system,BlinkMacSystemFont,Segoe UI,sans-serif" font-size="10.5" font-weight="600" fill="#e3b341" letter-spacing="0.2">celery</text></g><g transform="translate(294, 175)"><rect width="58" height="22" rx="11" fill="#0d1117" stroke="#a371f7" stroke-width="1"/><text x="29" y="15" text-anchor="middle" font-family="-apple-system,BlinkMacSystemFont,Segoe UI,sans-serif" font-size="10.5" font-weight="600" fill="#bc8cff" letter-spacing="0.2">charts</text></g><g transform="translate(358, 175)"><rect width="86" height="22" rx="11" fill="#0d1117" stroke="#f78166" stroke-width="1"/><text x="43" y="15" text-anchor="middle" font-family="-apple-system,BlinkMacSystemFont,Segoe UI,sans-serif" font-size="10.5" font-weight="600" fill="#ffa28b" letter-spacing="0.2">deployment</text></g><circle cx="28" cy="216" r="6" fill="#3572A5"/><text x="40" y="220" font-family="-apple-system,BlinkMacSystemFont,Segoe UI,sans-serif" font-size="12" font-weight="600" fill="#c9d1d9">Python</text><g transform="translate(130, 208)"><path d="M8 0l2.39 4.84L16 5.6l-4 3.9.94 5.5L8 12.4 3.06 15l.94-5.5-4-3.9 5.61-.76L8 0z" fill="#ffde01"/></g><text x="152" y="220" font-family="-apple-system,BlinkMacSystemFont,Segoe UI,sans-serif" font-size="12" font-weight="700" fill="#c9d1d9">26</text><g transform="translate(200, 208)" stroke="#7d8590" stroke-width="1.5" fill="none"><circle cx="3" cy="3" r="2"/><circle cx="13" cy="3" r="2"/><circle cx="8" cy="14" r="2"/><path d="M3 5v3a2 2 0 002 2h6a2 2 0 002-2V5"/><line x1="8" y1="10" x2="8" y2="12"/></g><text x="222" y="220" font-family="-apple-system,BlinkMacSystemFont,Segoe UI,sans-serif" font-size="12" font-weight="700" fill="#c9d1d9">5</text><g transform="translate(270, 208)" stroke="#7d8590" stroke-width="1.4" fill="none"><path d="M0 8 C 4 2, 12 2, 16 8 C 12 14, 4 14, 0 8 Z"/><circle cx="8" cy="8" r="2.2" fill="#7d8590"/></g><text x="292" y="220" font-family="-apple-system,BlinkMacSystemFont,Segoe UI,sans-serif" font-size="12" font-weight="700" fill="#c9d1d9">26</text><text x="700" y="220" text-anchor="end" font-family="-apple-system,BlinkMacSystemFont,Segoe UI,sans-serif" font-size="11" font-weight="500" fill="#7d8590">created 2023-09-25  ·  updated 5 weeks ago</text></svg>