<svg xmlns="http://www.w3.org/2000/svg" width="400" height="120" viewBox="0 0 400 120" role="img" aria-label="API"><defs><linearGradient id="bg" x1="0" y1="0" x2="0" y2="1"><stop offset="0%" stop-color="#1a1f29"/><stop offset="100%" stop-color="#0d1117"/></linearGradient></defs><rect width="398" height="118" x="1" y="1" rx="6" fill="url(#bg)" stroke="#30363d" stroke-width="1"/><rect x="0" y="0" width="3" height="120" fill="#F90001" opacity="0.85"/><g transform="translate(18, 18)"><path d="M2 0h12a2 2 0 012 2v12a2 2 0 01-2 2H2a2 2 0 01-2-2V2a2 2 0 012-2zm0 1.5a.5.5 0 00-.5.5v11a.5.5 0 00.5.5h12a.5.5 0 00.5-.5V2a.5.5 0 00-.5-.5H2z" fill="#ffde01" fill-opacity="0.85"/></g><text x="42" y="32" font-family="-apple-system,BlinkMacSystemFont,Segoe UI,sans-serif" font-size="14" font-weight="700" fill="#c6c6c2">API</text><text x="20" y="58" font-family="-apple-system,BlinkMacSystemFont,Segoe UI,sans-serif" font-size="12" fill="#da644d" opacity="0.95">Django REST Framework reference API — auth,</text><text x="20" y="74" font-family="-apple-system,BlinkMacSystemFont,Segoe UI,sans-serif" font-size="12" fill="#da644d" opacity="0.95">pagination, throttling, filtering, OpenAPI/Swagge…</text><g transform="translate(20, 100)"><circle cx="6" cy="-3" r="6" fill="#3572A5"/><text x="18" y="2" font-family="-apple-system,BlinkMacSystemFont,Segoe UI,sans-serif" font-size="12" fill="#c6c6c2">Python</text><g transform="translate(150, -8)"><path d="M8 0l2.39 4.84L16 5.6l-4 3.9.94 5.5L8 12.4 3.06 15l.94-5.5-4-3.9 5.61-.76L8 0z" fill="#ffde01"/></g><text x="172" y="2" font-family="-apple-system,BlinkMacSystemFont,Segoe UI,sans-serif" font-size="12" font-weight="600" fill="#c6c6c2">5</text><g transform="translate(220, -10)" stroke="#ffde01" stroke-width="1.5" fill="none"><circle cx="3" cy="3" r="2"/><circle cx="13" cy="3" r="2"/><circle cx="8" cy="14" r="2"/><path d="M3 5v3a2 2 0 002 2h6a2 2 0 002-2V5"/><line x1="8" y1="10" x2="8" y2="12"/></g><text x="244" y="2" font-family="-apple-system,BlinkMacSystemFont,Segoe UI,sans-serif" font-size="12" font-weight="600" fill="#c6c6c2">0</text></g></svg>