<svg xmlns="http://www.w3.org/2000/svg" width="460" height="200" viewBox="0 0 460 200" role="img" aria-label="Mini-RAG"><defs><linearGradient id="bg" x1="0" y1="0" x2="0" y2="1"><stop offset="0%" stop-color="#161b22"/><stop offset="100%" stop-color="#0a0e14"/></linearGradient><linearGradient id="pinAccent" x1="0" y1="0" x2="0" y2="1"><stop offset="0%" stop-color="#ffde01"/><stop offset="100%" stop-color="#F90001"/></linearGradient></defs><rect width="458" height="198" x="1" y="1" rx="10" fill="url(#bg)" stroke="#30363d" stroke-width="1"/><rect x="0" y="0" width="4" height="200" fill="url(#pinAccent)" rx="2"/><text x="20" y="36" font-family="-apple-system,Segoe UI Emoji,sans-serif" font-size="18" fill="#F90001">📌</text><text x="46" y="36" font-family="-apple-system,BlinkMacSystemFont,SF Pro Display,Inter,Segoe UI,sans-serif" font-size="17" font-weight="800" fill="#e6edf3" letter-spacing="-0.2">Mini-RAG</text><g transform="translate(388, 18)"><rect width="58" height="22" rx="11" fill="#0d1117" stroke="#ffde01" stroke-width="1"/><text x="29" y="15" text-anchor="middle" font-family="-apple-system,BlinkMacSystemFont,Segoe UI,sans-serif" font-size="9.5" font-weight="700" fill="#ffde01" letter-spacing="1.5">PINNED</text></g><text x="20" y="64" font-family="-apple-system,BlinkMacSystemFont,Segoe UI,sans-serif" font-size="12.5" font-weight="400" fill="#c9d1d9" opacity="0.9">Minimal retrieval-augmented generation pipeline —</text><text x="20" y="82" font-family="-apple-system,BlinkMacSystemFont,Segoe UI,sans-serif" font-size="12.5" font-weight="400" fill="#c9d1d9" opacity="0.9">embeddings, vector store, prompt assembly.</text><g transform="translate(20, 116)"><rect width="79.0" height="20" rx="10" fill="#0d1117" stroke="#1f6feb" stroke-width="1"/><text x="39.0" y="14" text-anchor="middle" font-family="-apple-system,BlinkMacSystemFont,Segoe UI,sans-serif" font-size="10" font-weight="600" fill="#388bfd" letter-spacing="0.2">embeddings</text></g><g transform="translate(104.0, 116)"><rect width="48" height="20" rx="10" fill="#0d1117" stroke="#bf4b8a" stroke-width="1"/><text x="24" y="14" text-anchor="middle" font-family="-apple-system,BlinkMacSystemFont,Segoe UI,sans-serif" font-size="10" font-weight="600" fill="#db61a2" letter-spacing="0.2">llm</text></g><g transform="translate(157.0, 116)"><rect width="53.0" height="20" rx="10" fill="#0d1117" stroke="#3fb950" stroke-width="1"/><text x="26.0" y="14" text-anchor="middle" font-family="-apple-system,BlinkMacSystemFont,Segoe UI,sans-serif" font-size="10" font-weight="600" fill="#56d364" letter-spacing="0.2">python</text></g><g transform="translate(215.0, 116)"><rect width="48" height="20" rx="10" fill="#0d1117" stroke="#d29922" stroke-width="1"/><text x="24" y="14" text-anchor="middle" font-family="-apple-system,BlinkMacSystemFont,Segoe UI,sans-serif" font-size="10" font-weight="600" fill="#e3b341" letter-spacing="0.2">rag</text></g><g transform="translate(268.0, 116)"><rect width="92.0" height="20" rx="10" fill="#0d1117" stroke="#a371f7" stroke-width="1"/><text x="46.0" y="14" text-anchor="middle" font-family="-apple-system,BlinkMacSystemFont,Segoe UI,sans-serif" font-size="10" font-weight="600" fill="#bc8cff" letter-spacing="0.2">vector-store</text></g><circle cx="28" cy="174" r="6" fill="#3572A5"/><text x="40" y="178" font-family="-apple-system,BlinkMacSystemFont,Segoe UI,sans-serif" font-size="12" font-weight="600" fill="#c9d1d9">Python</text><g transform="translate(130, 166)"><path d="M8 0l2.39 4.84L16 5.6l-4 3.9.94 5.5L8 12.4 3.06 15l.94-5.5-4-3.9 5.61-.76L8 0z" fill="#ffde01"/></g><text x="152" y="178" font-family="-apple-system,BlinkMacSystemFont,Segoe UI,sans-serif" font-size="12" font-weight="700" fill="#c9d1d9">2</text><g transform="translate(190, 166)" stroke="#7d8590" stroke-width="1.5" fill="none"><circle cx="3" cy="3" r="2"/><circle cx="13" cy="3" r="2"/><circle cx="8" cy="14" r="2"/><path d="M3 5v3a2 2 0 002 2h6a2 2 0 002-2V5"/><line x1="8" y1="10" x2="8" y2="12"/></g><text x="212" y="178" font-family="-apple-system,BlinkMacSystemFont,Segoe UI,sans-serif" font-size="12" font-weight="700" fill="#c9d1d9">0</text><text x="440" y="178" text-anchor="end" font-family="-apple-system,BlinkMacSystemFont,Segoe UI,sans-serif" font-size="11" font-weight="500" fill="#7d8590">updated 2026-05-04</text></svg>