<svg xmlns="http://www.w3.org/2000/svg" viewBox="0 0 396 408" role="img" aria-label="AbdullahBakir97 2026 3D rainbow contribution profile"><defs><radialGradient id="rainbowSky" cx="50%" cy="100%" r="120%"><stop offset="0%" stop-color="#241039"/><stop offset="40%" stop-color="#0d0820"/><stop offset="100%" stop-color="#02030a"/></radialGradient><linearGradient id="ground" x1="0" y1="0" x2="0" y2="1"><stop offset="0%" stop-color="#1a1330"/><stop offset="100%" stop-color="#02030a"/></linearGradient><filter id="bloom" x="-50%" y="-50%" width="200%" height="200%"><feGaussianBlur stdDeviation="2" result="b"/><feMerge><feMergeNode in="b"/><feMergeNode in="SourceGraphic"/></feMerge></filter></defs><rect width="396" height="408" fill="url(#rainbowSky)"/><g><circle cx="230" cy="26" r="0.4" fill="#a78bfa" opacity="0.85"/><circle cx="265" cy="30" r="0.4" fill="#fde68a" opacity="0.85"/><circle cx="168" cy="10" r="0.6" fill="#a78bfa" opacity="0.85"/><circle cx="191" cy="16" r="0.9" fill="#fde68a" opacity="0.85"/><circle cx="66" cy="19" r="0.6" fill="#fde68a" opacity="0.85"/><circle cx="283" cy="33" r="0.6" fill="#9cff85" opacity="0.85"/><circle cx="242" cy="10" r="0.4" fill="#67c7ff" opacity="0.85"/><circle cx="344" cy="53" r="0.6" fill="#fde68a" opacity="0.85"/><circle cx="190" cy="44" r="0.6" fill="#67c7ff" opacity="0.85"/><circle cx="327" cy="23" r="0.4" fill="#5eead4" opacity="0.85"/><circle cx="48" cy="10" r="0.4" fill="#fde68a" opacity="0.85"/><circle cx="224" cy="27" r="0.9" fill="#f0abfc" opacity="0.85"/><circle cx="327" cy="41" r="0.4" fill="#a78bfa" opacity="0.85"/><circle cx="221" cy="41" r="0.9" fill="#a78bfa" opacity="0.85"/><circle cx="211" cy="31" r="0.6" fill="#5eead4" opacity="0.85"/><circle cx="126" cy="29" r="0.4" fill="#a78bfa" opacity="0.85"/><circle cx="383" cy="49" r="0.4" fill="#fde68a" opacity="0.85"/><circle cx="262" cy="27" r="0.4" fill="#f0abfc" opacity="0.85"/><circle cx="231" cy="53" r="0.4" fill="#a78bfa" opacity="0.85"/><circle cx="199" cy="20" r="0.4" fill="#fde68a" opacity="0.85"/><circle cx="365" cy="20" r="0.9" fill="#f0abfc" opacity="0.85"/><circle cx="268" cy="34" r="0.9" fill="#f0abfc" opacity="0.85"/><circle cx="134" cy="12" r="0.9" fill="#fde68a" opacity="0.85"/><circle cx="387" cy="48" r="0.9" fill="#5eead4" opacity="0.85"/><circle cx="211" cy="50" r="0.9" fill="#67c7ff" opacity="0.85"/><circle cx="36" cy="33" r="0.4" fill="#9cff85" opacity="0.85"/><circle cx="283" cy="20" r="0.6" fill="#67c7ff" opacity="0.85"/><circle cx="339" cy="23" r="0.9" fill="#a78bfa" opacity="0.85"/><circle cx="322" cy="52" r="0.4" fill="#a78bfa" opacity="0.85"/><circle cx="268" cy="23" r="0.4" fill="#fde68a" opacity="0.85"/><circle cx="202" cy="25" r="0.4" fill="#fde68a" opacity="0.85"/><circle cx="116" cy="28" r="0.4" fill="#a78bfa" opacity="0.85"/><circle cx="156" cy="53" r="0.4" fill="#f0abfc" opacity="0.85"/><circle cx="329" cy="11" r="0.9" fill="#9cff85" opacity="0.85"/><circle cx="340" cy="53" r="0.4" fill="#a78bfa" opacity="0.85"/><circle cx="125" cy="16" r="0.4" fill="#5eead4" opacity="0.85"/><circle cx="48" cy="28" r="0.4" fill="#f0abfc" opacity="0.85"/><circle cx="322" cy="22" r="0.9" fill="#f0abfc" opacity="0.85"/><circle cx="117" cy="48" r="0.4" fill="#9cff85" opacity="0.85"/><circle cx="201" cy="51" r="0.6" fill="#a78bfa" opacity="0.85"/></g><polygon points="124.87,184.00 365.63,323.00 270.36,378.00 29.61,239.00" fill="url(#ground)" stroke="#a78bfa" stroke-width="0.5" stroke-opacity="0.4"/><polygon points="149.12,204.00 136.99,211.00 136.99,209.50 149.12,202.50" fill="#161b22"/><polygon points="124.87,204.00 136.99,211.00 136.99,209.50 124.87,202.50" fill="#0d1117"/><polygon points="136.99,195.50 149.12,202.50 136.99,209.50 124.87,202.50" fill="#1c2129"><title>0 on 2026-01-04</title></polygon><polygon points="136.99,211.00 124.87,218.00 124.87,216.50 136.99,209.50" fill="#161b22"/><polygon points="112.75,211.00 124.87,218.00 124.87,216.50 112.75,209.50" fill="#0d1117"/><polygon points="124.87,202.50 136.99,209.50 124.87,216.50 112.75,209.50" fill="#1c2129"><title>0 on 2026-01-05</title></polygon><polygon points="161.24,211.00 149.12,218.00 149.12,216.50 161.24,209.50" fill="#161b22"/><polygon points="136.99,211.00 149.12,218.00 149.12,216.50 136.99,209.50" fill="#0d1117"/><polygon points="149.12,202.50 161.24,209.50 149.12,216.50 136.99,209.50" fill="#1c2129"><title>0 on 2026-01-11</title></polygon><polygon points="124.87,218.00 112.75,225.00 112.75,223.50 124.87,216.50" fill="#161b22"/><polygon points="100.62,218.00 112.75,225.00 112.75,223.50 100.62,216.50" fill="#0d1117"/><polygon points="112.75,209.50 124.87,216.50 112.75,223.50 100.62,216.50" fill="#1c2129"><title>0 on 2026-01-06</title></polygon><polygon points="149.12,218.00 136.99,225.00 136.99,223.50 149.12,216.50" fill="#161b22"/><polygon points="124.87,218.00 136.99,225.00 136.99,223.50 124.87,216.50" fill="#0d1117"/><polygon points="136.99,209.50 149.12,216.50 136.99,223.50 124.87,216.50" fill="#1c2129"><title>0 on 2026-01-12</title></polygon><polygon points="173.37,218.00 161.24,225.00 161.24,223.50 173.37,216.50" fill="#161b22"/><polygon points="149.12,218.00 161.24,225.00 161.24,223.50 149.12,216.50" fill="#0d1117"/><polygon points="161.24,209.50 173.37,216.50 161.24,223.50 149.12,216.50" fill="#1c2129"><title>0 on 2026-01-18</title></polygon><polygon points="88.50,225.00 76.37,232.00 76.37,230.50 88.50,223.50" fill="#161b22"/><polygon points="64.25,225.00 76.37,232.00 76.37,230.50 64.25,223.50" fill="#0d1117"/><polygon points="76.37,216.50 88.50,223.50 76.37,230.50 64.25,223.50" fill="#1c2129"><title>0 on 2026-01-01</title></polygon><polygon points="112.75,225.00 100.62,232.00 100.62,230.50 112.75,223.50" fill="#161b22"/><polygon points="88.50,225.00 100.62,232.00 100.62,230.50 88.50,223.50" fill="#0d1117"/><polygon points="100.62,216.50 112.75,223.50 100.62,230.50 88.50,223.50" fill="#1c2129"><title>0 on 2026-01-07</title></polygon><polygon points="136.99,225.00 124.87,232.00 124.87,230.50 136.99,223.50" fill="#161b22"/><polygon points="112.75,225.00 124.87,232.00 124.87,230.50 112.75,223.50" fill="#0d1117"/><polygon points="124.87,216.50 136.99,223.50 124.87,230.50 112.75,223.50" fill="#1c2129"><title>0 on 2026-01-13</title></polygon><polygon points="161.24,225.00 149.12,232.00 149.12,230.50 161.24,223.50" fill="#161b22"/><polygon points="136.99,225.00 149.12,232.00 149.12,230.50 136.99,223.50" fill="#0d1117"/><polygon points="149.12,216.50 161.24,223.50 149.12,230.50 136.99,223.50" fill="#1c2129"><title>0 on 2026-01-19</title></polygon><polygon points="185.49,225.00 173.37,232.00 173.37,230.50 185.49,223.50" fill="#161b22"/><polygon points="161.24,225.00 173.37,232.00 173.37,230.50 161.24,223.50" fill="#0d1117"/><polygon points="173.37,216.50 185.49,223.50 173.37,230.50 161.24,223.50" fill="#1c2129"><title>0 on 2026-01-25</title></polygon><polygon points="76.37,232.00 64.25,239.00 64.25,237.50 76.37,230.50" fill="#161b22"/><polygon points="52.12,232.00 64.25,239.00 64.25,237.50 52.12,230.50" fill="#0d1117"/><polygon points="64.25,223.50 76.37,230.50 64.25,237.50 52.12,230.50" fill="#1c2129"><title>0 on 2026-01-02</title></polygon><polygon points="100.62,232.00 88.50,239.00 88.50,237.50 100.62,230.50" fill="#161b22"/><polygon points="76.37,232.00 88.50,239.00 88.50,237.50 76.37,230.50" fill="#0d1117"/><polygon points="88.50,223.50 100.62,230.50 88.50,237.50 76.37,230.50" fill="#1c2129"><title>0 on 2026-01-08</title></polygon><polygon points="124.87,232.00 112.75,239.00 112.75,237.50 124.87,230.50" fill="#161b22"/><polygon points="100.62,232.00 112.75,239.00 112.75,237.50 100.62,230.50" fill="#0d1117"/><polygon points="112.75,223.50 124.87,230.50 112.75,237.50 100.62,230.50" fill="#1c2129"><title>0 on 2026-01-14</title></polygon><polygon points="149.12,232.00 136.99,239.00 136.99,237.50 149.12,230.50" fill="#161b22"/><polygon points="124.87,232.00 136.99,239.00 136.99,237.50 124.87,230.50" fill="#0d1117"/><polygon points="136.99,223.50 149.12,230.50 136.99,237.50 124.87,230.50" fill="#1c2129"><title>0 on 2026-01-20</title></polygon><polygon points="173.37,232.00 161.24,239.00 161.24,223.90 173.37,216.90" fill="#06B6D4"/><polygon points="149.12,232.00 161.24,239.00 161.24,223.90 149.12,216.90" fill="#0891B2"/><polygon points="161.24,209.90 173.37,216.90 161.24,223.90 149.12,216.90" fill="#5EEAD4"><title>3 on 2026-01-26</title></polygon><polygon points="197.62,232.00 185.49,239.00 185.49,237.50 197.62,230.50" fill="#161b22"/><polygon points="173.37,232.00 185.49,239.00 185.49,237.50 173.37,230.50" fill="#0d1117"/><polygon points="185.49,223.50 197.62,230.50 185.49,237.50 173.37,230.50" fill="#1c2129"><title>0 on 2026-02-01</title></polygon><polygon points="64.25,239.00 52.12,246.00 52.12,244.50 64.25,237.50" fill="#161b22"/><polygon points="40.00,239.00 52.12,246.00 52.12,244.50 40.00,237.50" fill="#0d1117"/><polygon points="52.12,230.50 64.25,237.50 52.12,244.50 40.00,237.50" fill="#1c2129"><title>0 on 2026-01-03</title></polygon><polygon points="88.50,239.00 76.37,246.00 76.37,244.50 88.50,237.50" fill="#161b22"/><polygon points="64.25,239.00 76.37,246.00 76.37,244.50 64.25,237.50" fill="#0d1117"/><polygon points="76.37,230.50 88.50,237.50 76.37,244.50 64.25,237.50" fill="#1c2129"><title>0 on 2026-01-09</title></polygon><polygon points="112.75,239.00 100.62,246.00 100.62,244.50 112.75,237.50" fill="#161b22"/><polygon points="88.50,239.00 100.62,246.00 100.62,244.50 88.50,237.50" fill="#0d1117"/><polygon points="100.62,230.50 112.75,237.50 100.62,244.50 88.50,237.50" fill="#1c2129"><title>0 on 2026-01-15</title></polygon><polygon points="136.99,239.00 124.87,246.00 124.87,227.30 136.99,220.30" fill="#5AD650"/><polygon points="112.75,239.00 124.87,246.00 124.87,227.30 112.75,220.30" fill="#36873B"/><polygon points="124.87,213.30 136.99,220.30 124.87,227.30 112.75,220.30" fill="#9CFF85"><title>5 on 2026-01-21</title></polygon><polygon points="161.24,239.00 149.12,246.00 149.12,244.50 161.24,237.50" fill="#161b22"/><polygon points="136.99,239.00 149.12,246.00 149.12,244.50 136.99,237.50" fill="#0d1117"/><polygon points="149.12,230.50 161.24,237.50 149.12,244.50 136.99,237.50" fill="#1c2129"><title>0 on 2026-01-27</title></polygon><polygon points="185.49,239.00 173.37,246.00 173.37,244.50 185.49,237.50" fill="#161b22"/><polygon points="161.24,239.00 173.37,246.00 173.37,244.50 161.24,237.50" fill="#0d1117"/><polygon points="173.37,230.50 185.49,237.50 173.37,244.50 161.24,237.50" fill="#1c2129"><title>0 on 2026-02-02</title></polygon><polygon points="209.74,239.00 197.62,246.00 197.62,244.50 209.74,237.50" fill="#161b22"/><polygon points="185.49,239.00 197.62,246.00 197.62,244.50 185.49,237.50" fill="#0d1117"/><polygon points="197.62,230.50 209.74,237.50 197.62,244.50 185.49,237.50" fill="#1c2129"><title>0 on 2026-02-08</title></polygon><polygon points="76.37,246.00 64.25,253.00 64.25,251.50 76.37,244.50" fill="#161b22"/><polygon points="52.12,246.00 64.25,253.00 64.25,251.50 52.12,244.50" fill="#0d1117"/><polygon points="64.25,237.50 76.37,244.50 64.25,251.50 52.12,244.50" fill="#1c2129"><title>0 on 2026-01-10</title></polygon><polygon points="100.62,246.00 88.50,253.00 88.50,251.50 100.62,244.50" fill="#161b22"/><polygon points="76.37,246.00 88.50,253.00 88.50,251.50 76.37,244.50" fill="#0d1117"/><polygon points="88.50,237.50 100.62,244.50 88.50,251.50 76.37,244.50" fill="#1c2129"><title>0 on 2026-01-16</title></polygon><polygon points="124.87,246.00 112.75,253.00 112.75,242.93 124.87,235.93" fill="#5AD650"/><polygon points="100.62,246.00 112.75,253.00 112.75,242.93 100.62,235.93" fill="#36873B"/><polygon points="112.75,228.93 124.87,235.93 112.75,242.93 100.62,235.93" fill="#9CFF85"><title>1 on 2026-01-22</title></polygon><polygon points="149.12,246.00 136.99,253.00 136.99,251.50 149.12,244.50" fill="#161b22"/><polygon points="124.87,246.00 136.99,253.00 136.99,251.50 124.87,244.50" fill="#0d1117"/><polygon points="136.99,237.50 149.12,244.50 136.99,251.50 124.87,244.50" fill="#1c2129"><title>0 on 2026-01-28</title></polygon><polygon points="173.37,246.00 161.24,253.00 161.24,251.50 173.37,244.50" fill="#161b22"/><polygon points="149.12,246.00 161.24,253.00 161.24,251.50 149.12,244.50" fill="#0d1117"/><polygon points="161.24,237.50 173.37,244.50 161.24,251.50 149.12,244.50" fill="#1c2129"><title>0 on 2026-02-03</title></polygon><polygon points="197.62,246.00 185.49,253.00 185.49,251.50 197.62,244.50" fill="#161b22"/><polygon points="173.37,246.00 185.49,253.00 185.49,251.50 173.37,244.50" fill="#0d1117"/><polygon points="185.49,237.50 197.62,244.50 185.49,251.50 173.37,244.50" fill="#1c2129"><title>0 on 2026-02-09</title></polygon><polygon points="221.87,246.00 209.74,253.00 209.74,251.50 221.87,244.50" fill="#161b22"/><polygon points="197.62,246.00 209.74,253.00 209.74,251.50 197.62,244.50" fill="#0d1117"/><polygon points="209.74,237.50 221.87,244.50 209.74,251.50 197.62,244.50" fill="#1c2129"><title>0 on 2026-02-15</title></polygon><polygon points="88.50,253.00 76.37,260.00 76.37,258.50 88.50,251.50" fill="#161b22"/><polygon points="64.25,253.00 76.37,260.00 76.37,258.50 64.25,251.50" fill="#0d1117"/><polygon points="76.37,244.50 88.50,251.50 76.37,258.50 64.25,251.50" fill="#1c2129"><title>0 on 2026-01-17</title></polygon><polygon points="112.75,253.00 100.62,260.00 100.62,243.00 112.75,236.00" fill="#5AD650"/><polygon points="88.50,253.00 100.62,260.00 100.62,243.00 88.50,236.00" fill="#36873B"/><polygon points="100.62,229.00 112.75,236.00 100.62,243.00 88.50,236.00" fill="#9CFF85"><title>4 on 2026-01-23</title></polygon><polygon points="136.99,253.00 124.87,260.00 124.87,258.50 136.99,251.50" fill="#161b22"/><polygon points="112.75,253.00 124.87,260.00 124.87,258.50 112.75,251.50" fill="#0d1117"/><polygon points="124.87,244.50 136.99,251.50 124.87,258.50 112.75,251.50" fill="#1c2129"><title>0 on 2026-01-29</title></polygon><polygon points="161.24,253.00 149.12,260.00 149.12,258.50 161.24,251.50" fill="#161b22"/><polygon points="136.99,253.00 149.12,260.00 149.12,258.50 136.99,251.50" fill="#0d1117"/><polygon points="149.12,244.50 161.24,251.50 149.12,258.50 136.99,251.50" fill="#1c2129"><title>0 on 2026-02-04</title></polygon><polygon points="185.49,253.00 173.37,260.00 173.37,258.50 185.49,251.50" fill="#161b22"/><polygon points="161.24,253.00 173.37,260.00 173.37,258.50 161.24,251.50" fill="#0d1117"/><polygon points="173.37,244.50 185.49,251.50 173.37,258.50 161.24,251.50" fill="#1c2129"><title>0 on 2026-02-10</title></polygon><polygon points="209.74,253.00 197.62,260.00 197.62,258.50 209.74,251.50" fill="#161b22"/><polygon points="185.49,253.00 197.62,260.00 197.62,258.50 185.49,251.50" fill="#0d1117"/><polygon points="197.62,244.50 209.74,251.50 197.62,258.50 185.49,251.50" fill="#1c2129"><title>0 on 2026-02-16</title></polygon><polygon points="233.99,253.00 221.87,260.00 221.87,258.50 233.99,251.50" fill="#161b22"/><polygon points="209.74,253.00 221.87,260.00 221.87,258.50 209.74,251.50" fill="#0d1117"/><polygon points="221.87,244.50 233.99,251.50 221.87,258.50 209.74,251.50" fill="#1c2129"><title>0 on 2026-02-22</title></polygon><polygon points="100.62,260.00 88.50,267.00 88.50,265.50 100.62,258.50" fill="#161b22"/><polygon points="76.37,260.00 88.50,267.00 88.50,265.50 76.37,258.50" fill="#0d1117"/><polygon points="88.50,251.50 100.62,258.50 88.50,265.50 76.37,258.50" fill="#1c2129"><title>0 on 2026-01-24</title></polygon><polygon points="124.87,260.00 112.75,267.00 112.75,265.50 124.87,258.50" fill="#161b22"/><polygon points="100.62,260.00 112.75,267.00 112.75,265.50 100.62,258.50" fill="#0d1117"/><polygon points="112.75,251.50 124.87,258.50 112.75,265.50 100.62,258.50" fill="#1c2129"><title>0 on 2026-01-30</title></polygon><polygon points="149.12,260.00 136.99,267.00 136.99,265.50 149.12,258.50" fill="#161b22"/><polygon points="124.87,260.00 136.99,267.00 136.99,265.50 124.87,258.50" fill="#0d1117"/><polygon points="136.99,251.50 149.12,258.50 136.99,265.50 124.87,258.50" fill="#1c2129"><title>0 on 2026-02-05</title></polygon><polygon points="173.37,260.00 161.24,267.00 161.24,265.50 173.37,258.50" fill="#161b22"/><polygon points="149.12,260.00 161.24,267.00 161.24,265.50 149.12,258.50" fill="#0d1117"/><polygon points="161.24,251.50 173.37,258.50 161.24,265.50 149.12,258.50" fill="#1c2129"><title>0 on 2026-02-11</title></polygon><polygon points="197.62,260.00 185.49,267.00 185.49,265.50 197.62,258.50" fill="#161b22"/><polygon points="173.37,260.00 185.49,267.00 185.49,265.50 173.37,258.50" fill="#0d1117"/><polygon points="185.49,251.50 197.62,258.50 185.49,265.50 173.37,258.50" fill="#1c2129"><title>0 on 2026-02-17</title></polygon><polygon points="221.87,260.00 209.74,267.00 209.74,265.50 221.87,258.50" fill="#161b22"/><polygon points="197.62,260.00 209.74,267.00 209.74,265.50 197.62,258.50" fill="#0d1117"/><polygon points="209.74,251.50 221.87,258.50 209.74,265.50 197.62,258.50" fill="#1c2129"><title>0 on 2026-02-23</title></polygon><polygon points="246.11,260.00 233.99,267.00 233.99,265.50 246.11,258.50" fill="#161b22"/><polygon points="221.87,260.00 233.99,267.00 233.99,265.50 221.87,258.50" fill="#0d1117"/><polygon points="233.99,251.50 246.11,258.50 233.99,265.50 221.87,258.50" fill="#1c2129"><title>0 on 2026-03-01</title></polygon><polygon points="112.75,267.00 100.62,274.00 100.62,272.50 112.75,265.50" fill="#161b22"/><polygon points="88.50,267.00 100.62,274.00 100.62,272.50 88.50,265.50" fill="#0d1117"/><polygon points="100.62,258.50 112.75,265.50 100.62,272.50 88.50,265.50" fill="#1c2129"><title>0 on 2026-01-31</title></polygon><polygon points="136.99,267.00 124.87,274.00 124.87,272.50 136.99,265.50" fill="#161b22"/><polygon points="112.75,267.00 124.87,274.00 124.87,272.50 112.75,265.50" fill="#0d1117"/><polygon points="124.87,258.50 136.99,265.50 124.87,272.50 112.75,265.50" fill="#1c2129"><title>0 on 2026-02-06</title></polygon><polygon points="161.24,267.00 149.12,274.00 149.12,272.50 161.24,265.50" fill="#161b22"/><polygon points="136.99,267.00 149.12,274.00 149.12,272.50 136.99,265.50" fill="#0d1117"/><polygon points="149.12,258.50 161.24,265.50 149.12,272.50 136.99,265.50" fill="#1c2129"><title>0 on 2026-02-12</title></polygon><polygon points="185.49,267.00 173.37,274.00 173.37,272.50 185.49,265.50" fill="#161b22"/><polygon points="161.24,267.00 173.37,274.00 173.37,272.50 161.24,265.50" fill="#0d1117"/><polygon points="173.37,258.50 185.49,265.50 173.37,272.50 161.24,265.50" fill="#1c2129"><title>0 on 2026-02-18</title></polygon><polygon points="209.74,267.00 197.62,274.00 197.62,272.50 209.74,265.50" fill="#161b22"/><polygon points="185.49,267.00 197.62,274.00 197.62,272.50 185.49,265.50" fill="#0d1117"/><polygon points="197.62,258.50 209.74,265.50 197.62,272.50 185.49,265.50" fill="#1c2129"><title>0 on 2026-02-24</title></polygon><polygon points="233.99,267.00 221.87,274.00 221.87,272.50 233.99,265.50" fill="#161b22"/><polygon points="209.74,267.00 221.87,274.00 221.87,272.50 209.74,265.50" fill="#0d1117"/><polygon points="221.87,258.50 233.99,265.50 221.87,272.50 209.74,265.50" fill="#1c2129"><title>0 on 2026-03-02</title></polygon><polygon points="258.24,267.00 246.11,274.00 246.11,272.50 258.24,265.50" fill="#161b22"/><polygon points="233.99,267.00 246.11,274.00 246.11,272.50 233.99,265.50" fill="#0d1117"/><polygon points="246.11,258.50 258.24,265.50 246.11,272.50 233.99,265.50" fill="#1c2129"><title>0 on 2026-03-08</title></polygon><polygon points="124.87,274.00 112.75,281.00 112.75,279.50 124.87,272.50" fill="#161b22"/><polygon points="100.62,274.00 112.75,281.00 112.75,279.50 100.62,272.50" fill="#0d1117"/><polygon points="112.75,265.50 124.87,272.50 112.75,279.50 100.62,272.50" fill="#1c2129"><title>0 on 2026-02-07</title></polygon><polygon points="149.12,274.00 136.99,281.00 136.99,279.50 149.12,272.50" fill="#161b22"/><polygon points="124.87,274.00 136.99,281.00 136.99,279.50 124.87,272.50" fill="#0d1117"/><polygon points="136.99,265.50 149.12,272.50 136.99,279.50 124.87,272.50" fill="#1c2129"><title>0 on 2026-02-13</title></polygon><polygon points="173.37,274.00 161.24,281.00 161.24,265.90 173.37,258.90" fill="#C026D3"/><polygon points="149.12,274.00 161.24,281.00 161.24,265.90 149.12,258.90" fill="#86198F"/><polygon points="161.24,251.90 173.37,258.90 161.24,265.90 149.12,258.90" fill="#F0ABFC"><title>3 on 2026-02-19</title></polygon><polygon points="197.62,274.00 185.49,281.00 185.49,270.93 197.62,263.93" fill="#E84A4A"/><polygon points="173.37,274.00 185.49,281.00 185.49,270.93 173.37,263.93" fill="#A82F2F"/><polygon points="185.49,256.93 197.62,263.93 185.49,270.93 173.37,263.93" fill="#FF6B6B"><title>1 on 2026-02-25</title></polygon><polygon points="221.87,274.00 209.74,281.00 209.74,279.50 221.87,272.50" fill="#161b22"/><polygon points="197.62,274.00 209.74,281.00 209.74,279.50 197.62,272.50" fill="#0d1117"/><polygon points="209.74,265.50 221.87,272.50 209.74,279.50 197.62,272.50" fill="#1c2129"><title>0 on 2026-03-03</title></polygon><polygon points="246.11,274.00 233.99,281.00 233.99,279.50 246.11,272.50" fill="#161b22"/><polygon points="221.87,274.00 233.99,281.00 233.99,279.50 221.87,272.50" fill="#0d1117"/><polygon points="233.99,265.50 246.11,272.50 233.99,279.50 221.87,272.50" fill="#1c2129"><title>0 on 2026-03-09</title></polygon><polygon points="270.36,274.00 258.24,281.00 258.24,279.50 270.36,272.50" fill="#161b22"/><polygon points="246.11,274.00 258.24,281.00 258.24,279.50 246.11,272.50" fill="#0d1117"/><polygon points="258.24,265.50 270.36,272.50 258.24,279.50 246.11,272.50" fill="#1c2129"><title>0 on 2026-03-15</title></polygon><polygon points="136.99,281.00 124.87,288.00 124.87,286.50 136.99,279.50" fill="#161b22"/><polygon points="112.75,281.00 124.87,288.00 124.87,286.50 112.75,279.50" fill="#0d1117"/><polygon points="124.87,272.50 136.99,279.50 124.87,286.50 112.75,279.50" fill="#1c2129"><title>0 on 2026-02-14</title></polygon><polygon points="161.24,281.00 149.12,288.00 149.12,286.50 161.24,279.50" fill="#161b22"/><polygon points="136.99,281.00 149.12,288.00 149.12,286.50 136.99,279.50" fill="#0d1117"/><polygon points="149.12,272.50 161.24,279.50 149.12,286.50 136.99,279.50" fill="#1c2129"><title>0 on 2026-02-20</title></polygon><polygon points="185.49,281.00 173.37,288.00 173.37,286.50 185.49,279.50" fill="#161b22"/><polygon points="161.24,281.00 173.37,288.00 173.37,286.50 161.24,279.50" fill="#0d1117"/><polygon points="173.37,272.50 185.49,279.50 173.37,286.50 161.24,279.50" fill="#1c2129"><title>0 on 2026-02-26</title></polygon><polygon points="209.74,281.00 197.62,288.00 197.62,286.50 209.74,279.50" fill="#161b22"/><polygon points="185.49,281.00 197.62,288.00 197.62,286.50 185.49,279.50" fill="#0d1117"/><polygon points="197.62,272.50 209.74,279.50 197.62,286.50 185.49,279.50" fill="#1c2129"><title>0 on 2026-03-04</title></polygon><polygon points="233.99,281.00 221.87,288.00 221.87,286.50 233.99,279.50" fill="#161b22"/><polygon points="209.74,281.00 221.87,288.00 221.87,286.50 209.74,279.50" fill="#0d1117"/><polygon points="221.87,272.50 233.99,279.50 221.87,286.50 209.74,279.50" fill="#1c2129"><title>0 on 2026-03-10</title></polygon><polygon points="258.24,281.00 246.11,288.00 246.11,286.50 258.24,279.50" fill="#161b22"/><polygon points="233.99,281.00 246.11,288.00 246.11,286.50 233.99,279.50" fill="#0d1117"/><polygon points="246.11,272.50 258.24,279.50 246.11,286.50 233.99,279.50" fill="#1c2129"><title>0 on 2026-03-16</title></polygon><polygon points="282.49,281.00 270.36,288.00 270.36,286.50 282.49,279.50" fill="#161b22"/><polygon points="258.24,281.00 270.36,288.00 270.36,286.50 258.24,279.50" fill="#0d1117"/><polygon points="270.36,272.50 282.49,279.50 270.36,286.50 258.24,279.50" fill="#1c2129"><title>0 on 2026-03-22</title></polygon><polygon points="149.12,288.00 136.99,295.00 136.99,293.50 149.12,286.50" fill="#161b22"/><polygon points="124.87,288.00 136.99,295.00 136.99,293.50 124.87,286.50" fill="#0d1117"/><polygon points="136.99,279.50 149.12,286.50 136.99,293.50 124.87,286.50" fill="#1c2129"><title>0 on 2026-02-21</title></polygon><polygon points="173.37,288.00 161.24,295.00 161.24,293.50 173.37,286.50" fill="#161b22"/><polygon points="149.12,288.00 161.24,295.00 161.24,293.50 149.12,286.50" fill="#0d1117"/><polygon points="161.24,279.50 173.37,286.50 161.24,293.50 149.12,286.50" fill="#1c2129"><title>0 on 2026-02-27</title></polygon><polygon points="197.62,288.00 185.49,295.00 185.49,293.50 197.62,286.50" fill="#161b22"/><polygon points="173.37,288.00 185.49,295.00 185.49,293.50 173.37,286.50" fill="#0d1117"/><polygon points="185.49,279.50 197.62,286.50 185.49,293.50 173.37,286.50" fill="#1c2129"><title>0 on 2026-03-05</title></polygon><polygon points="221.87,288.00 209.74,295.00 209.74,293.50 221.87,286.50" fill="#161b22"/><polygon points="197.62,288.00 209.74,295.00 209.74,293.50 197.62,286.50" fill="#0d1117"/><polygon points="209.74,279.50 221.87,286.50 209.74,293.50 197.62,286.50" fill="#1c2129"><title>0 on 2026-03-11</title></polygon><polygon points="246.11,288.00 233.99,295.00 233.99,293.50 246.11,286.50" fill="#161b22"/><polygon points="221.87,288.00 233.99,295.00 233.99,293.50 221.87,286.50" fill="#0d1117"/><polygon points="233.99,279.50 246.11,286.50 233.99,293.50 221.87,286.50" fill="#1c2129"><title>0 on 2026-03-17</title></polygon><polygon points="270.36,288.00 258.24,295.00 258.24,293.50 270.36,286.50" fill="#161b22"/><polygon points="246.11,288.00 258.24,295.00 258.24,293.50 246.11,286.50" fill="#0d1117"/><polygon points="258.24,279.50 270.36,286.50 258.24,293.50 246.11,286.50" fill="#1c2129"><title>0 on 2026-03-23</title></polygon><polygon points="294.61,288.00 282.49,295.00 282.49,284.93 294.61,277.93" fill="#2C8DE8"/><polygon points="270.36,288.00 282.49,295.00 282.49,284.93 270.36,277.93" fill="#1B5FA8"/><polygon points="282.49,270.93 294.61,277.93 282.49,284.93 270.36,277.93" fill="#67C7FF"><title>1 on 2026-03-29</title></polygon><polygon points="161.24,295.00 149.12,302.00 149.12,300.50 161.24,293.50" fill="#161b22"/><polygon points="136.99,295.00 149.12,302.00 149.12,300.50 136.99,293.50" fill="#0d1117"/><polygon points="149.12,286.50 161.24,293.50 149.12,300.50 136.99,293.50" fill="#1c2129"><title>0 on 2026-02-28</title></polygon><polygon points="185.49,295.00 173.37,302.00 173.37,300.50 185.49,293.50" fill="#161b22"/><polygon points="161.24,295.00 173.37,302.00 173.37,300.50 161.24,293.50" fill="#0d1117"/><polygon points="173.37,286.50 185.49,293.50 173.37,300.50 161.24,293.50" fill="#1c2129"><title>0 on 2026-03-06</title></polygon><polygon points="209.74,295.00 197.62,302.00 197.62,300.50 209.74,293.50" fill="#161b22"/><polygon points="185.49,295.00 197.62,302.00 197.62,300.50 185.49,293.50" fill="#0d1117"/><polygon points="197.62,286.50 209.74,293.50 197.62,300.50 185.49,293.50" fill="#1c2129"><title>0 on 2026-03-12</title></polygon><polygon points="233.99,295.00 221.87,302.00 221.87,300.50 233.99,293.50" fill="#161b22"/><polygon points="209.74,295.00 221.87,302.00 221.87,300.50 209.74,293.50" fill="#0d1117"/><polygon points="221.87,286.50 233.99,293.50 221.87,300.50 209.74,293.50" fill="#1c2129"><title>0 on 2026-03-18</title></polygon><polygon points="258.24,295.00 246.11,302.00 246.11,291.93 258.24,284.93" fill="#06B6D4"/><polygon points="233.99,295.00 246.11,302.00 246.11,291.93 233.99,284.93" fill="#0891B2"/><polygon points="246.11,277.93 258.24,284.93 246.11,291.93 233.99,284.93" fill="#5EEAD4"><title>1 on 2026-03-24</title></polygon><polygon points="282.49,295.00 270.36,302.00 270.36,286.90 282.49,279.90" fill="#2C8DE8"/><polygon points="258.24,295.00 270.36,302.00 270.36,286.90 258.24,279.90" fill="#1B5FA8"/><polygon points="270.36,272.90 282.49,279.90 270.36,286.90 258.24,279.90" fill="#67C7FF"><title>3 on 2026-03-30</title></polygon><polygon points="306.74,295.00 294.61,302.00 294.61,300.50 306.74,293.50" fill="#161b22"/><polygon points="282.49,295.00 294.61,302.00 294.61,300.50 282.49,293.50" fill="#0d1117"/><polygon points="294.61,286.50 306.74,293.50 294.61,300.50 282.49,293.50" fill="#1c2129"><title>0 on 2026-04-05</title></polygon><polygon points="173.37,302.00 161.24,309.00 161.24,307.50 173.37,300.50" fill="#161b22"/><polygon points="149.12,302.00 161.24,309.00 161.24,307.50 149.12,300.50" fill="#0d1117"/><polygon points="161.24,293.50 173.37,300.50 161.24,307.50 149.12,300.50" fill="#1c2129"><title>0 on 2026-03-07</title></polygon><polygon points="197.62,302.00 185.49,309.00 185.49,307.50 197.62,300.50" fill="#161b22"/><polygon points="173.37,302.00 185.49,309.00 185.49,307.50 173.37,300.50" fill="#0d1117"/><polygon points="185.49,293.50 197.62,300.50 185.49,307.50 173.37,300.50" fill="#1c2129"><title>0 on 2026-03-13</title></polygon><polygon points="221.87,302.00 209.74,309.00 209.74,307.50 221.87,300.50" fill="#161b22"/><polygon points="197.62,302.00 209.74,309.00 209.74,307.50 197.62,300.50" fill="#0d1117"/><polygon points="209.74,293.50 221.87,300.50 209.74,307.50 197.62,300.50" fill="#1c2129"><title>0 on 2026-03-19</title></polygon><polygon points="246.11,302.00 233.99,309.00 233.99,296.12 246.11,289.12" fill="#06B6D4"/><polygon points="221.87,302.00 233.99,309.00 233.99,296.12 221.87,289.12" fill="#0891B2"/><polygon points="233.99,282.12 246.11,289.12 233.99,296.12 221.87,289.12" fill="#5EEAD4"><title>2 on 2026-03-25</title></polygon><polygon points="270.36,302.00 258.24,309.00 258.24,290.30 270.36,283.30" fill="#2C8DE8"/><polygon points="246.11,302.00 258.24,309.00 258.24,290.30 246.11,283.30" fill="#1B5FA8"/><polygon points="258.24,276.30 270.36,283.30 258.24,290.30 246.11,283.30" fill="#67C7FF"><title>5 on 2026-03-31</title></polygon><polygon points="294.61,302.00 282.49,309.00 282.49,293.90 294.61,286.90" fill="#7C3AED"/><polygon points="270.36,302.00 282.49,309.00 282.49,293.90 270.36,286.90" fill="#5B21B6"/><polygon points="282.49,279.90 294.61,286.90 282.49,293.90 270.36,286.90" fill="#A78BFA"><title>3 on 2026-04-06</title></polygon><polygon points="318.86,302.00 306.74,309.00 306.74,280.13 318.86,273.13" fill="#C026D3"/><polygon points="294.61,302.00 306.74,309.00 306.74,280.13 294.61,273.13" fill="#86198F"/><polygon points="306.74,266.13 318.86,273.13 306.74,280.13 294.61,273.13" fill="#F0ABFC"><title>13 on 2026-04-12</title></polygon><polygon points="185.49,309.00 173.37,316.00 173.37,314.50 185.49,307.50" fill="#161b22"/><polygon points="161.24,309.00 173.37,316.00 173.37,314.50 161.24,307.50" fill="#0d1117"/><polygon points="173.37,300.50 185.49,307.50 173.37,314.50 161.24,307.50" fill="#1c2129"><title>0 on 2026-03-14</title></polygon><polygon points="209.74,309.00 197.62,316.00 197.62,314.50 209.74,307.50" fill="#161b22"/><polygon points="185.49,309.00 197.62,316.00 197.62,314.50 185.49,307.50" fill="#0d1117"/><polygon points="197.62,300.50 209.74,307.50 197.62,314.50 185.49,307.50" fill="#1c2129"><title>0 on 2026-03-20</title></polygon><polygon points="233.99,309.00 221.87,316.00 221.87,295.75 233.99,288.75" fill="#06B6D4"/><polygon points="209.74,309.00 221.87,316.00 221.87,295.75 209.74,288.75" fill="#0891B2"/><polygon points="221.87,281.75 233.99,288.75 221.87,295.75 209.74,288.75" fill="#5EEAD4"><title>6 on 2026-03-26</title></polygon><polygon points="258.24,309.00 246.11,316.00 246.11,299.00 258.24,292.00" fill="#2C8DE8"/><polygon points="233.99,309.00 246.11,316.00 246.11,299.00 233.99,292.00" fill="#1B5FA8"/><polygon points="246.11,285.00 258.24,292.00 246.11,299.00 233.99,292.00" fill="#67C7FF"><title>4 on 2026-04-01</title></polygon><polygon points="282.49,309.00 270.36,316.00 270.36,292.96 282.49,285.96" fill="#7C3AED"/><polygon points="258.24,309.00 270.36,316.00 270.36,292.96 258.24,285.96" fill="#5B21B6"/><polygon points="270.36,278.96 282.49,285.96 270.36,292.96 258.24,285.96" fill="#A78BFA"><title>8 on 2026-04-07</title></polygon><polygon points="306.74,309.00 294.61,316.00 294.61,305.93 306.74,298.93" fill="#C026D3"/><polygon points="282.49,309.00 294.61,316.00 294.61,305.93 282.49,298.93" fill="#86198F"/><polygon points="294.61,291.93 306.74,298.93 294.61,305.93 282.49,298.93" fill="#F0ABFC"><title>1 on 2026-04-13</title></polygon><polygon points="330.98,309.00 318.86,316.00 318.86,292.96 330.98,285.96" fill="#E84A4A"/><polygon points="306.74,309.00 318.86,316.00 318.86,292.96 306.74,285.96" fill="#A82F2F"/><polygon points="318.86,278.96 330.98,285.96 318.86,292.96 306.74,285.96" fill="#FF6B6B"><title>8 on 2026-04-19</title></polygon><polygon points="197.62,316.00 185.49,323.00 185.49,298.69 197.62,291.69" fill="#5AD650"/><polygon points="173.37,316.00 185.49,323.00 185.49,298.69 173.37,291.69" fill="#36873B"/><polygon points="185.49,284.69 197.62,291.69 185.49,298.69 173.37,291.69" fill="#9CFF85"><title>9 on 2026-03-21</title></polygon><polygon points="221.87,316.00 209.74,323.00 209.74,321.50 221.87,314.50" fill="#161b22"/><polygon points="197.62,316.00 209.74,323.00 209.74,321.50 197.62,314.50" fill="#0d1117"/><polygon points="209.74,307.50 221.87,314.50 209.74,321.50 197.62,314.50" fill="#1c2129"><title>0 on 2026-03-27</title></polygon><polygon points="246.11,316.00 233.99,323.00 233.99,312.93 246.11,305.93" fill="#2C8DE8"/><polygon points="221.87,316.00 233.99,323.00 233.99,312.93 221.87,305.93" fill="#1B5FA8"/><polygon points="233.99,298.93 246.11,305.93 233.99,312.93 221.87,305.93" fill="#67C7FF"><title>1 on 2026-04-02</title></polygon><polygon points="270.36,316.00 258.24,323.00 258.24,321.50 270.36,314.50" fill="#161b22"/><polygon points="246.11,316.00 258.24,323.00 258.24,321.50 246.11,314.50" fill="#0d1117"/><polygon points="258.24,307.50 270.36,314.50 258.24,321.50 246.11,314.50" fill="#1c2129"><title>0 on 2026-04-08</title></polygon><polygon points="294.61,316.00 282.49,323.00 282.49,321.50 294.61,314.50" fill="#161b22"/><polygon points="270.36,316.00 282.49,323.00 282.49,321.50 270.36,314.50" fill="#0d1117"/><polygon points="282.49,307.50 294.61,314.50 282.49,321.50 270.36,314.50" fill="#1c2129"><title>0 on 2026-04-14</title></polygon><polygon points="318.86,316.00 306.74,323.00 306.74,299.96 318.86,292.96" fill="#E84A4A"/><polygon points="294.61,316.00 306.74,323.00 306.74,299.96 294.61,292.96" fill="#A82F2F"/><polygon points="306.74,285.96 318.86,292.96 306.74,299.96 294.61,292.96" fill="#FF6B6B"><title>8 on 2026-04-20</title></polygon><polygon points="343.11,316.00 330.98,323.00 330.98,238.91 343.11,231.91" fill="#E78A2F"/><polygon points="318.86,316.00 330.98,323.00 330.98,238.91 318.86,231.91" fill="#A85B1F"/><polygon points="330.98,224.91 343.11,231.91 330.98,238.91 318.86,231.91" fill="#FFA94D"><title>109 on 2026-04-26</title></polygon><polygon points="209.74,323.00 197.62,330.00 197.62,308.31 209.74,301.31" fill="#06B6D4"/><polygon points="185.49,323.00 197.62,330.00 197.62,308.31 185.49,301.31" fill="#0891B2"/><polygon points="197.62,294.31 209.74,301.31 197.62,308.31 185.49,301.31" fill="#5EEAD4"><title>7 on 2026-03-28</title></polygon><polygon points="233.99,323.00 221.87,330.00 221.87,328.50 233.99,321.50" fill="#161b22"/><polygon points="209.74,323.00 221.87,330.00 221.87,328.50 209.74,321.50" fill="#0d1117"/><polygon points="221.87,314.50 233.99,321.50 221.87,328.50 209.74,321.50" fill="#1c2129"><title>0 on 2026-04-03</title></polygon><polygon points="258.24,323.00 246.11,330.00 246.11,328.50 258.24,321.50" fill="#161b22"/><polygon points="233.99,323.00 246.11,330.00 246.11,328.50 233.99,321.50" fill="#0d1117"/><polygon points="246.11,314.50 258.24,321.50 246.11,328.50 233.99,321.50" fill="#1c2129"><title>0 on 2026-04-09</title></polygon><polygon points="282.49,323.00 270.36,330.00 270.36,319.93 282.49,312.93" fill="#C026D3"/><polygon points="258.24,323.00 270.36,330.00 270.36,319.93 258.24,312.93" fill="#86198F"/><polygon points="270.36,305.93 282.49,312.93 270.36,319.93 258.24,312.93" fill="#F0ABFC"><title>1 on 2026-04-15</title></polygon><polygon points="306.74,323.00 294.61,330.00 294.61,303.32 306.74,296.32" fill="#E84A4A"/><polygon points="282.49,323.00 294.61,330.00 294.61,303.32 282.49,296.32" fill="#A82F2F"/><polygon points="294.61,289.32 306.74,296.32 294.61,303.32 282.49,296.32" fill="#FF6B6B"><title>11 on 2026-04-21</title></polygon><polygon points="330.98,323.00 318.86,330.00 318.86,288.08 330.98,281.08" fill="#E78A2F"/><polygon points="306.74,323.00 318.86,330.00 318.86,288.08 306.74,281.08" fill="#A85B1F"/><polygon points="318.86,274.08 330.98,281.08 318.86,288.08 306.74,281.08" fill="#FFA94D"><title>28 on 2026-04-27</title></polygon><polygon points="355.23,323.00 343.11,330.00 343.11,328.50 355.23,321.50" fill="#161b22"/><polygon points="330.98,323.00 343.11,330.00 343.11,328.50 330.98,321.50" fill="#0d1117"/><polygon points="343.11,314.50 355.23,321.50 343.11,328.50 330.98,321.50" fill="#1c2129"><title>0 on 2026-05-03</title></polygon><polygon points="221.87,330.00 209.74,337.00 209.74,326.93 221.87,319.93" fill="#2C8DE8"/><polygon points="197.62,330.00 209.74,337.00 209.74,326.93 197.62,319.93" fill="#1B5FA8"/><polygon points="209.74,312.93 221.87,319.93 209.74,326.93 197.62,319.93" fill="#67C7FF"><title>1 on 2026-04-04</title></polygon><polygon points="246.11,330.00 233.99,337.00 233.99,335.50 246.11,328.50" fill="#161b22"/><polygon points="221.87,330.00 233.99,337.00 233.99,335.50 221.87,328.50" fill="#0d1117"/><polygon points="233.99,321.50 246.11,328.50 233.99,335.50 221.87,328.50" fill="#1c2129"><title>0 on 2026-04-10</title></polygon><polygon points="270.36,330.00 258.24,337.00 258.24,321.90 270.36,314.90" fill="#C026D3"/><polygon points="246.11,330.00 258.24,337.00 258.24,321.90 246.11,314.90" fill="#86198F"/><polygon points="258.24,307.90 270.36,314.90 258.24,321.90 246.11,314.90" fill="#F0ABFC"><title>3 on 2026-04-16</title></polygon><polygon points="294.61,330.00 282.49,337.00 282.49,335.50 294.61,328.50" fill="#161b22"/><polygon points="270.36,330.00 282.49,337.00 282.49,335.50 270.36,328.50" fill="#0d1117"/><polygon points="282.49,321.50 294.61,328.50 282.49,335.50 270.36,328.50" fill="#1c2129"><title>0 on 2026-04-22</title></polygon><polygon points="318.86,330.00 306.74,337.00 306.74,335.50 318.86,328.50" fill="#161b22"/><polygon points="294.61,330.00 306.74,337.00 306.74,335.50 294.61,328.50" fill="#0d1117"/><polygon points="306.74,321.50 318.86,328.50 306.74,335.50 294.61,328.50" fill="#1c2129"><title>0 on 2026-04-28</title></polygon><polygon points="343.11,330.00 330.98,337.00 330.98,203.00 343.11,196.00" fill="#E6C24A"/><polygon points="318.86,330.00 330.98,337.00 330.98,203.00 318.86,196.00" fill="#9F8B2A"/><polygon points="330.98,189.00 343.11,196.00 330.98,203.00 318.86,196.00" fill="#FFE066"><title>263 on 2026-05-04</title></polygon><polygon points="233.99,337.00 221.87,344.00 221.87,320.96 233.99,313.96" fill="#7C3AED"/><polygon points="209.74,337.00 221.87,344.00 221.87,320.96 209.74,313.96" fill="#5B21B6"/><polygon points="221.87,306.96 233.99,313.96 221.87,320.96 209.74,313.96" fill="#A78BFA"><title>8 on 2026-04-11</title></polygon><polygon points="258.24,337.00 246.11,344.00 246.11,333.93 258.24,326.93" fill="#C026D3"/><polygon points="233.99,337.00 246.11,344.00 246.11,333.93 233.99,326.93" fill="#86198F"/><polygon points="246.11,319.93 258.24,326.93 246.11,333.93 233.99,326.93" fill="#F0ABFC"><title>1 on 2026-04-17</title></polygon><polygon points="282.49,337.00 270.36,344.00 270.36,342.50 282.49,335.50" fill="#161b22"/><polygon points="258.24,337.00 270.36,344.00 270.36,342.50 258.24,335.50" fill="#0d1117"/><polygon points="270.36,328.50 282.49,335.50 270.36,342.50 258.24,335.50" fill="#1c2129"><title>0 on 2026-04-23</title></polygon><polygon points="306.74,337.00 294.61,344.00 294.61,331.12 306.74,324.12" fill="#E78A2F"/><polygon points="282.49,337.00 294.61,344.00 294.61,331.12 282.49,324.12" fill="#A85B1F"/><polygon points="294.61,317.12 306.74,324.12 294.61,331.12 282.49,324.12" fill="#FFA94D"><title>2 on 2026-04-29</title></polygon><polygon points="246.11,344.00 233.99,351.00 233.99,349.50 246.11,342.50" fill="#161b22"/><polygon points="221.87,344.00 233.99,351.00 233.99,349.50 221.87,342.50" fill="#0d1117"/><polygon points="233.99,335.50 246.11,342.50 233.99,349.50 221.87,342.50" fill="#1c2129"><title>0 on 2026-04-18</title></polygon><polygon points="270.36,344.00 258.24,351.00 258.24,329.31 270.36,322.31" fill="#E84A4A"/><polygon points="246.11,344.00 258.24,351.00 258.24,329.31 246.11,322.31" fill="#A82F2F"/><polygon points="258.24,315.31 270.36,322.31 258.24,329.31 246.11,322.31" fill="#FF6B6B"><title>7 on 2026-04-24</title></polygon><polygon points="294.61,344.00 282.49,351.00 282.49,309.08 294.61,302.08" fill="#E78A2F"/><polygon points="270.36,344.00 282.49,351.00 282.49,309.08 270.36,302.08" fill="#A85B1F"/><polygon points="282.49,295.08 294.61,302.08 282.49,309.08 270.36,302.08" fill="#FFA94D"><title>28 on 2026-04-30</title></polygon><polygon points="258.24,351.00 246.11,358.00 246.11,339.30 258.24,332.30" fill="#E84A4A"/><polygon points="233.99,351.00 246.11,358.00 246.11,339.30 233.99,332.30" fill="#A82F2F"/><polygon points="246.11,325.30 258.24,332.30 246.11,339.30 233.99,332.30" fill="#FF6B6B"><title>5 on 2026-04-25</title></polygon><polygon points="282.49,351.00 270.36,358.00 270.36,311.12 282.49,304.12" fill="#E78A2F"/><polygon points="258.24,351.00 270.36,358.00 270.36,311.12 258.24,304.12" fill="#A85B1F"/><polygon points="270.36,297.12 282.49,304.12 270.36,311.12 258.24,304.12" fill="#FFA94D"><title>35 on 2026-05-01</title></polygon><polygon points="270.36,358.00 258.24,365.00 258.24,363.50 270.36,356.50" fill="#161b22"/><polygon points="246.11,358.00 258.24,365.00 258.24,363.50 246.11,356.50" fill="#0d1117"/><polygon points="258.24,349.50 270.36,356.50 258.24,363.50 246.11,356.50" fill="#1c2129"><title>0 on 2026-05-02</title></polygon><style>text{font-family:-apple-system,BlinkMacSystemFont,Segoe UI,sans-serif}</style><text x="40" y="32" font-size="22" font-weight="800" fill="#e6edf3">AbdullahBakir97</text><text x="40" y="52" font-size="13" font-weight="500" fill="#a78bfa"><tspan font-weight="700" fill="#FFE066">599</tspan> contributions in 2026 · 3D Rainbow</text><text x="356" y="32" text-anchor="end" font-size="64" font-weight="900" fill="#FF6B6B" opacity="0.10" letter-spacing="-2">2026</text></svg>