<svg xmlns="http://www.w3.org/2000/svg" viewBox="0 0 1400 460" role="img" aria-label="Abdullah Bakir — Full-Stack Developer"><defs><linearGradient id="bg" x1="0" y1="0" x2="1" y2="1"><stop offset="0%" stop-color="#0a0e1a"/><stop offset="55%" stop-color="#0d1117"/><stop offset="100%" stop-color="#02030a"/></linearGradient><radialGradient id="nebA" cx="20%" cy="0%" r="55%"><stop offset="0%" stop-color="#a855f7" stop-opacity="0.22"/><stop offset="100%" stop-color="#a855f7" stop-opacity="0"/></radialGradient><radialGradient id="nebB" cx="100%" cy="100%" r="60%"><stop offset="0%" stop-color="#06b6d4" stop-opacity="0.18"/><stop offset="100%" stop-color="#06b6d4" stop-opacity="0"/></radialGradient><linearGradient id="aurora" x1="0" y1="0" x2="1" y2="0"><stop offset="0%" stop-color="#39d353" stop-opacity="0"/><stop offset="35%" stop-color="#39d353" stop-opacity="0.55"/><stop offset="65%" stop-color="#a855f7" stop-opacity="0.55"/><stop offset="100%" stop-color="#a855f7" stop-opacity="0"/></linearGradient><linearGradient id="avatarRing" x1="0" y1="0" x2="1" y2="1"><stop offset="0%" stop-color="#F90001"/><stop offset="50%" stop-color="#FF652F"/><stop offset="100%" stop-color="#a855f7"/></linearGradient><radialGradient id="avatarFill" cx="50%" cy="50%" r="50%"><stop offset="0%" stop-color="#1a1f2e"/><stop offset="100%" stop-color="#02030a"/></radialGradient><linearGradient id="statTile" x1="0" y1="0" x2="0" y2="1"><stop offset="0%" stop-color="#1c2129"/><stop offset="100%" stop-color="#0d1117"/></linearGradient><filter id="bloom" x="-50%" y="-50%" width="200%" height="200%"><feGaussianBlur stdDeviation="3" result="b"/><feMerge><feMergeNode in="b"/><feMergeNode in="SourceGraphic"/></feMerge></filter><filter id="haze" x="-20%" y="-20%" width="140%" height="140%"><feGaussianBlur stdDeviation="8"/></filter><style><![CDATA[@keyframes twinkle{0%,100%{opacity:.2}50%{opacity:1}}@keyframes auroraSlide{0%,100%{transform:translateX(0);opacity:.5}50%{transform:translateX(40px);opacity:.85}}@keyframes pulseDot{0%,100%{transform:scale(1);opacity:1}50%{transform:scale(1.35);opacity:.5}}@keyframes ringBreathe{0%,100%{transform:rotate(0deg)}50%{transform:rotate(180deg)}}.star{animation:twinkle 3.6s ease-in-out infinite}.star.b{animation-duration:2.4s}.star.c{animation-duration:5.1s}.aurora{animation:auroraSlide 14s ease-in-out infinite}.avail-dot{animation:pulseDot 1.5s ease-in-out infinite;transform-origin:center;transform-box:fill-box}.av-ring{transform-origin:center;transform-box:fill-box;animation:ringBreathe 24s linear infinite}}]]></style></defs><rect width="1400" height="460" fill="url(#bg)"/><rect width="1400" height="460" fill="url(#nebA)" filter="url(#haze)"/><rect width="1400" height="460" fill="url(#nebB)" filter="url(#haze)"/><path class="aurora" d="M0,50 Q420,25 770,55 T1400,40 L1400,74 Q979,55 630,72 T0,62 Z" fill="url(#aurora)" filter="url(#haze)" opacity="0.7"/><g fill="#e6edf3"><circle class="star" cx="447" cy="116" r="0.4" style="animation-delay:-2.1s"/><circle class="star b" cx="1189" cy="342" r="0.6" style="animation-delay:-0.6s"/><circle class="star" cx="728" cy="127" r="0.8" style="animation-delay:-4.3s"/><circle class="star" cx="1256" cy="80" r="0.6" style="animation-delay:-4.6s"/><circle class="star b" cx="1175" cy="366" r="0.8" style="animation-delay:-1.3s"/><circle class="star" cx="1023" cy="371" r="0.6" style="animation-delay:-1.4s"/><circle class="star b" cx="633" cy="305" r="0.4" style="animation-delay:-1.3s"/><circle class="star b" cx="368" cy="294" r="0.4" style="animation-delay:-0.0s"/><circle class="star b" cx="997" cy="241" r="0.6" style="animation-delay:-4.5s"/><circle class="star" cx="746" cy="161" r="0.8" style="animation-delay:-4.1s"/><circle class="star" cx="1232" cy="330" r="0.6" style="animation-delay:-5.9s"/><circle class="star c" cx="491" cy="125" r="0.8" style="animation-delay:-3.3s"/><circle class="star b" cx="402" cy="356" r="0.8" style="animation-delay:-0.4s"/><circle class="star c" cx="264" cy="31" r="0.6" style="animation-delay:-3.9s"/><circle class="star b" cx="768" cy="115" r="0.6" style="animation-delay:-3.0s"/><circle class="star" cx="494" cy="81" r="0.4" style="animation-delay:-4.6s"/><circle class="star b" cx="66" cy="175" r="0.8" style="animation-delay:-2.0s"/><circle class="star" cx="393" cy="346" r="0.6" style="animation-delay:-3.0s"/><circle class="star c" cx="789" cy="370" r="0.4" style="animation-delay:-5.8s"/><circle class="star b" cx="375" cy="106" r="0.4" style="animation-delay:-0.2s"/><circle class="star b" cx="662" cy="241" r="0.4" style="animation-delay:-4.3s"/><circle class="star c" cx="774" cy="185" r="0.8" style="animation-delay:-4.1s"/><circle class="star b" cx="127" cy="193" r="0.4" style="animation-delay:-6.0s"/><circle class="star b" cx="1087" cy="216" r="0.8" style="animation-delay:-1.8s"/><circle class="star" cx="595" cy="298" r="0.4" style="animation-delay:-5.3s"/><circle class="star c" cx="861" cy="188" r="0.4" style="animation-delay:-4.2s"/><circle class="star" cx="275" cy="96" r="0.4" style="animation-delay:-1.1s"/><circle class="star b" cx="468" cy="309" r="0.4" style="animation-delay:-5.4s"/><circle class="star c" cx="45" cy="261" r="0.8" style="animation-delay:-3.4s"/><circle class="star" cx="467" cy="366" r="0.8" style="animation-delay:-2.2s"/><circle class="star" cx="1238" cy="182" r="0.8" style="animation-delay:-3.3s"/><circle class="star b" cx="1117" cy="243" r="0.4" style="animation-delay:-4.6s"/><circle class="star c" cx="685" cy="323" r="0.6" style="animation-delay:-2.8s"/><circle class="star b" cx="334" cy="149" r="0.8" style="animation-delay:-4.6s"/><circle class="star b" cx="1142" cy="172" r="0.8" style="animation-delay:-4.0s"/><circle class="star c" cx="216" cy="240" r="0.4" style="animation-delay:-0.8s"/><circle class="star b" cx="1189" cy="170" r="0.6" style="animation-delay:-3.7s"/><circle class="star" cx="19" cy="26" r="0.6" style="animation-delay:-4.8s"/><circle class="star" cx="1210" cy="199" r="0.6" style="animation-delay:-3.6s"/><circle class="star b" cx="433" cy="104" r="0.4" style="animation-delay:-4.2s"/><circle class="star" cx="1149" cy="95" r="0.6" style="animation-delay:-2.1s"/><circle class="star b" cx="158" cy="352" r="0.6" style="animation-delay:-1.6s"/><circle class="star" cx="37" cy="47" r="0.4" style="animation-delay:-1.3s"/><circle class="star c" cx="1382" cy="82" r="0.6" style="animation-delay:-4.3s"/><circle class="star c" cx="112" cy="205" r="0.6" style="animation-delay:-4.6s"/><circle class="star" cx="629" cy="364" r="0.6" style="animation-delay:-5.8s"/><circle class="star c" cx="371" cy="278" r="0.8" style="animation-delay:-1.1s"/><circle class="star c" cx="828" cy="47" r="0.8" style="animation-delay:-1.3s"/><circle class="star c" cx="830" cy="153" r="0.8" style="animation-delay:-4.3s"/><circle class="star" cx="107" cy="376" r="0.6" style="animation-delay:-0.4s"/></g><text x="60" y="42" font-family="-apple-system,BlinkMacSystemFont,SF Pro Display,Inter,Segoe UI,sans-serif" font-size="13" font-weight="700" fill="#39d353" letter-spacing="3.5">// THE PROFILE · v2026.05</text><text x="1340" y="42" text-anchor="end" font-family="-apple-system,BlinkMacSystemFont,Segoe UI,sans-serif" font-size="13" font-weight="600" fill="#7d8590" letter-spacing="2">github.com/AbdullahBakir97</text><g class="av-ring" style="transform-origin:1180px 230px"><circle cx="1180" cy="230" r="128" fill="none" stroke="url(#avatarRing)" stroke-width="1.5" stroke-dasharray="3 8" opacity="0.55"/></g><circle cx="1180" cy="230" r="115" fill="none" stroke="url(#avatarRing)" stroke-width="3"/><circle cx="1180" cy="230" r="110" fill="url(#avatarFill)" stroke="#161b22" stroke-width="2"/><text x="1180" y="260" text-anchor="middle" font-family="-apple-system,BlinkMacSystemFont,SF Pro Display,Inter,Segoe UI,sans-serif" font-size="92" font-weight="900" fill="#e6edf3" letter-spacing="-3">AB</text><circle cx="1258" cy="308" r="14" fill="#0d1117"/><circle class="avail-dot" cx="1258" cy="308" r="9" fill="#39d353" filter="url(#bloom)"/><text x="60" y="150" font-family="-apple-system,BlinkMacSystemFont,SF Pro Display,Inter,Segoe UI,sans-serif" font-size="76" font-weight="900" fill="#ffffff" letter-spacing="-2.5">Abdullah Bakir</text><text x="60" y="188" font-family="-apple-system,BlinkMacSystemFont,SF Pro Display,Inter,Segoe UI,sans-serif" font-size="14" font-weight="700" fill="#39d353" letter-spacing="3" text-transform="uppercase">👋 Hi, I'm a</text><text x="60" y="230" font-family="-apple-system,BlinkMacSystemFont,SF Pro Display,Inter,Segoe UI,sans-serif" font-size="32" font-weight="600" fill="#a855f7" letter-spacing="-0.5">Full-Stack Developer · Berlin, Germany 🇩🇪</text><text x="60" y="272" font-family="-apple-system,BlinkMacSystemFont,Segoe UI,sans-serif" font-size="18" font-weight="400" fill="#c9d1d9" font-style="italic">"Ship something useful → learn → ship again."</text><g transform="translate(60, 300)"><rect x="0" y="0" width="220" height="32" rx="16" fill="#0d2818" stroke="#39d353" stroke-width="1.5"/><circle cx="18" cy="16" r="5" fill="#39d353"/><text x="32" y="21" font-family="-apple-system,BlinkMacSystemFont,Segoe UI,sans-serif" font-size="13" font-weight="700" fill="#39d353" letter-spacing="0.5">Available for collaboration</text></g><g><rect x="60" y="350" width="416" height="80" rx="12" fill="url(#statTile)" stroke="#30363d" stroke-width="1"/><rect x="60" y="350" width="4" height="80" rx="2" fill="#F90001"/><text x="84" y="374" font-family="-apple-system,BlinkMacSystemFont,Segoe UI,sans-serif" font-size="11" font-weight="700" fill="#7d8590" letter-spacing="2.5">YEARS CODING</text><text x="84" y="408" font-family="-apple-system,BlinkMacSystemFont,SF Pro Display,Inter,Segoe UI,sans-serif" font-size="32" font-weight="800" fill="#e6edf3" letter-spacing="-0.5">5+</text><text x="452" y="408" text-anchor="end" font-family="-apple-system,BlinkMacSystemFont,Segoe UI,sans-serif" font-size="13" font-weight="500" fill="#8b949e">since 2020</text></g><g><rect x="492" y="350" width="416" height="80" rx="12" fill="url(#statTile)" stroke="#30363d" stroke-width="1"/><rect x="492" y="350" width="4" height="80" rx="2" fill="#F90001"/><text x="516" y="374" font-family="-apple-system,BlinkMacSystemFont,Segoe UI,sans-serif" font-size="11" font-weight="700" fill="#7d8590" letter-spacing="2.5">REPOS SHIPPED</text><text x="516" y="408" font-family="-apple-system,BlinkMacSystemFont,SF Pro Display,Inter,Segoe UI,sans-serif" font-size="32" font-weight="800" fill="#e6edf3" letter-spacing="-0.5">60+</text><text x="884" y="408" text-anchor="end" font-family="-apple-system,BlinkMacSystemFont,Segoe UI,sans-serif" font-size="13" font-weight="500" fill="#8b949e">across stack</text></g><g><rect x="924" y="350" width="416" height="80" rx="12" fill="url(#statTile)" stroke="#30363d" stroke-width="1"/><rect x="924" y="350" width="4" height="80" rx="2" fill="#F90001"/><text x="948" y="374" font-family="-apple-system,BlinkMacSystemFont,Segoe UI,sans-serif" font-size="11" font-weight="700" fill="#7d8590" letter-spacing="2.5">LANGUAGES</text><text x="948" y="408" font-family="-apple-system,BlinkMacSystemFont,SF Pro Display,Inter,Segoe UI,sans-serif" font-size="32" font-weight="800" fill="#e6edf3" letter-spacing="-0.5">EN · DE · AR</text><text x="1316" y="408" text-anchor="end" font-family="-apple-system,BlinkMacSystemFont,Segoe UI,sans-serif" font-size="13" font-weight="500" fill="#8b949e">fluent in 3</text></g></svg>