<svg xmlns="http://www.w3.org/2000/svg" viewBox="0 0 1400 760" role="img" aria-label="Abdullah Bakir — Full-Stack Developer"><defs><radialGradient id="sky" cx="50%" cy="100%" r="120%"><stop offset="0%" stop-color="#1a1f3a"/><stop offset="35%" stop-color="#0d1230"/><stop offset="100%" stop-color="#02030a"/></radialGradient><radialGradient id="nebA" cx="20%" cy="20%" r="55%"><stop offset="0%" stop-color="#a855f7" stop-opacity="0.32"/><stop offset="100%" stop-color="#a855f7" stop-opacity="0"/></radialGradient><radialGradient id="nebB" cx="85%" cy="15%" r="50%"><stop offset="0%" stop-color="#06b6d4" stop-opacity="0.28"/><stop offset="100%" stop-color="#06b6d4" stop-opacity="0"/></radialGradient><radialGradient id="nebC" cx="50%" cy="120%" r="80%"><stop offset="0%" stop-color="#39d353" stop-opacity="0.20"/><stop offset="100%" stop-color="#39d353" stop-opacity="0"/></radialGradient><linearGradient id="aurora" x1="0" y1="0" x2="1" y2="0"><stop offset="0%" stop-color="#39d353" stop-opacity="0"/><stop offset="22%" stop-color="#34d399" stop-opacity="0.55"/><stop offset="48%" stop-color="#06b6d4" stop-opacity="0.85"/><stop offset="72%" stop-color="#a855f7" stop-opacity="0.55"/><stop offset="100%" stop-color="#a855f7" stop-opacity="0"/></linearGradient><linearGradient id="cardGlass" x1="0" y1="0" x2="0" y2="1"><stop offset="0%" stop-color="#161b22" stop-opacity="0.85"/><stop offset="100%" stop-color="#0d1117" stop-opacity="0.95"/></linearGradient><linearGradient id="avatarRing" x1="0" y1="0" x2="1" y2="1"><stop offset="0%" stop-color="#F90001"/><stop offset="50%" stop-color="#FF652F"/><stop offset="100%" stop-color="#a855f7"/></linearGradient><linearGradient id="statCard" x1="0" y1="0" x2="0" y2="1"><stop offset="0%" stop-color="#1c2129" stop-opacity="0.9"/><stop offset="100%" stop-color="#0d1117" stop-opacity="0.95"/></linearGradient><radialGradient id="vignette" cx="50%" cy="50%" r="80%"><stop offset="60%" stop-color="#000" stop-opacity="0"/><stop offset="100%" stop-color="#000" stop-opacity="0.55"/></radialGradient><filter id="bloom" x="-50%" y="-50%" width="200%" height="200%"><feGaussianBlur stdDeviation="3" result="b"/><feMerge><feMergeNode in="b"/><feMergeNode in="SourceGraphic"/></feMerge></filter><filter id="haze" x="-20%" y="-20%" width="140%" height="140%"><feGaussianBlur stdDeviation="6"/></filter><style><![CDATA[@keyframes twinkle{0%,100%{opacity:.18}50%{opacity:1}}@keyframes auroraWave{0%,100%{transform:translateX(0);opacity:.55}50%{transform:translateX(28px);opacity:.85}}@keyframes hueShift{0%,100%{filter:hue-rotate(0deg)}50%{filter:hue-rotate(35deg)}}@keyframes pulseDot{0%,100%{transform:scale(1);opacity:1}50%{transform:scale(1.3);opacity:.55}}@keyframes pulseRing{0%,100%{opacity:.4;r:7}50%{opacity:.05;r:14}}@keyframes orbitCW{from{transform:rotate(0deg)}to{transform:rotate(360deg)}}@keyframes orbitCCW{from{transform:rotate(0deg)}to{transform:rotate(-360deg)}}@keyframes rise{0%{transform:translateY(20px);opacity:0}15%{opacity:.85}85%{opacity:.85}100%{transform:translateY(-790px);opacity:0}}@keyframes fadeIn{from{transform:translateY(8px)}to{transform:translateY(0)}}@keyframes typing{0%,40%{width:0}50%,100%{width:100%}}.star{animation:twinkle 3.4s ease-in-out infinite}.star.b{animation-duration:2.2s}.star.c{animation-duration:4.7s}.star.d{animation-duration:5.6s}.aurora{animation:auroraWave 11s ease-in-out infinite}.nebula{animation:hueShift 22s ease-in-out infinite}.avail-dot{animation:pulseDot 1.6s ease-in-out infinite;transform-origin:center;transform-box:fill-box}.avail-ring{animation:pulseRing 1.6s ease-in-out infinite}.ring-inner{transform-origin:1040px 390px;animation:orbitCW 28s linear infinite}}.ring-mid{transform-origin:1040px 390px;animation:orbitCCW 48s linear infinite}}.ring-outer{transform-origin:1040px 390px;animation:orbitCW 80s linear infinite}}.ember{animation:rise 14s linear infinite}.ember.b{animation-duration:18s}.ember.c{animation-duration:11s}.fade-in{animation:fadeIn 1.4s ease-out both}.fade-in.d2{animation-delay:0.2s}.fade-in.d4{animation-delay:0.4s}.fade-in.d6{animation-delay:0.6s}.fade-in.d8{animation-delay:0.8s}]]></style></defs><rect width="1400" height="760" fill="url(#sky)"/><g class="nebula" filter="url(#haze)"><rect width="1400" height="760" fill="url(#nebA)"/><rect width="1400" height="760" fill="url(#nebB)"/><rect width="1400" height="760" fill="url(#nebC)"/></g><g fill="#e6edf3"><circle class="star b" cx="447" cy="225" r="0.7" style="animation-delay:-2.1s"/><circle class="star c" cx="1189" cy="677" r="1.0" style="animation-delay:-0.6s"/><circle class="star b" cx="728" cy="246" r="0.5" style="animation-delay:-3.0s"/><circle class="star b" cx="116" cy="744" r="1.3" style="animation-delay:-5.8s"/><circle class="star" cx="1023" cy="734" r="1.0" style="animation-delay:-1.4s"/><circle class="star d" cx="633" cy="602" r="0.5" style="animation-delay:-1.3s"/><circle class="star d" cx="368" cy="580" r="0.7" style="animation-delay:-0.0s"/><circle class="star c" cx="997" cy="475" r="1.3" style="animation-delay:-4.5s"/><circle class="star d" cx="746" cy="314" r="0.7" style="animation-delay:-5.9s"/><circle class="star b" cx="457" cy="249" r="0.7" style="animation-delay:-4.3s"/><circle class="star b" cx="1389" cy="379" r="0.5" style="animation-delay:-0.2s"/><circle class="star b" cx="774" cy="554" r="1.0" style="animation-delay:-2.3s"/><circle class="star b" cx="828" cy="503" r="0.7" style="animation-delay:-5.7s"/><circle class="star c" cx="377" cy="118" r="0.5" style="animation-delay:-3.2s"/><circle class="star c" cx="673" cy="335" r="0.7" style="animation-delay:-0.4s"/><circle class="star b" cx="970" cy="398" r="0.5" style="animation-delay:-1.2s"/><circle class="star c" cx="119" cy="349" r="0.5" style="animation-delay:-2.9s"/><circle class="star c" cx="397" cy="392" r="1.0" style="animation-delay:-3.7s"/><circle class="star c" cx="1255" cy="673" r="0.5" style="animation-delay:-0.6s"/><circle class="star c" cx="673" cy="547" r="1.3" style="animation-delay:-1.8s"/><circle class="star" cx="595" cy="588" r="0.7" style="animation-delay:-5.3s"/><circle class="star b" cx="861" cy="368" r="0.7" style="animation-delay:-1.1s"/><circle class="star b" cx="340" cy="167" r="0.7" style="animation-delay:-5.7s"/><circle class="star" cx="1213" cy="88" r="1.3" style="animation-delay:-3.1s"/><circle class="star" cx="1186" cy="719" r="0.7" style="animation-delay:-2.2s"/><circle class="star d" cx="1238" cy="357" r="0.7" style="animation-delay:-5.7s"/><circle class="star c" cx="93" cy="324" r="1.0" style="animation-delay:-5.4s"/><circle class="star d" cx="930" cy="171" r="1.0" style="animation-delay:-4.6s"/><circle class="star" cx="1142" cy="337" r="1.0" style="animation-delay:-2.9s"/><circle class="star c" cx="503" cy="664" r="0.7" style="animation-delay:-5.4s"/><circle class="star" cx="815" cy="299" r="0.5" style="animation-delay:-2.1s"/><circle class="star c" cx="92" cy="609" r="1.0" style="animation-delay:-1.0s"/><circle class="star b" cx="1177" cy="744" r="0.7" style="animation-delay:-1.0s"/><circle class="star c" cx="719" cy="689" r="0.7" style="animation-delay:-0.4s"/><circle class="star d" cx="693" cy="83" r="1.3" style="animation-delay:-1.6s"/><circle class="star b" cx="37" cy="87" r="0.5" style="animation-delay:-1.3s"/><circle class="star" cx="1382" cy="157" r="1.3" style="animation-delay:-4.7s"/><circle class="star d" cx="798" cy="285" r="1.0" style="animation-delay:-1.3s"/><circle class="star d" cx="371" cy="549" r="0.7" style="animation-delay:-5.9s"/><circle class="star d" cx="165" cy="521" r="0.7" style="animation-delay:-1.8s"/><circle class="star c" cx="1308" cy="549" r="0.5" style="animation-delay:-1.4s"/><circle class="star b" cx="162" cy="542" r="1.0" style="animation-delay:-5.5s"/><circle class="star d" cx="268" cy="639" r="0.5" style="animation-delay:-0.9s"/><circle class="star c" cx="309" cy="580" r="1.0" style="animation-delay:-4.5s"/><circle class="star" cx="1122" cy="611" r="1.0" style="animation-delay:-3.1s"/><circle class="star b" cx="1151" cy="326" r="0.5" style="animation-delay:-4.2s"/><circle class="star b" cx="477" cy="122" r="1.0" style="animation-delay:-3.0s"/><circle class="star" cx="233" cy="21" r="0.7" style="animation-delay:-1.3s"/><circle class="star" cx="567" cy="382" r="0.7" style="animation-delay:-2.3s"/><circle class="star" cx="519" cy="384" r="0.7" style="animation-delay:-4.9s"/><circle class="star b" cx="771" cy="92" r="1.0" style="animation-delay:-0.5s"/><circle class="star c" cx="744" cy="314" r="1.3" style="animation-delay:-2.2s"/><circle class="star b" cx="242" cy="44" r="0.5" style="animation-delay:-3.5s"/><circle class="star b" cx="718" cy="25" r="0.5" style="animation-delay:-2.8s"/><circle class="star c" cx="1131" cy="190" r="1.0" style="animation-delay:-3.7s"/><circle class="star b" cx="1254" cy="648" r="1.0" style="animation-delay:-4.8s"/><circle class="star" cx="710" cy="711" r="0.5" style="animation-delay:-1.5s"/><circle class="star" cx="509" cy="404" r="1.0" style="animation-delay:-2.1s"/><circle class="star c" cx="1308" cy="748" r="1.0" style="animation-delay:-2.5s"/><circle class="star b" cx="508" cy="355" r="1.3" style="animation-delay:-2.4s"/><circle class="star b" cx="244" cy="227" r="1.0" style="animation-delay:-1.7s"/><circle class="star d" cx="456" cy="28" r="1.0" style="animation-delay:-5.4s"/><circle class="star b" cx="383" cy="548" r="1.3" style="animation-delay:-1.4s"/><circle class="star d" cx="331" cy="216" r="0.5" style="animation-delay:-1.8s"/><circle class="star" cx="396" cy="133" r="1.0" style="animation-delay:-2.2s"/><circle class="star b" cx="218" cy="324" r="0.5" style="animation-delay:-1.8s"/><circle class="star b" cx="215" cy="539" r="1.0" style="animation-delay:-5.5s"/><circle class="star" cx="74" cy="157" r="0.5" style="animation-delay:-0.0s"/><circle class="star c" cx="752" cy="531" r="0.5" style="animation-delay:-4.4s"/><circle class="star d" cx="311" cy="637" r="0.5" style="animation-delay:-3.8s"/><circle class="star" cx="875" cy="237" r="0.5" style="animation-delay:-0.2s"/><circle class="star b" cx="721" cy="112" r="0.7" style="animation-delay:-4.8s"/><circle class="star d" cx="126" cy="523" r="0.5" style="animation-delay:-2.7s"/><circle class="star c" cx="1211" cy="90" r="0.7" style="animation-delay:-3.5s"/><circle class="star d" cx="472" cy="537" r="1.3" style="animation-delay:-1.4s"/><circle class="star b" cx="810" cy="657" r="0.5" style="animation-delay:-3.4s"/><circle class="star b" cx="675" cy="535" r="1.3" style="animation-delay:-4.4s"/><circle class="star" cx="674" cy="748" r="0.7" style="animation-delay:-0.0s"/><circle class="star" cx="717" cy="743" r="1.0" style="animation-delay:-2.2s"/><circle class="star" cx="172" cy="123" r="1.3" style="animation-delay:-1.0s"/><circle class="star" cx="205" cy="415" r="1.0" style="animation-delay:-3.2s"/><circle class="star b" cx="1111" cy="136" r="0.5" style="animation-delay:-0.9s"/><circle class="star" cx="670" cy="334" r="0.7" style="animation-delay:-3.8s"/><circle class="star d" cx="375" cy="723" r="1.0" style="animation-delay:-5.1s"/><circle class="star" cx="580" cy="290" r="1.0" style="animation-delay:-1.1s"/><circle class="star b" cx="1355" cy="454" r="0.7" style="animation-delay:-4.3s"/><circle class="star c" cx="91" cy="300" r="0.7" style="animation-delay:-3.9s"/><circle class="star d" cx="527" cy="689" r="0.5" style="animation-delay:-4.1s"/><circle class="star" cx="680" cy="572" r="0.5" style="animation-delay:-5.9s"/><circle class="star" cx="71" cy="594" r="1.3" style="animation-delay:-4.0s"/></g><path class="aurora" d="M0,90 Q350,60 700,82 T1400,68 L1400,124 Q1092,100 700,120 T0,108 Z" fill="url(#aurora)" filter="url(#haze)" opacity="0.7"/><g class="fade-in"><rect x="48" y="80" width="540" height="600" rx="20" ry="20" fill="url(#cardGlass)" stroke="#30363d" stroke-width="1" stroke-opacity="0.9"/><rect x="52" y="84" width="532" height="592" rx="16" ry="16" fill="none" stroke="#F90001" stroke-width="0.5" stroke-opacity="0.35"/></g><g class="fade-in d2"><circle cx="318" cy="200" r="74" fill="none" stroke="url(#avatarRing)" stroke-width="3"/><circle cx="318" cy="200" r="70" fill="#0d1117" stroke="#161b22" stroke-width="2"/><text x="318" y="218" text-anchor="middle" font-family="-apple-system,BlinkMacSystemFont,Segoe UI,Roboto,sans-serif" font-size="56" font-weight="800" fill="#e6edf3">AB</text></g><g class="fade-in d4"><circle class="avail-ring" cx="370" cy="250" r="7" fill="none" stroke="#39d353" stroke-width="2"/><circle class="avail-dot" cx="370" cy="250" r="6" fill="#39d353" filter="url(#bloom)"/><circle cx="370" cy="250" r="9" fill="none" stroke="#0d1117" stroke-width="2"/></g><g class="fade-in d2"><text x="318" y="310" text-anchor="middle" font-family="-apple-system,BlinkMacSystemFont,Segoe UI,Inter,sans-serif" font-size="38" font-weight="800" fill="#e6edf3" letter-spacing="0.2">Abdullah Bakir</text><text x="318" y="340" text-anchor="middle" font-family="-apple-system,BlinkMacSystemFont,Segoe UI,Roboto,sans-serif" font-size="14" font-weight="600" fill="#39d353" letter-spacing="2.5" text-transform="uppercase">Full-Stack Developer</text></g><g class="fade-in d4" transform="translate(213, 370)"><rect x="0" y="0" width="210" height="32" rx="16" ry="16" fill="#161b22" stroke="#30363d" stroke-width="1"/><text x="105" y="22" text-anchor="middle" font-family="-apple-system,BlinkMacSystemFont,Segoe UI,Roboto,sans-serif" font-size="13" font-weight="500" fill="#c9d1d9">🇩🇪 Germany · open to remote</text></g><g class="fade-in d4" transform="translate(228, 426)"><circle cx="8" cy="14" r="5" fill="#39d353"/><text x="22" y="19" font-family="-apple-system,BlinkMacSystemFont,Segoe UI,Roboto,sans-serif" font-size="13" font-weight="600" fill="#39d353">Available for collaboration</text></g><g class="fade-in d6"><text x="318" y="466" text-anchor="middle" font-family="-apple-system,BlinkMacSystemFont,Segoe UI,Roboto,sans-serif" font-size="13" fill="#7d8590" font-style="italic">Ship something useful → learn → ship again.</text></g><g class="fade-in d8" transform="translate(88, 506)"><rect width="145" height="34" rx="17" ry="17" fill="#F90001" opacity="0.92"/><text x="72" y="22" text-anchor="middle" font-family="-apple-system,BlinkMacSystemFont,Segoe UI,Roboto,sans-serif" font-size="12" font-weight="600" fill="#ffffff" letter-spacing="0.4">@AbdullahBakir97</text></g><g class="fade-in d8" transform="translate(245, 506)"><rect width="145" height="34" rx="17" ry="17" fill="#0a66c2" opacity="0.92"/><text x="72" y="22" text-anchor="middle" font-family="-apple-system,BlinkMacSystemFont,Segoe UI,Roboto,sans-serif" font-size="12" font-weight="600" fill="#ffffff" letter-spacing="0.4">LinkedIn</text></g><g class="fade-in d8" transform="translate(402, 506)"><rect width="145" height="34" rx="17" ry="17" fill="#26a5e4" opacity="0.92"/><text x="72" y="22" text-anchor="middle" font-family="-apple-system,BlinkMacSystemFont,Segoe UI,Roboto,sans-serif" font-size="12" font-weight="600" fill="#ffffff" letter-spacing="0.4">Telegram</text></g><circle cx="1040" cy="390" r="120" fill="none" stroke="#30363d" stroke-width="0.6" opacity="0.45"/><circle cx="1040" cy="390" r="200" fill="none" stroke="#30363d" stroke-width="0.6" opacity="0.45"/><circle cx="1040" cy="390" r="280" fill="none" stroke="#30363d" stroke-width="0.6" opacity="0.45"/><g class="fade-in d2"><circle cx="1040" cy="390" r="58" fill="#0d1117" stroke="url(#avatarRing)" stroke-width="2.5" filter="url(#bloom)"/><text x="1040" y="400" text-anchor="middle" font-family="-apple-system,BlinkMacSystemFont,Segoe UI,sans-serif" font-size="32" font-weight="900" fill="#39d353">⚡</text></g><g class="ring-inner fade-in d4"><circle cx="1160.0" cy="390.0" r="27" fill="#3776ab" opacity="0.18" filter="url(#bloom)"/><circle cx="1160.0" cy="390.0" r="22" fill="#0d1117" stroke="#3776ab" stroke-width="2"/><text x="1160.0" y="395.0" text-anchor="middle" font-family="-apple-system,BlinkMacSystemFont,Segoe UI,Roboto,sans-serif" font-size="13" font-weight="700" fill="#3776ab">Py</text><circle cx="1077.1" cy="504.1" r="27" fill="#0c4b33" opacity="0.18" filter="url(#bloom)"/><circle cx="1077.1" cy="504.1" r="22" fill="#0d1117" stroke="#0c4b33" stroke-width="2"/><text x="1077.1" y="509.1" text-anchor="middle" font-family="-apple-system,BlinkMacSystemFont,Segoe UI,Roboto,sans-serif" font-size="13" font-weight="700" fill="#0c4b33">Dj</text><circle cx="942.9" cy="460.5" r="27" fill="#42b883" opacity="0.18" filter="url(#bloom)"/><circle cx="942.9" cy="460.5" r="22" fill="#0d1117" stroke="#42b883" stroke-width="2"/><text x="942.9" y="465.5" text-anchor="middle" font-family="-apple-system,BlinkMacSystemFont,Segoe UI,Roboto,sans-serif" font-size="11" font-weight="700" fill="#42b883">Vue</text><circle cx="942.9" cy="319.5" r="27" fill="#00dc82" opacity="0.18" filter="url(#bloom)"/><circle cx="942.9" cy="319.5" r="22" fill="#0d1117" stroke="#00dc82" stroke-width="2"/><text x="942.9" y="324.5" text-anchor="middle" font-family="-apple-system,BlinkMacSystemFont,Segoe UI,Roboto,sans-serif" font-size="13" font-weight="700" fill="#00dc82">Nx</text><circle cx="1077.1" cy="275.9" r="27" fill="#3178c6" opacity="0.18" filter="url(#bloom)"/><circle cx="1077.1" cy="275.9" r="22" fill="#0d1117" stroke="#3178c6" stroke-width="2"/><text x="1077.1" y="280.9" text-anchor="middle" font-family="-apple-system,BlinkMacSystemFont,Segoe UI,Roboto,sans-serif" font-size="13" font-weight="700" fill="#3178c6">TS</text></g><g class="ring-mid fade-in d4"><circle cx="1240.0" cy="390.0" r="24" fill="#336791" opacity="0.18" filter="url(#bloom)"/><circle cx="1240.0" cy="390.0" r="19" fill="#0d1117" stroke="#336791" stroke-width="2"/><text x="1240.0" y="395.0" text-anchor="middle" font-family="-apple-system,BlinkMacSystemFont,Segoe UI,Roboto,sans-serif" font-size="13" font-weight="700" fill="#336791">PG</text><circle cx="1140.0" cy="563.2" r="24" fill="#dc382d" opacity="0.18" filter="url(#bloom)"/><circle cx="1140.0" cy="563.2" r="19" fill="#0d1117" stroke="#dc382d" stroke-width="2"/><text x="1140.0" y="568.2" text-anchor="middle" font-family="-apple-system,BlinkMacSystemFont,Segoe UI,Roboto,sans-serif" font-size="13" font-weight="700" fill="#dc382d">Rd</text><circle cx="940.0" cy="563.2" r="24" fill="#2496ed" opacity="0.18" filter="url(#bloom)"/><circle cx="940.0" cy="563.2" r="19" fill="#0d1117" stroke="#2496ed" stroke-width="2"/><text x="940.0" y="568.2" text-anchor="middle" font-family="-apple-system,BlinkMacSystemFont,Segoe UI,Roboto,sans-serif" font-size="13" font-weight="700" fill="#2496ed">Dk</text><circle cx="840.0" cy="390.0" r="24" fill="#f7df1e" opacity="0.18" filter="url(#bloom)"/><circle cx="840.0" cy="390.0" r="19" fill="#0d1117" stroke="#f7df1e" stroke-width="2"/><text x="840.0" y="395.0" text-anchor="middle" font-family="-apple-system,BlinkMacSystemFont,Segoe UI,Roboto,sans-serif" font-size="13" font-weight="700" fill="#f7df1e">Js</text><circle cx="940.0" cy="216.8" r="24" fill="#06b6d4" opacity="0.18" filter="url(#bloom)"/><circle cx="940.0" cy="216.8" r="19" fill="#0d1117" stroke="#06b6d4" stroke-width="2"/><text x="940.0" y="221.8" text-anchor="middle" font-family="-apple-system,BlinkMacSystemFont,Segoe UI,Roboto,sans-serif" font-size="13" font-weight="700" fill="#06b6d4">Tw</text><circle cx="1140.0" cy="216.8" r="24" fill="#009639" opacity="0.18" filter="url(#bloom)"/><circle cx="1140.0" cy="216.8" r="19" fill="#0d1117" stroke="#009639" stroke-width="2"/><text x="1140.0" y="221.8" text-anchor="middle" font-family="-apple-system,BlinkMacSystemFont,Segoe UI,Roboto,sans-serif" font-size="13" font-weight="700" fill="#009639">Ng</text></g><g class="ring-outer fade-in d4"><circle cx="1320.0" cy="390.0" r="24" fill="#ff9900" opacity="0.18" filter="url(#bloom)"/><circle cx="1320.0" cy="390.0" r="19" fill="#0d1117" stroke="#ff9900" stroke-width="2"/><text x="1320.0" y="395.0" text-anchor="middle" font-family="-apple-system,BlinkMacSystemFont,Segoe UI,Roboto,sans-serif" font-size="11" font-weight="700" fill="#ff9900">AWS</text><circle cx="1040.0" cy="670.0" r="24" fill="#7e57c2" opacity="0.18" filter="url(#bloom)"/><circle cx="1040.0" cy="670.0" r="19" fill="#0d1117" stroke="#7e57c2" stroke-width="2"/><text x="1040.0" y="675.0" text-anchor="middle" font-family="-apple-system,BlinkMacSystemFont,Segoe UI,Roboto,sans-serif" font-size="11" font-weight="700" fill="#7e57c2">CLI</text><circle cx="760.0" cy="390.0" r="24" fill="#ff652f" opacity="0.18" filter="url(#bloom)"/><circle cx="760.0" cy="390.0" r="19" fill="#0d1117" stroke="#ff652f" stroke-width="2"/><text x="760.0" y="395.0" text-anchor="middle" font-family="-apple-system,BlinkMacSystemFont,Segoe UI,Roboto,sans-serif" font-size="13" font-weight="700" fill="#ff652f">CI</text><circle cx="1040.0" cy="110.0" r="24" fill="#a855f7" opacity="0.18" filter="url(#bloom)"/><circle cx="1040.0" cy="110.0" r="19" fill="#0d1117" stroke="#a855f7" stroke-width="2"/><text x="1040.0" y="115.0" text-anchor="middle" font-family="-apple-system,BlinkMacSystemFont,Segoe UI,Roboto,sans-serif" font-size="13" font-weight="700" fill="#a855f7">AI</text></g><g class="fade-in d6"><rect x="48" y="640" width="314" height="90" rx="14" ry="14" fill="url(#statCard)" stroke="#30363d" stroke-width="1"/><rect x="66" y="652" width="3" height="66" rx="1.5" fill="#F90001"/><text x="217" y="674" text-anchor="middle" font-family="-apple-system,BlinkMacSystemFont,Segoe UI,Roboto,sans-serif" font-size="10" font-weight="700" fill="#7d8590" letter-spacing="2">YEARS CODING</text><text x="217" y="702" text-anchor="middle" font-family="-apple-system,BlinkMacSystemFont,Segoe UI,Inter,sans-serif" font-size="26" font-weight="800" fill="#e6edf3">5+</text><text x="217" y="720" text-anchor="middle" font-family="-apple-system,BlinkMacSystemFont,Segoe UI,Roboto,sans-serif" font-size="10" fill="#7d8590">since 2020</text></g><g class="fade-in d6"><rect x="378" y="640" width="314" height="90" rx="14" ry="14" fill="url(#statCard)" stroke="#30363d" stroke-width="1"/><rect x="396" y="652" width="3" height="66" rx="1.5" fill="#F90001"/><text x="547" y="674" text-anchor="middle" font-family="-apple-system,BlinkMacSystemFont,Segoe UI,Roboto,sans-serif" font-size="10" font-weight="700" fill="#7d8590" letter-spacing="2">REPOS SHIPPED</text><text x="547" y="702" text-anchor="middle" font-family="-apple-system,BlinkMacSystemFont,Segoe UI,Inter,sans-serif" font-size="26" font-weight="800" fill="#e6edf3">60+</text><text x="547" y="720" text-anchor="middle" font-family="-apple-system,BlinkMacSystemFont,Segoe UI,Roboto,sans-serif" font-size="10" fill="#7d8590">across stack</text></g><g class="fade-in d6"><rect x="708" y="640" width="314" height="90" rx="14" ry="14" fill="url(#statCard)" stroke="#30363d" stroke-width="1"/><rect x="726" y="652" width="3" height="66" rx="1.5" fill="#F90001"/><text x="877" y="674" text-anchor="middle" font-family="-apple-system,BlinkMacSystemFont,Segoe UI,Roboto,sans-serif" font-size="10" font-weight="700" fill="#7d8590" letter-spacing="2">LANGUAGES</text><text x="877" y="702" text-anchor="middle" font-family="-apple-system,BlinkMacSystemFont,Segoe UI,Inter,sans-serif" font-size="26" font-weight="800" fill="#e6edf3">3</text><text x="877" y="720" text-anchor="middle" font-family="-apple-system,BlinkMacSystemFont,Segoe UI,Roboto,sans-serif" font-size="10" fill="#7d8590">EN · DE · AR</text></g><g class="fade-in d6"><rect x="1038" y="640" width="314" height="90" rx="14" ry="14" fill="url(#statCard)" stroke="#30363d" stroke-width="1"/><rect x="1056" y="652" width="3" height="66" rx="1.5" fill="#F90001"/><text x="1207" y="674" text-anchor="middle" font-family="-apple-system,BlinkMacSystemFont,Segoe UI,Roboto,sans-serif" font-size="10" font-weight="700" fill="#7d8590" letter-spacing="2">PRIMARY STACK</text><text x="1207" y="702" text-anchor="middle" font-family="-apple-system,BlinkMacSystemFont,Segoe UI,Inter,sans-serif" font-size="26" font-weight="800" fill="#e6edf3">Python</text><text x="1207" y="720" text-anchor="middle" font-family="-apple-system,BlinkMacSystemFont,Segoe UI,Roboto,sans-serif" font-size="10" fill="#7d8590">Django · Vue · Nuxt</text></g><g class="embers"><circle class="ember" cx="203" cy="712" r="1.4" fill="#bae6fd" filter="url(#bloom)" style="animation-delay:-6.7s"/><circle class="ember" cx="857" cy="732" r="1.4" fill="#7ee787" filter="url(#bloom)" style="animation-delay:-11.5s"/><circle class="ember" cx="703" cy="664" r="1.4" fill="#7ee787" filter="url(#bloom)" style="animation-delay:-7.8s"/><circle class="ember" cx="239" cy="688" r="1.4" fill="#39d353" filter="url(#bloom)" style="animation-delay:-8.1s"/><circle class="ember c" cx="867" cy="710" r="1.4" fill="#a7f3d0" filter="url(#bloom)" style="animation-delay:-5.3s"/><circle class="ember" cx="1046" cy="740" r="1.4" fill="#a7f3d0" filter="url(#bloom)" style="animation-delay:-12.4s"/><circle class="ember c" cx="59" cy="736" r="1.4" fill="#39d353" filter="url(#bloom)" style="animation-delay:-4.0s"/><circle class="ember b" cx="354" cy="675" r="1.4" fill="#bae6fd" filter="url(#bloom)" style="animation-delay:-4.3s"/><circle class="ember c" cx="104" cy="702" r="1.4" fill="#bae6fd" filter="url(#bloom)" style="animation-delay:-1.2s"/><circle class="ember b" cx="1180" cy="712" r="1.4" fill="#7ee787" filter="url(#bloom)" style="animation-delay:-13.3s"/><circle class="ember" cx="563" cy="678" r="1.4" fill="#39d353" filter="url(#bloom)" style="animation-delay:-4.9s"/><circle class="ember b" cx="402" cy="739" r="1.4" fill="#bae6fd" filter="url(#bloom)" style="animation-delay:-14.8s"/><circle class="ember c" cx="224" cy="691" r="1.4" fill="#a7f3d0" filter="url(#bloom)" style="animation-delay:-3.2s"/><circle class="ember" cx="119" cy="738" r="1.4" fill="#a7f3d0" filter="url(#bloom)" style="animation-delay:-9.7s"/><circle class="ember" cx="262" cy="679" r="1.4" fill="#7ee787" filter="url(#bloom)" style="animation-delay:-13.5s"/><circle class="ember b" cx="1082" cy="666" r="1.4" fill="#39d353" filter="url(#bloom)" style="animation-delay:-18.3s"/><circle class="ember b" cx="153" cy="734" r="1.4" fill="#a7f3d0" filter="url(#bloom)" style="animation-delay:-7.7s"/><circle class="ember b" cx="138" cy="691" r="1.4" fill="#a7f3d0" filter="url(#bloom)" style="animation-delay:-1.9s"/></g><rect width="1400" height="760" fill="url(#vignette)" pointer-events="none"/><text x="1360" y="58" text-anchor="end" font-family="-apple-system,BlinkMacSystemFont,Segoe UI,Inter,sans-serif" font-size="14" font-weight="700" fill="#39d353" letter-spacing="3" opacity="0.7">// ABOUT.SVG · v2026.05</text></svg>