<svg xmlns="http://www.w3.org/2000/svg" viewBox="0 0 705 123" role="img" aria-label="AbdullahBakir97 contributions in 2024"><rect width="100%" height="100%" fill="#0d1117"/><style>text{font-family:-apple-system,Segoe UI,sans-serif;font-size:11px;fill:#8b949e}</style><text x="8" y="16"><tspan font-weight="600" fill="#c9d1d9">1,431</tspan> contributions in 2024</text><rect x="8" y="37" width="11" height="11" rx="2" ry="2" fill="#161b22"><title>0 on 2024-01-01</title></rect><rect x="8" y="50" width="11" height="11" rx="2" ry="2" fill="#006d32"><title>5 on 2024-01-02</title></rect><rect x="8" y="63" width="11" height="11" rx="2" ry="2" fill="#161b22"><title>0 on 2024-01-03</title></rect><rect x="8" y="76" width="11" height="11" rx="2" ry="2" fill="#0e4429"><title>1 on 2024-01-04</title></rect><rect x="8" y="89" width="11" height="11" rx="2" ry="2" fill="#0e4429"><title>1 on 2024-01-05</title></rect><rect x="8" y="102" width="11" height="11" rx="2" ry="2" fill="#0e4429"><title>1 on 2024-01-06</title></rect><rect x="21" y="24" width="11" height="11" rx="2" ry="2" fill="#161b22"><title>0 on 2024-01-07</title></rect><rect x="21" y="37" width="11" height="11" rx="2" ry="2" fill="#40c463"><title>13 on 2024-01-08</title></rect><rect x="21" y="50" width="11" height="11" rx="2" ry="2" fill="#161b22"><title>0 on 2024-01-09</title></rect><rect x="21" y="63" width="11" height="11" rx="2" ry="2" fill="#0e4429"><title>3 on 2024-01-10</title></rect><rect x="21" y="76" width="11" height="11" rx="2" ry="2" fill="#0e4429"><title>1 on 2024-01-11</title></rect><rect x="21" y="89" width="11" height="11" rx="2" ry="2" fill="#0e4429"><title>1 on 2024-01-12</title></rect><rect x="21" y="102" width="11" height="11" rx="2" ry="2" fill="#0e4429"><title>3 on 2024-01-13</title></rect><rect x="34" y="24" width="11" height="11" rx="2" ry="2" fill="#006d32"><title>6 on 2024-01-14</title></rect><rect x="34" y="37" width="11" height="11" rx="2" ry="2" fill="#161b22"><title>0 on 2024-01-15</title></rect><rect x="34" y="50" width="11" height="11" rx="2" ry="2" fill="#0e4429"><title>3 on 2024-01-16</title></rect><rect x="34" y="63" width="11" height="11" rx="2" ry="2" fill="#30a14e"><title>19 on 2024-01-17</title></rect><rect x="34" y="76" width="11" height="11" rx="2" ry="2" fill="#0e4429"><title>2 on 2024-01-18</title></rect><rect x="34" y="89" width="11" height="11" rx="2" ry="2" fill="#161b22"><title>0 on 2024-01-19</title></rect><rect x="34" y="102" width="11" height="11" rx="2" ry="2" fill="#161b22"><title>0 on 2024-01-20</title></rect><rect x="47" y="24" width="11" height="11" rx="2" ry="2" fill="#161b22"><title>0 on 2024-01-21</title></rect><rect x="47" y="37" width="11" height="11" rx="2" ry="2" fill="#161b22"><title>0 on 2024-01-22</title></rect><rect x="47" y="50" width="11" height="11" rx="2" ry="2" fill="#161b22"><title>0 on 2024-01-23</title></rect><rect x="47" y="63" width="11" height="11" rx="2" ry="2" fill="#0e4429"><title>3 on 2024-01-24</title></rect><rect x="47" y="76" width="11" height="11" rx="2" ry="2" fill="#0e4429"><title>1 on 2024-01-25</title></rect><rect x="47" y="89" width="11" height="11" rx="2" ry="2" fill="#0e4429"><title>2 on 2024-01-26</title></rect><rect x="47" y="102" width="11" height="11" rx="2" ry="2" fill="#0e4429"><title>2 on 2024-01-27</title></rect><rect x="60" y="24" width="11" height="11" rx="2" ry="2" fill="#0e4429"><title>1 on 2024-01-28</title></rect><rect x="60" y="37" width="11" height="11" rx="2" ry="2" fill="#0e4429"><title>3 on 2024-01-29</title></rect><rect x="60" y="50" width="11" height="11" rx="2" ry="2" fill="#0e4429"><title>1 on 2024-01-30</title></rect><rect x="60" y="63" width="11" height="11" rx="2" ry="2" fill="#0e4429"><title>2 on 2024-01-31</title></rect><rect x="60" y="76" width="11" height="11" rx="2" ry="2" fill="#006d32"><title>5 on 2024-02-01</title></rect><rect x="60" y="89" width="11" height="11" rx="2" ry="2" fill="#0e4429"><title>2 on 2024-02-02</title></rect><rect x="60" y="102" width="11" height="11" rx="2" ry="2" fill="#0e4429"><title>2 on 2024-02-03</title></rect><rect x="73" y="24" width="11" height="11" rx="2" ry="2" fill="#0e4429"><title>2 on 2024-02-04</title></rect><rect x="73" y="37" width="11" height="11" rx="2" ry="2" fill="#006d32"><title>6 on 2024-02-05</title></rect><rect x="73" y="50" width="11" height="11" rx="2" ry="2" fill="#40c463"><title>12 on 2024-02-06</title></rect><rect x="73" y="63" width="11" height="11" rx="2" ry="2" fill="#26a641"><title>9 on 2024-02-07</title></rect><rect x="73" y="76" width="11" height="11" rx="2" ry="2" fill="#26a641"><title>8 on 2024-02-08</title></rect><rect x="73" y="89" width="11" height="11" rx="2" ry="2" fill="#006d32"><title>5 on 2024-02-09</title></rect><rect x="73" y="102" width="11" height="11" rx="2" ry="2" fill="#0e4429"><title>2 on 2024-02-10</title></rect><rect x="86" y="24" width="11" height="11" rx="2" ry="2" fill="#0e4429"><title>3 on 2024-02-11</title></rect><rect x="86" y="37" width="11" height="11" rx="2" ry="2" fill="#0e4429"><title>3 on 2024-02-12</title></rect><rect x="86" y="50" width="11" height="11" rx="2" ry="2" fill="#0e4429"><title>1 on 2024-02-13</title></rect><rect x="86" y="63" width="11" height="11" rx="2" ry="2" fill="#006d32"><title>7 on 2024-02-14</title></rect><rect x="86" y="76" width="11" height="11" rx="2" ry="2" fill="#0e4429"><title>1 on 2024-02-15</title></rect><rect x="86" y="89" width="11" height="11" rx="2" ry="2" fill="#40c463"><title>13 on 2024-02-16</title></rect><rect x="86" y="102" width="11" height="11" rx="2" ry="2" fill="#0e4429"><title>2 on 2024-02-17</title></rect><rect x="99" y="24" width="11" height="11" rx="2" ry="2" fill="#0e4429"><title>3 on 2024-02-18</title></rect><rect x="99" y="37" width="11" height="11" rx="2" ry="2" fill="#26a641"><title>8 on 2024-02-19</title></rect><rect x="99" y="50" width="11" height="11" rx="2" ry="2" fill="#161b22"><title>0 on 2024-02-20</title></rect><rect x="99" y="63" width="11" height="11" rx="2" ry="2" fill="#161b22"><title>0 on 2024-02-21</title></rect><rect x="99" y="76" width="11" height="11" rx="2" ry="2" fill="#0e4429"><title>1 on 2024-02-22</title></rect><rect x="99" y="89" width="11" height="11" rx="2" ry="2" fill="#0e4429"><title>2 on 2024-02-23</title></rect><rect x="99" y="102" width="11" height="11" rx="2" ry="2" fill="#0e4429"><title>1 on 2024-02-24</title></rect><rect x="112" y="24" width="11" height="11" rx="2" ry="2" fill="#216e39"><title>26 on 2024-02-25</title></rect><rect x="112" y="37" width="11" height="11" rx="2" ry="2" fill="#161b22"><title>0 on 2024-02-26</title></rect><rect x="112" y="50" width="11" height="11" rx="2" ry="2" fill="#0e4429"><title>1 on 2024-02-27</title></rect><rect x="112" y="63" width="11" height="11" rx="2" ry="2" fill="#161b22"><title>0 on 2024-02-28</title></rect><rect x="112" y="76" width="11" height="11" rx="2" ry="2" fill="#0e4429"><title>3 on 2024-02-29</title></rect><rect x="112" y="89" width="11" height="11" rx="2" ry="2" fill="#161b22"><title>0 on 2024-03-01</title></rect><rect x="112" y="102" width="11" height="11" rx="2" ry="2" fill="#40c463"><title>14 on 2024-03-02</title></rect><rect x="125" y="24" width="11" height="11" rx="2" ry="2" fill="#40c463"><title>16 on 2024-03-03</title></rect><rect x="125" y="37" width="11" height="11" rx="2" ry="2" fill="#161b22"><title>0 on 2024-03-04</title></rect><rect x="125" y="50" width="11" height="11" rx="2" ry="2" fill="#161b22"><title>0 on 2024-03-05</title></rect><rect x="125" y="63" width="11" height="11" rx="2" ry="2" fill="#0e4429"><title>2 on 2024-03-06</title></rect><rect x="125" y="76" width="11" height="11" rx="2" ry="2" fill="#0e4429"><title>1 on 2024-03-07</title></rect><rect x="125" y="89" width="11" height="11" rx="2" ry="2" fill="#161b22"><title>0 on 2024-03-08</title></rect><rect x="125" y="102" width="11" height="11" rx="2" ry="2" fill="#0e4429"><title>2 on 2024-03-09</title></rect><rect x="138" y="24" width="11" height="11" rx="2" ry="2" fill="#30a14e"><title>20 on 2024-03-10</title></rect><rect x="138" y="37" width="11" height="11" rx="2" ry="2" fill="#0e4429"><title>1 on 2024-03-11</title></rect><rect x="138" y="50" width="11" height="11" rx="2" ry="2" fill="#161b22"><title>0 on 2024-03-12</title></rect><rect x="138" y="63" width="11" height="11" rx="2" ry="2" fill="#0e4429"><title>1 on 2024-03-13</title></rect><rect x="138" y="76" width="11" height="11" rx="2" ry="2" fill="#26a641"><title>8 on 2024-03-14</title></rect><rect x="138" y="89" width="11" height="11" rx="2" ry="2" fill="#161b22"><title>0 on 2024-03-15</title></rect><rect x="138" y="102" width="11" height="11" rx="2" ry="2" fill="#006d32"><title>4 on 2024-03-16</title></rect><rect x="151" y="24" width="11" height="11" rx="2" ry="2" fill="#0e4429"><title>2 on 2024-03-17</title></rect><rect x="151" y="37" width="11" height="11" rx="2" ry="2" fill="#40c463"><title>12 on 2024-03-18</title></rect><rect x="151" y="50" width="11" height="11" rx="2" ry="2" fill="#0e4429"><title>1 on 2024-03-19</title></rect><rect x="151" y="63" width="11" height="11" rx="2" ry="2" fill="#26a641"><title>9 on 2024-03-20</title></rect><rect x="151" y="76" width="11" height="11" rx="2" ry="2" fill="#006d32"><title>4 on 2024-03-21</title></rect><rect x="151" y="89" width="11" height="11" rx="2" ry="2" fill="#161b22"><title>0 on 2024-03-22</title></rect><rect x="151" y="102" width="11" height="11" rx="2" ry="2" fill="#161b22"><title>0 on 2024-03-23</title></rect><rect x="164" y="24" width="11" height="11" rx="2" ry="2" fill="#0e4429"><title>2 on 2024-03-24</title></rect><rect x="164" y="37" width="11" height="11" rx="2" ry="2" fill="#0e4429"><title>3 on 2024-03-25</title></rect><rect x="164" y="50" width="11" height="11" rx="2" ry="2" fill="#006d32"><title>6 on 2024-03-26</title></rect><rect x="164" y="63" width="11" height="11" rx="2" ry="2" fill="#161b22"><title>0 on 2024-03-27</title></rect><rect x="164" y="76" width="11" height="11" rx="2" ry="2" fill="#26a641"><title>8 on 2024-03-28</title></rect><rect x="164" y="89" width="11" height="11" rx="2" ry="2" fill="#0e4429"><title>2 on 2024-03-29</title></rect><rect x="164" y="102" width="11" height="11" rx="2" ry="2" fill="#006d32"><title>4 on 2024-03-30</title></rect><rect x="177" y="24" width="11" height="11" rx="2" ry="2" fill="#0e4429"><title>1 on 2024-03-31</title></rect><rect x="177" y="37" width="11" height="11" rx="2" ry="2" fill="#161b22"><title>0 on 2024-04-01</title></rect><rect x="177" y="50" width="11" height="11" rx="2" ry="2" fill="#0e4429"><title>2 on 2024-04-02</title></rect><rect x="177" y="63" width="11" height="11" rx="2" ry="2" fill="#006d32"><title>4 on 2024-04-03</title></rect><rect x="177" y="76" width="11" height="11" rx="2" ry="2" fill="#0e4429"><title>2 on 2024-04-04</title></rect><rect x="177" y="89" width="11" height="11" rx="2" ry="2" fill="#0e4429"><title>1 on 2024-04-05</title></rect><rect x="177" y="102" width="11" height="11" rx="2" ry="2" fill="#161b22"><title>0 on 2024-04-06</title></rect><rect x="190" y="24" width="11" height="11" rx="2" ry="2" fill="#40c463"><title>15 on 2024-04-07</title></rect><rect x="190" y="37" width="11" height="11" rx="2" ry="2" fill="#40c463"><title>15 on 2024-04-08</title></rect><rect x="190" y="50" width="11" height="11" rx="2" ry="2" fill="#006d32"><title>7 on 2024-04-09</title></rect><rect x="190" y="63" width="11" height="11" rx="2" ry="2" fill="#0e4429"><title>2 on 2024-04-10</title></rect><rect x="190" y="76" width="11" height="11" rx="2" ry="2" fill="#006d32"><title>7 on 2024-04-11</title></rect><rect x="190" y="89" width="11" height="11" rx="2" ry="2" fill="#006d32"><title>5 on 2024-04-12</title></rect><rect x="190" y="102" width="11" height="11" rx="2" ry="2" fill="#40c463"><title>16 on 2024-04-13</title></rect><rect x="203" y="24" width="11" height="11" rx="2" ry="2" fill="#006d32"><title>7 on 2024-04-14</title></rect><rect x="203" y="37" width="11" height="11" rx="2" ry="2" fill="#26a641"><title>10 on 2024-04-15</title></rect><rect x="203" y="50" width="11" height="11" rx="2" ry="2" fill="#006d32"><title>7 on 2024-04-16</title></rect><rect x="203" y="63" width="11" height="11" rx="2" ry="2" fill="#0e4429"><title>2 on 2024-04-17</title></rect><rect x="203" y="76" width="11" height="11" rx="2" ry="2" fill="#006d32"><title>4 on 2024-04-18</title></rect><rect x="203" y="89" width="11" height="11" rx="2" ry="2" fill="#0e4429"><title>3 on 2024-04-19</title></rect><rect x="203" y="102" width="11" height="11" rx="2" ry="2" fill="#0e4429"><title>3 on 2024-04-20</title></rect><rect x="216" y="24" width="11" height="11" rx="2" ry="2" fill="#0e4429"><title>2 on 2024-04-21</title></rect><rect x="216" y="37" width="11" height="11" rx="2" ry="2" fill="#161b22"><title>0 on 2024-04-22</title></rect><rect x="216" y="50" width="11" height="11" rx="2" ry="2" fill="#161b22"><title>0 on 2024-04-23</title></rect><rect x="216" y="63" width="11" height="11" rx="2" ry="2" fill="#161b22"><title>0 on 2024-04-24</title></rect><rect x="216" y="76" width="11" height="11" rx="2" ry="2" fill="#0e4429"><title>2 on 2024-04-25</title></rect><rect x="216" y="89" width="11" height="11" rx="2" ry="2" fill="#0e4429"><title>1 on 2024-04-26</title></rect><rect x="216" y="102" width="11" height="11" rx="2" ry="2" fill="#40c463"><title>14 on 2024-04-27</title></rect><rect x="229" y="24" width="11" height="11" rx="2" ry="2" fill="#30a14e"><title>18 on 2024-04-28</title></rect><rect x="229" y="37" width="11" height="11" rx="2" ry="2" fill="#30a14e"><title>21 on 2024-04-29</title></rect><rect x="229" y="50" width="11" height="11" rx="2" ry="2" fill="#0e4429"><title>1 on 2024-04-30</title></rect><rect x="229" y="63" width="11" height="11" rx="2" ry="2" fill="#0e4429"><title>1 on 2024-05-01</title></rect><rect x="229" y="76" width="11" height="11" rx="2" ry="2" fill="#0e4429"><title>1 on 2024-05-02</title></rect><rect x="229" y="89" width="11" height="11" rx="2" ry="2" fill="#26a641"><title>9 on 2024-05-03</title></rect><rect x="229" y="102" width="11" height="11" rx="2" ry="2" fill="#161b22"><title>0 on 2024-05-04</title></rect><rect x="242" y="24" width="11" height="11" rx="2" ry="2" fill="#006d32"><title>6 on 2024-05-05</title></rect><rect x="242" y="37" width="11" height="11" rx="2" ry="2" fill="#40c463"><title>12 on 2024-05-06</title></rect><rect x="242" y="50" width="11" height="11" rx="2" ry="2" fill="#161b22"><title>0 on 2024-05-07</title></rect><rect x="242" y="63" width="11" height="11" rx="2" ry="2" fill="#161b22"><title>0 on 2024-05-08</title></rect><rect x="242" y="76" width="11" height="11" rx="2" ry="2" fill="#161b22"><title>0 on 2024-05-09</title></rect><rect x="242" y="89" width="11" height="11" rx="2" ry="2" fill="#0e4429"><title>1 on 2024-05-10</title></rect><rect x="242" y="102" width="11" height="11" rx="2" ry="2" fill="#161b22"><title>0 on 2024-05-11</title></rect><rect x="255" y="24" width="11" height="11" rx="2" ry="2" fill="#0e4429"><title>1 on 2024-05-12</title></rect><rect x="255" y="37" width="11" height="11" rx="2" ry="2" fill="#161b22"><title>0 on 2024-05-13</title></rect><rect x="255" y="50" width="11" height="11" rx="2" ry="2" fill="#161b22"><title>0 on 2024-05-14</title></rect><rect x="255" y="63" width="11" height="11" rx="2" ry="2" fill="#0e4429"><title>1 on 2024-05-15</title></rect><rect x="255" y="76" width="11" height="11" rx="2" ry="2" fill="#161b22"><title>0 on 2024-05-16</title></rect><rect x="255" y="89" width="11" height="11" rx="2" ry="2" fill="#0e4429"><title>1 on 2024-05-17</title></rect><rect x="255" y="102" width="11" height="11" rx="2" ry="2" fill="#161b22"><title>0 on 2024-05-18</title></rect><rect x="268" y="24" width="11" height="11" rx="2" ry="2" fill="#161b22"><title>0 on 2024-05-19</title></rect><rect x="268" y="37" width="11" height="11" rx="2" ry="2" fill="#40c463"><title>13 on 2024-05-20</title></rect><rect x="268" y="50" width="11" height="11" rx="2" ry="2" fill="#0e4429"><title>1 on 2024-05-21</title></rect><rect x="268" y="63" width="11" height="11" rx="2" ry="2" fill="#161b22"><title>0 on 2024-05-22</title></rect><rect x="268" y="76" width="11" height="11" rx="2" ry="2" fill="#161b22"><title>0 on 2024-05-23</title></rect><rect x="268" y="89" width="11" height="11" rx="2" ry="2" fill="#006d32"><title>6 on 2024-05-24</title></rect><rect x="268" y="102" width="11" height="11" rx="2" ry="2" fill="#161b22"><title>0 on 2024-05-25</title></rect><rect x="281" y="24" width="11" height="11" rx="2" ry="2" fill="#006d32"><title>4 on 2024-05-26</title></rect><rect x="281" y="37" width="11" height="11" rx="2" ry="2" fill="#216e39"><title>27 on 2024-05-27</title></rect><rect x="281" y="50" width="11" height="11" rx="2" ry="2" fill="#26a641"><title>8 on 2024-05-28</title></rect><rect x="281" y="63" width="11" height="11" rx="2" ry="2" fill="#0e4429"><title>1 on 2024-05-29</title></rect><rect x="281" y="76" width="11" height="11" rx="2" ry="2" fill="#26a641"><title>8 on 2024-05-30</title></rect><rect x="281" y="89" width="11" height="11" rx="2" ry="2" fill="#0e4429"><title>2 on 2024-05-31</title></rect><rect x="281" y="102" width="11" height="11" rx="2" ry="2" fill="#0e4429"><title>1 on 2024-06-01</title></rect><rect x="294" y="24" width="11" height="11" rx="2" ry="2" fill="#0e4429"><title>2 on 2024-06-02</title></rect><rect x="294" y="37" width="11" height="11" rx="2" ry="2" fill="#161b22"><title>0 on 2024-06-03</title></rect><rect x="294" y="50" width="11" height="11" rx="2" ry="2" fill="#161b22"><title>0 on 2024-06-04</title></rect><rect x="294" y="63" width="11" height="11" rx="2" ry="2" fill="#0e4429"><title>1 on 2024-06-05</title></rect><rect x="294" y="76" width="11" height="11" rx="2" ry="2" fill="#30a14e"><title>19 on 2024-06-06</title></rect><rect x="294" y="89" width="11" height="11" rx="2" ry="2" fill="#0e4429"><title>1 on 2024-06-07</title></rect><rect x="294" y="102" width="11" height="11" rx="2" ry="2" fill="#30a14e"><title>18 on 2024-06-08</title></rect><rect x="307" y="24" width="11" height="11" rx="2" ry="2" fill="#26a641"><title>10 on 2024-06-09</title></rect><rect x="307" y="37" width="11" height="11" rx="2" ry="2" fill="#30a14e"><title>24 on 2024-06-10</title></rect><rect x="307" y="50" width="11" height="11" rx="2" ry="2" fill="#30a14e"><title>25 on 2024-06-11</title></rect><rect x="307" y="63" width="11" height="11" rx="2" ry="2" fill="#26a641"><title>11 on 2024-06-12</title></rect><rect x="307" y="76" width="11" height="11" rx="2" ry="2" fill="#40c463"><title>16 on 2024-06-13</title></rect><rect x="307" y="89" width="11" height="11" rx="2" ry="2" fill="#0e4429"><title>2 on 2024-06-14</title></rect><rect x="307" y="102" width="11" height="11" rx="2" ry="2" fill="#161b22"><title>0 on 2024-06-15</title></rect><rect x="320" y="24" width="11" height="11" rx="2" ry="2" fill="#006d32"><title>4 on 2024-06-16</title></rect><rect x="320" y="37" width="11" height="11" rx="2" ry="2" fill="#26a641"><title>11 on 2024-06-17</title></rect><rect x="320" y="50" width="11" height="11" rx="2" ry="2" fill="#0e4429"><title>3 on 2024-06-18</title></rect><rect x="320" y="63" width="11" height="11" rx="2" ry="2" fill="#26a641"><title>8 on 2024-06-19</title></rect><rect x="320" y="76" width="11" height="11" rx="2" ry="2" fill="#40c463"><title>14 on 2024-06-20</title></rect><rect x="320" y="89" width="11" height="11" rx="2" ry="2" fill="#161b22"><title>0 on 2024-06-21</title></rect><rect x="320" y="102" width="11" height="11" rx="2" ry="2" fill="#006d32"><title>4 on 2024-06-22</title></rect><rect x="333" y="24" width="11" height="11" rx="2" ry="2" fill="#40c463"><title>14 on 2024-06-23</title></rect><rect x="333" y="37" width="11" height="11" rx="2" ry="2" fill="#0e4429"><title>3 on 2024-06-24</title></rect><rect x="333" y="50" width="11" height="11" rx="2" ry="2" fill="#0e4429"><title>1 on 2024-06-25</title></rect><rect x="333" y="63" width="11" height="11" rx="2" ry="2" fill="#161b22"><title>0 on 2024-06-26</title></rect><rect x="333" y="76" width="11" height="11" rx="2" ry="2" fill="#161b22"><title>0 on 2024-06-27</title></rect><rect x="333" y="89" width="11" height="11" rx="2" ry="2" fill="#161b22"><title>0 on 2024-06-28</title></rect><rect x="333" y="102" width="11" height="11" rx="2" ry="2" fill="#161b22"><title>0 on 2024-06-29</title></rect><rect x="346" y="24" width="11" height="11" rx="2" ry="2" fill="#006d32"><title>4 on 2024-06-30</title></rect><rect x="346" y="37" width="11" height="11" rx="2" ry="2" fill="#161b22"><title>0 on 2024-07-01</title></rect><rect x="346" y="50" width="11" height="11" rx="2" ry="2" fill="#0e4429"><title>1 on 2024-07-02</title></rect><rect x="346" y="63" width="11" height="11" rx="2" ry="2" fill="#006d32"><title>7 on 2024-07-03</title></rect><rect x="346" y="76" width="11" height="11" rx="2" ry="2" fill="#006d32"><title>5 on 2024-07-04</title></rect><rect x="346" y="89" width="11" height="11" rx="2" ry="2" fill="#006d32"><title>4 on 2024-07-05</title></rect><rect x="346" y="102" width="11" height="11" rx="2" ry="2" fill="#161b22"><title>0 on 2024-07-06</title></rect><rect x="359" y="24" width="11" height="11" rx="2" ry="2" fill="#0e4429"><title>3 on 2024-07-07</title></rect><rect x="359" y="37" width="11" height="11" rx="2" ry="2" fill="#40c463"><title>14 on 2024-07-08</title></rect><rect x="359" y="50" width="11" height="11" rx="2" ry="2" fill="#006d32"><title>4 on 2024-07-09</title></rect><rect x="359" y="63" width="11" height="11" rx="2" ry="2" fill="#0e4429"><title>2 on 2024-07-10</title></rect><rect x="359" y="76" width="11" height="11" rx="2" ry="2" fill="#26a641"><title>10 on 2024-07-11</title></rect><rect x="359" y="89" width="11" height="11" rx="2" ry="2" fill="#161b22"><title>0 on 2024-07-12</title></rect><rect x="359" y="102" width="11" height="11" rx="2" ry="2" fill="#0e4429"><title>1 on 2024-07-13</title></rect><rect x="372" y="24" width="11" height="11" rx="2" ry="2" fill="#40c463"><title>12 on 2024-07-14</title></rect><rect x="372" y="37" width="11" height="11" rx="2" ry="2" fill="#30a14e"><title>21 on 2024-07-15</title></rect><rect x="372" y="50" width="11" height="11" rx="2" ry="2" fill="#161b22"><title>0 on 2024-07-16</title></rect><rect x="372" y="63" width="11" height="11" rx="2" ry="2" fill="#30a14e"><title>22 on 2024-07-17</title></rect><rect x="372" y="76" width="11" height="11" rx="2" ry="2" fill="#216e39"><title>28 on 2024-07-18</title></rect><rect x="372" y="89" width="11" height="11" rx="2" ry="2" fill="#006d32"><title>4 on 2024-07-19</title></rect><rect x="372" y="102" width="11" height="11" rx="2" ry="2" fill="#216e39"><title>38 on 2024-07-20</title></rect><rect x="385" y="24" width="11" height="11" rx="2" ry="2" fill="#216e39"><title>30 on 2024-07-21</title></rect><rect x="385" y="37" width="11" height="11" rx="2" ry="2" fill="#0e4429"><title>1 on 2024-07-22</title></rect><rect x="385" y="50" width="11" height="11" rx="2" ry="2" fill="#26a641"><title>8 on 2024-07-23</title></rect><rect x="385" y="63" width="11" height="11" rx="2" ry="2" fill="#216e39"><title>30 on 2024-07-24</title></rect><rect x="385" y="76" width="11" height="11" rx="2" ry="2" fill="#161b22"><title>0 on 2024-07-25</title></rect><rect x="385" y="89" width="11" height="11" rx="2" ry="2" fill="#40c463"><title>17 on 2024-07-26</title></rect><rect x="385" y="102" width="11" height="11" rx="2" ry="2" fill="#40c463"><title>12 on 2024-07-27</title></rect><rect x="398" y="24" width="11" height="11" rx="2" ry="2" fill="#0e4429"><title>3 on 2024-07-28</title></rect><rect x="398" y="37" width="11" height="11" rx="2" ry="2" fill="#006d32"><title>5 on 2024-07-29</title></rect><rect x="398" y="50" width="11" height="11" rx="2" ry="2" fill="#161b22"><title>0 on 2024-07-30</title></rect><rect x="398" y="63" width="11" height="11" rx="2" ry="2" fill="#0e4429"><title>2 on 2024-07-31</title></rect><rect x="398" y="76" width="11" height="11" rx="2" ry="2" fill="#161b22"><title>0 on 2024-08-01</title></rect><rect x="398" y="89" width="11" height="11" rx="2" ry="2" fill="#161b22"><title>0 on 2024-08-02</title></rect><rect x="398" y="102" width="11" height="11" rx="2" ry="2" fill="#006d32"><title>4 on 2024-08-03</title></rect><rect x="411" y="24" width="11" height="11" rx="2" ry="2" fill="#006d32"><title>5 on 2024-08-04</title></rect><rect x="411" y="37" width="11" height="11" rx="2" ry="2" fill="#006d32"><title>5 on 2024-08-05</title></rect><rect x="411" y="50" width="11" height="11" rx="2" ry="2" fill="#006d32"><title>4 on 2024-08-06</title></rect><rect x="411" y="63" width="11" height="11" rx="2" ry="2" fill="#161b22"><title>0 on 2024-08-07</title></rect><rect x="411" y="76" width="11" height="11" rx="2" ry="2" fill="#006d32"><title>6 on 2024-08-08</title></rect><rect x="411" y="89" width="11" height="11" rx="2" ry="2" fill="#161b22"><title>0 on 2024-08-09</title></rect><rect x="411" y="102" width="11" height="11" rx="2" ry="2" fill="#0e4429"><title>1 on 2024-08-10</title></rect><rect x="424" y="24" width="11" height="11" rx="2" ry="2" fill="#161b22"><title>0 on 2024-08-11</title></rect><rect x="424" y="37" width="11" height="11" rx="2" ry="2" fill="#161b22"><title>0 on 2024-08-12</title></rect><rect x="424" y="50" width="11" height="11" rx="2" ry="2" fill="#161b22"><title>0 on 2024-08-13</title></rect><rect x="424" y="63" width="11" height="11" rx="2" ry="2" fill="#161b22"><title>0 on 2024-08-14</title></rect><rect x="424" y="76" width="11" height="11" rx="2" ry="2" fill="#216e39"><title>34 on 2024-08-15</title></rect><rect x="424" y="89" width="11" height="11" rx="2" ry="2" fill="#161b22"><title>0 on 2024-08-16</title></rect><rect x="424" y="102" width="11" height="11" rx="2" ry="2" fill="#161b22"><title>0 on 2024-08-17</title></rect><rect x="437" y="24" width="11" height="11" rx="2" ry="2" fill="#0e4429"><title>1 on 2024-08-18</title></rect><rect x="437" y="37" width="11" height="11" rx="2" ry="2" fill="#30a14e"><title>20 on 2024-08-19</title></rect><rect x="437" y="50" width="11" height="11" rx="2" ry="2" fill="#30a14e"><title>25 on 2024-08-20</title></rect><rect x="437" y="63" width="11" height="11" rx="2" ry="2" fill="#161b22"><title>0 on 2024-08-21</title></rect><rect x="437" y="76" width="11" height="11" rx="2" ry="2" fill="#161b22"><title>0 on 2024-08-22</title></rect><rect x="437" y="89" width="11" height="11" rx="2" ry="2" fill="#0e4429"><title>3 on 2024-08-23</title></rect><rect x="437" y="102" width="11" height="11" rx="2" ry="2" fill="#006d32"><title>6 on 2024-08-24</title></rect><rect x="450" y="24" width="11" height="11" rx="2" ry="2" fill="#0e4429"><title>3 on 2024-08-25</title></rect><rect x="450" y="37" width="11" height="11" rx="2" ry="2" fill="#0e4429"><title>3 on 2024-08-26</title></rect><rect x="450" y="50" width="11" height="11" rx="2" ry="2" fill="#006d32"><title>5 on 2024-08-27</title></rect><rect x="450" y="63" width="11" height="11" rx="2" ry="2" fill="#0e4429"><title>1 on 2024-08-28</title></rect><rect x="450" y="76" width="11" height="11" rx="2" ry="2" fill="#0e4429"><title>2 on 2024-08-29</title></rect><rect x="450" y="89" width="11" height="11" rx="2" ry="2" fill="#40c463"><title>15 on 2024-08-30</title></rect><rect x="450" y="102" width="11" height="11" rx="2" ry="2" fill="#0e4429"><title>2 on 2024-08-31</title></rect><rect x="463" y="24" width="11" height="11" rx="2" ry="2" fill="#0e4429"><title>1 on 2024-09-01</title></rect><rect x="463" y="37" width="11" height="11" rx="2" ry="2" fill="#161b22"><title>0 on 2024-09-02</title></rect><rect x="463" y="50" width="11" height="11" rx="2" ry="2" fill="#161b22"><title>0 on 2024-09-03</title></rect><rect x="463" y="63" width="11" height="11" rx="2" ry="2" fill="#161b22"><title>0 on 2024-09-04</title></rect><rect x="463" y="76" width="11" height="11" rx="2" ry="2" fill="#161b22"><title>0 on 2024-09-05</title></rect><rect x="463" y="89" width="11" height="11" rx="2" ry="2" fill="#40c463"><title>14 on 2024-09-06</title></rect><rect x="463" y="102" width="11" height="11" rx="2" ry="2" fill="#161b22"><title>0 on 2024-09-07</title></rect><rect x="476" y="24" width="11" height="11" rx="2" ry="2" fill="#161b22"><title>0 on 2024-09-08</title></rect><rect x="476" y="37" width="11" height="11" rx="2" ry="2" fill="#161b22"><title>0 on 2024-09-09</title></rect><rect x="476" y="50" width="11" height="11" rx="2" ry="2" fill="#161b22"><title>0 on 2024-09-10</title></rect><rect x="476" y="63" width="11" height="11" rx="2" ry="2" fill="#161b22"><title>0 on 2024-09-11</title></rect><rect x="476" y="76" width="11" height="11" rx="2" ry="2" fill="#0e4429"><title>2 on 2024-09-12</title></rect><rect x="476" y="89" width="11" height="11" rx="2" ry="2" fill="#161b22"><title>0 on 2024-09-13</title></rect><rect x="476" y="102" width="11" height="11" rx="2" ry="2" fill="#006d32"><title>5 on 2024-09-14</title></rect><rect x="489" y="24" width="11" height="11" rx="2" ry="2" fill="#006d32"><title>6 on 2024-09-15</title></rect><rect x="489" y="37" width="11" height="11" rx="2" ry="2" fill="#161b22"><title>0 on 2024-09-16</title></rect><rect x="489" y="50" width="11" height="11" rx="2" ry="2" fill="#006d32"><title>6 on 2024-09-17</title></rect><rect x="489" y="63" width="11" height="11" rx="2" ry="2" fill="#006d32"><title>5 on 2024-09-18</title></rect><rect x="489" y="76" width="11" height="11" rx="2" ry="2" fill="#006d32"><title>4 on 2024-09-19</title></rect><rect x="489" y="89" width="11" height="11" rx="2" ry="2" fill="#006d32"><title>4 on 2024-09-20</title></rect><rect x="489" y="102" width="11" height="11" rx="2" ry="2" fill="#26a641"><title>8 on 2024-09-21</title></rect><rect x="502" y="24" width="11" height="11" rx="2" ry="2" fill="#0e4429"><title>2 on 2024-09-22</title></rect><rect x="502" y="37" width="11" height="11" rx="2" ry="2" fill="#0e4429"><title>2 on 2024-09-23</title></rect><rect x="502" y="50" width="11" height="11" rx="2" ry="2" fill="#006d32"><title>5 on 2024-09-24</title></rect><rect x="502" y="63" width="11" height="11" rx="2" ry="2" fill="#006d32"><title>4 on 2024-09-25</title></rect><rect x="502" y="76" width="11" height="11" rx="2" ry="2" fill="#006d32"><title>4 on 2024-09-26</title></rect><rect x="502" y="89" width="11" height="11" rx="2" ry="2" fill="#161b22"><title>0 on 2024-09-27</title></rect><rect x="502" y="102" width="11" height="11" rx="2" ry="2" fill="#0e4429"><title>2 on 2024-09-28</title></rect><rect x="515" y="24" width="11" height="11" rx="2" ry="2" fill="#0e4429"><title>3 on 2024-09-29</title></rect><rect x="515" y="37" width="11" height="11" rx="2" ry="2" fill="#161b22"><title>0 on 2024-09-30</title></rect><rect x="515" y="50" width="11" height="11" rx="2" ry="2" fill="#161b22"><title>0 on 2024-10-01</title></rect><rect x="515" y="63" width="11" height="11" rx="2" ry="2" fill="#006d32"><title>5 on 2024-10-02</title></rect><rect x="515" y="76" width="11" height="11" rx="2" ry="2" fill="#0e4429"><title>1 on 2024-10-03</title></rect><rect x="515" y="89" width="11" height="11" rx="2" ry="2" fill="#006d32"><title>4 on 2024-10-04</title></rect><rect x="515" y="102" width="11" height="11" rx="2" ry="2" fill="#006d32"><title>5 on 2024-10-05</title></rect><rect x="528" y="24" width="11" height="11" rx="2" ry="2" fill="#0e4429"><title>3 on 2024-10-06</title></rect><rect x="528" y="37" width="11" height="11" rx="2" ry="2" fill="#161b22"><title>0 on 2024-10-07</title></rect><rect x="528" y="50" width="11" height="11" rx="2" ry="2" fill="#0e4429"><title>1 on 2024-10-08</title></rect><rect x="528" y="63" width="11" height="11" rx="2" ry="2" fill="#0e4429"><title>2 on 2024-10-09</title></rect><rect x="528" y="76" width="11" height="11" rx="2" ry="2" fill="#0e4429"><title>3 on 2024-10-10</title></rect><rect x="528" y="89" width="11" height="11" rx="2" ry="2" fill="#0e4429"><title>2 on 2024-10-11</title></rect><rect x="528" y="102" width="11" height="11" rx="2" ry="2" fill="#0e4429"><title>3 on 2024-10-12</title></rect><rect x="541" y="24" width="11" height="11" rx="2" ry="2" fill="#006d32"><title>6 on 2024-10-13</title></rect><rect x="541" y="37" width="11" height="11" rx="2" ry="2" fill="#161b22"><title>0 on 2024-10-14</title></rect><rect x="541" y="50" width="11" height="11" rx="2" ry="2" fill="#161b22"><title>0 on 2024-10-15</title></rect><rect x="541" y="63" width="11" height="11" rx="2" ry="2" fill="#161b22"><title>0 on 2024-10-16</title></rect><rect x="541" y="76" width="11" height="11" rx="2" ry="2" fill="#161b22"><title>0 on 2024-10-17</title></rect><rect x="541" y="89" width="11" height="11" rx="2" ry="2" fill="#161b22"><title>0 on 2024-10-18</title></rect><rect x="541" y="102" width="11" height="11" rx="2" ry="2" fill="#161b22"><title>0 on 2024-10-19</title></rect><rect x="554" y="24" width="11" height="11" rx="2" ry="2" fill="#161b22"><title>0 on 2024-10-20</title></rect><rect x="554" y="37" width="11" height="11" rx="2" ry="2" fill="#161b22"><title>0 on 2024-10-21</title></rect><rect x="554" y="50" width="11" height="11" rx="2" ry="2" fill="#161b22"><title>0 on 2024-10-22</title></rect><rect x="554" y="63" width="11" height="11" rx="2" ry="2" fill="#0e4429"><title>2 on 2024-10-23</title></rect><rect x="554" y="76" width="11" height="11" rx="2" ry="2" fill="#0e4429"><title>3 on 2024-10-24</title></rect><rect x="554" y="89" width="11" height="11" rx="2" ry="2" fill="#0e4429"><title>1 on 2024-10-25</title></rect><rect x="554" y="102" width="11" height="11" rx="2" ry="2" fill="#0e4429"><title>3 on 2024-10-26</title></rect><rect x="567" y="24" width="11" height="11" rx="2" ry="2" fill="#161b22"><title>0 on 2024-10-27</title></rect><rect x="567" y="37" width="11" height="11" rx="2" ry="2" fill="#0e4429"><title>1 on 2024-10-28</title></rect><rect x="567" y="50" width="11" height="11" rx="2" ry="2" fill="#161b22"><title>0 on 2024-10-29</title></rect><rect x="567" y="63" width="11" height="11" rx="2" ry="2" fill="#161b22"><title>0 on 2024-10-30</title></rect><rect x="567" y="76" width="11" height="11" rx="2" ry="2" fill="#26a641"><title>8 on 2024-10-31</title></rect><rect x="567" y="89" width="11" height="11" rx="2" ry="2" fill="#0e4429"><title>3 on 2024-11-01</title></rect><rect x="567" y="102" width="11" height="11" rx="2" ry="2" fill="#006d32"><title>7 on 2024-11-02</title></rect><rect x="580" y="24" width="11" height="11" rx="2" ry="2" fill="#161b22"><title>0 on 2024-11-03</title></rect><rect x="580" y="37" width="11" height="11" rx="2" ry="2" fill="#161b22"><title>0 on 2024-11-04</title></rect><rect x="580" y="50" width="11" height="11" rx="2" ry="2" fill="#0e4429"><title>1 on 2024-11-05</title></rect><rect x="580" y="63" width="11" height="11" rx="2" ry="2" fill="#161b22"><title>0 on 2024-11-06</title></rect><rect x="580" y="76" width="11" height="11" rx="2" ry="2" fill="#0e4429"><title>1 on 2024-11-07</title></rect><rect x="580" y="89" width="11" height="11" rx="2" ry="2" fill="#161b22"><title>0 on 2024-11-08</title></rect><rect x="580" y="102" width="11" height="11" rx="2" ry="2" fill="#161b22"><title>0 on 2024-11-09</title></rect><rect x="593" y="24" width="11" height="11" rx="2" ry="2" fill="#0e4429"><title>1 on 2024-11-10</title></rect><rect x="593" y="37" width="11" height="11" rx="2" ry="2" fill="#161b22"><title>0 on 2024-11-11</title></rect><rect x="593" y="50" width="11" height="11" rx="2" ry="2" fill="#161b22"><title>0 on 2024-11-12</title></rect><rect x="593" y="63" width="11" height="11" rx="2" ry="2" fill="#161b22"><title>0 on 2024-11-13</title></rect><rect x="593" y="76" width="11" height="11" rx="2" ry="2" fill="#26a641"><title>8 on 2024-11-14</title></rect><rect x="593" y="89" width="11" height="11" rx="2" ry="2" fill="#006d32"><title>6 on 2024-11-15</title></rect><rect x="593" y="102" width="11" height="11" rx="2" ry="2" fill="#0e4429"><title>1 on 2024-11-16</title></rect><rect x="606" y="24" width="11" height="11" rx="2" ry="2" fill="#161b22"><title>0 on 2024-11-17</title></rect><rect x="606" y="37" width="11" height="11" rx="2" ry="2" fill="#161b22"><title>0 on 2024-11-18</title></rect><rect x="606" y="50" width="11" height="11" rx="2" ry="2" fill="#161b22"><title>0 on 2024-11-19</title></rect><rect x="606" y="63" width="11" height="11" rx="2" ry="2" fill="#161b22"><title>0 on 2024-11-20</title></rect><rect x="606" y="76" width="11" height="11" rx="2" ry="2" fill="#0e4429"><title>1 on 2024-11-21</title></rect><rect x="606" y="89" width="11" height="11" rx="2" ry="2" fill="#0e4429"><title>1 on 2024-11-22</title></rect><rect x="606" y="102" width="11" height="11" rx="2" ry="2" fill="#0e4429"><title>1 on 2024-11-23</title></rect><rect x="619" y="24" width="11" height="11" rx="2" ry="2" fill="#006d32"><title>4 on 2024-11-24</title></rect><rect x="619" y="37" width="11" height="11" rx="2" ry="2" fill="#0e4429"><title>1 on 2024-11-25</title></rect><rect x="619" y="50" width="11" height="11" rx="2" ry="2" fill="#0e4429"><title>1 on 2024-11-26</title></rect><rect x="619" y="63" width="11" height="11" rx="2" ry="2" fill="#0e4429"><title>1 on 2024-11-27</title></rect><rect x="619" y="76" width="11" height="11" rx="2" ry="2" fill="#0e4429"><title>1 on 2024-11-28</title></rect><rect x="619" y="89" width="11" height="11" rx="2" ry="2" fill="#0e4429"><title>1 on 2024-11-29</title></rect><rect x="619" y="102" width="11" height="11" rx="2" ry="2" fill="#0e4429"><title>1 on 2024-11-30</title></rect><rect x="632" y="24" width="11" height="11" rx="2" ry="2" fill="#0e4429"><title>2 on 2024-12-01</title></rect><rect x="632" y="37" width="11" height="11" rx="2" ry="2" fill="#0e4429"><title>1 on 2024-12-02</title></rect><rect x="632" y="50" width="11" height="11" rx="2" ry="2" fill="#161b22"><title>0 on 2024-12-03</title></rect><rect x="632" y="63" width="11" height="11" rx="2" ry="2" fill="#0e4429"><title>3 on 2024-12-04</title></rect><rect x="632" y="76" width="11" height="11" rx="2" ry="2" fill="#0e4429"><title>2 on 2024-12-05</title></rect><rect x="632" y="89" width="11" height="11" rx="2" ry="2" fill="#0e4429"><title>1 on 2024-12-06</title></rect><rect x="632" y="102" width="11" height="11" rx="2" ry="2" fill="#0e4429"><title>2 on 2024-12-07</title></rect><rect x="645" y="24" width="11" height="11" rx="2" ry="2" fill="#161b22"><title>0 on 2024-12-08</title></rect><rect x="645" y="37" width="11" height="11" rx="2" ry="2" fill="#0e4429"><title>2 on 2024-12-09</title></rect><rect x="645" y="50" width="11" height="11" rx="2" ry="2" fill="#0e4429"><title>1 on 2024-12-10</title></rect><rect x="645" y="63" width="11" height="11" rx="2" ry="2" fill="#0e4429"><title>2 on 2024-12-11</title></rect><rect x="645" y="76" width="11" height="11" rx="2" ry="2" fill="#0e4429"><title>2 on 2024-12-12</title></rect><rect x="645" y="89" width="11" height="11" rx="2" ry="2" fill="#0e4429"><title>3 on 2024-12-13</title></rect><rect x="645" y="102" width="11" height="11" rx="2" ry="2" fill="#0e4429"><title>1 on 2024-12-14</title></rect><rect x="658" y="24" width="11" height="11" rx="2" ry="2" fill="#161b22"><title>0 on 2024-12-15</title></rect><rect x="658" y="37" width="11" height="11" rx="2" ry="2" fill="#161b22"><title>0 on 2024-12-16</title></rect><rect x="658" y="50" width="11" height="11" rx="2" ry="2" fill="#161b22"><title>0 on 2024-12-17</title></rect><rect x="658" y="63" width="11" height="11" rx="2" ry="2" fill="#161b22"><title>0 on 2024-12-18</title></rect><rect x="658" y="76" width="11" height="11" rx="2" ry="2" fill="#006d32"><title>4 on 2024-12-19</title></rect><rect x="658" y="89" width="11" height="11" rx="2" ry="2" fill="#0e4429"><title>2 on 2024-12-20</title></rect><rect x="658" y="102" width="11" height="11" rx="2" ry="2" fill="#0e4429"><title>1 on 2024-12-21</title></rect><rect x="671" y="24" width="11" height="11" rx="2" ry="2" fill="#0e4429"><title>2 on 2024-12-22</title></rect><rect x="671" y="37" width="11" height="11" rx="2" ry="2" fill="#161b22"><title>0 on 2024-12-23</title></rect><rect x="671" y="50" width="11" height="11" rx="2" ry="2" fill="#161b22"><title>0 on 2024-12-24</title></rect><rect x="671" y="63" width="11" height="11" rx="2" ry="2" fill="#161b22"><title>0 on 2024-12-25</title></rect><rect x="671" y="76" width="11" height="11" rx="2" ry="2" fill="#161b22"><title>0 on 2024-12-26</title></rect><rect x="671" y="89" width="11" height="11" rx="2" ry="2" fill="#0e4429"><title>1 on 2024-12-27</title></rect><rect x="671" y="102" width="11" height="11" rx="2" ry="2" fill="#0e4429"><title>1 on 2024-12-28</title></rect><rect x="684" y="24" width="11" height="11" rx="2" ry="2" fill="#161b22"><title>0 on 2024-12-29</title></rect><rect x="684" y="37" width="11" height="11" rx="2" ry="2" fill="#0e4429"><title>1 on 2024-12-30</title></rect><rect x="684" y="50" width="11" height="11" rx="2" ry="2" fill="#0e4429"><title>2 on 2024-12-31</title></rect></svg>