<svg xmlns="http://www.w3.org/2000/svg" viewBox="0 0 705 123" role="img" aria-label="AbdullahBakir97 contributions in 2025"><rect width="100%" height="100%" fill="#0d1117"/><style>text{font-family:-apple-system,Segoe UI,sans-serif;font-size:11px;fill:#8b949e}</style><text x="8" y="16"><tspan font-weight="600" fill="#c9d1d9">198</tspan> contributions in 2025</text><rect x="8" y="63" width="11" height="11" rx="2" ry="2" fill="#26a641"><title>8 on 2025-01-01</title></rect><rect x="8" y="76" width="11" height="11" rx="2" ry="2" fill="#006d32"><title>4 on 2025-01-02</title></rect><rect x="8" y="89" width="11" height="11" rx="2" ry="2" fill="#0e4429"><title>1 on 2025-01-03</title></rect><rect x="8" y="102" width="11" height="11" rx="2" ry="2" fill="#0e4429"><title>3 on 2025-01-04</title></rect><rect x="21" y="24" width="11" height="11" rx="2" ry="2" fill="#0e4429"><title>1 on 2025-01-05</title></rect><rect x="21" y="37" width="11" height="11" rx="2" ry="2" fill="#0e4429"><title>1 on 2025-01-06</title></rect><rect x="21" y="50" width="11" height="11" rx="2" ry="2" fill="#161b22"><title>0 on 2025-01-07</title></rect><rect x="21" y="63" width="11" height="11" rx="2" ry="2" fill="#161b22"><title>0 on 2025-01-08</title></rect><rect x="21" y="76" width="11" height="11" rx="2" ry="2" fill="#161b22"><title>0 on 2025-01-09</title></rect><rect x="21" y="89" width="11" height="11" rx="2" ry="2" fill="#26a641"><title>10 on 2025-01-10</title></rect><rect x="21" y="102" width="11" height="11" rx="2" ry="2" fill="#0e4429"><title>1 on 2025-01-11</title></rect><rect x="34" y="24" width="11" height="11" rx="2" ry="2" fill="#161b22"><title>0 on 2025-01-12</title></rect><rect x="34" y="37" width="11" height="11" rx="2" ry="2" fill="#161b22"><title>0 on 2025-01-13</title></rect><rect x="34" y="50" width="11" height="11" rx="2" ry="2" fill="#161b22"><title>0 on 2025-01-14</title></rect><rect x="34" y="63" width="11" height="11" rx="2" ry="2" fill="#161b22"><title>0 on 2025-01-15</title></rect><rect x="34" y="76" width="11" height="11" rx="2" ry="2" fill="#161b22"><title>0 on 2025-01-16</title></rect><rect x="34" y="89" width="11" height="11" rx="2" ry="2" fill="#0e4429"><title>1 on 2025-01-17</title></rect><rect x="34" y="102" width="11" height="11" rx="2" ry="2" fill="#161b22"><title>0 on 2025-01-18</title></rect><rect x="47" y="24" width="11" height="11" rx="2" ry="2" fill="#0e4429"><title>1 on 2025-01-19</title></rect><rect x="47" y="37" width="11" height="11" rx="2" ry="2" fill="#0e4429"><title>1 on 2025-01-20</title></rect><rect x="47" y="50" width="11" height="11" rx="2" ry="2" fill="#161b22"><title>0 on 2025-01-21</title></rect><rect x="47" y="63" width="11" height="11" rx="2" ry="2" fill="#006d32"><title>5 on 2025-01-22</title></rect><rect x="47" y="76" width="11" height="11" rx="2" ry="2" fill="#161b22"><title>0 on 2025-01-23</title></rect><rect x="47" y="89" width="11" height="11" rx="2" ry="2" fill="#161b22"><title>0 on 2025-01-24</title></rect><rect x="47" y="102" width="11" height="11" rx="2" ry="2" fill="#0e4429"><title>2 on 2025-01-25</title></rect><rect x="60" y="24" width="11" height="11" rx="2" ry="2" fill="#0e4429"><title>1 on 2025-01-26</title></rect><rect x="60" y="37" width="11" height="11" rx="2" ry="2" fill="#161b22"><title>0 on 2025-01-27</title></rect><rect x="60" y="50" width="11" height="11" rx="2" ry="2" fill="#0e4429"><title>1 on 2025-01-28</title></rect><rect x="60" y="63" width="11" height="11" rx="2" ry="2" fill="#161b22"><title>0 on 2025-01-29</title></rect><rect x="60" y="76" width="11" height="11" rx="2" ry="2" fill="#161b22"><title>0 on 2025-01-30</title></rect><rect x="60" y="89" width="11" height="11" rx="2" ry="2" fill="#0e4429"><title>1 on 2025-01-31</title></rect><rect x="60" y="102" width="11" height="11" rx="2" ry="2" fill="#161b22"><title>0 on 2025-02-01</title></rect><rect x="73" y="24" width="11" height="11" rx="2" ry="2" fill="#0e4429"><title>1 on 2025-02-02</title></rect><rect x="73" y="37" width="11" height="11" rx="2" ry="2" fill="#0e4429"><title>2 on 2025-02-03</title></rect><rect x="73" y="50" width="11" height="11" rx="2" ry="2" fill="#216e39"><title>20 on 2025-02-04</title></rect><rect x="73" y="63" width="11" height="11" rx="2" ry="2" fill="#0e4429"><title>1 on 2025-02-05</title></rect><rect x="73" y="76" width="11" height="11" rx="2" ry="2" fill="#0e4429"><title>1 on 2025-02-06</title></rect><rect x="73" y="89" width="11" height="11" rx="2" ry="2" fill="#161b22"><title>0 on 2025-02-07</title></rect><rect x="73" y="102" width="11" height="11" rx="2" ry="2" fill="#161b22"><title>0 on 2025-02-08</title></rect><rect x="86" y="24" width="11" height="11" rx="2" ry="2" fill="#0e4429"><title>1 on 2025-02-09</title></rect><rect x="86" y="37" width="11" height="11" rx="2" ry="2" fill="#0e4429"><title>1 on 2025-02-10</title></rect><rect x="86" y="50" width="11" height="11" rx="2" ry="2" fill="#161b22"><title>0 on 2025-02-11</title></rect><rect x="86" y="63" width="11" height="11" rx="2" ry="2" fill="#161b22"><title>0 on 2025-02-12</title></rect><rect x="86" y="76" width="11" height="11" rx="2" ry="2" fill="#161b22"><title>0 on 2025-02-13</title></rect><rect x="86" y="89" width="11" height="11" rx="2" ry="2" fill="#161b22"><title>0 on 2025-02-14</title></rect><rect x="86" y="102" width="11" height="11" rx="2" ry="2" fill="#0e4429"><title>3 on 2025-02-15</title></rect><rect x="99" y="24" width="11" height="11" rx="2" ry="2" fill="#161b22"><title>0 on 2025-02-16</title></rect><rect x="99" y="37" width="11" height="11" rx="2" ry="2" fill="#0e4429"><title>1 on 2025-02-17</title></rect><rect x="99" y="50" width="11" height="11" rx="2" ry="2" fill="#161b22"><title>0 on 2025-02-18</title></rect><rect x="99" y="63" width="11" height="11" rx="2" ry="2" fill="#0e4429"><title>1 on 2025-02-19</title></rect><rect x="99" y="76" width="11" height="11" rx="2" ry="2" fill="#0e4429"><title>1 on 2025-02-20</title></rect><rect x="99" y="89" width="11" height="11" rx="2" ry="2" fill="#161b22"><title>0 on 2025-02-21</title></rect><rect x="99" y="102" width="11" height="11" rx="2" ry="2" fill="#006d32"><title>4 on 2025-02-22</title></rect><rect x="112" y="24" width="11" height="11" rx="2" ry="2" fill="#006d32"><title>5 on 2025-02-23</title></rect><rect x="112" y="37" width="11" height="11" rx="2" ry="2" fill="#161b22"><title>0 on 2025-02-24</title></rect><rect x="112" y="50" width="11" height="11" rx="2" ry="2" fill="#161b22"><title>0 on 2025-02-25</title></rect><rect x="112" y="63" width="11" height="11" rx="2" ry="2" fill="#0e4429"><title>1 on 2025-02-26</title></rect><rect x="112" y="76" width="11" height="11" rx="2" ry="2" fill="#0e4429"><title>1 on 2025-02-27</title></rect><rect x="112" y="89" width="11" height="11" rx="2" ry="2" fill="#161b22"><title>0 on 2025-02-28</title></rect><rect x="112" y="102" width="11" height="11" rx="2" ry="2" fill="#161b22"><title>0 on 2025-03-01</title></rect><rect x="125" y="24" width="11" height="11" rx="2" ry="2" fill="#161b22"><title>0 on 2025-03-02</title></rect><rect x="125" y="37" width="11" height="11" rx="2" ry="2" fill="#161b22"><title>0 on 2025-03-03</title></rect><rect x="125" y="50" width="11" height="11" rx="2" ry="2" fill="#161b22"><title>0 on 2025-03-04</title></rect><rect x="125" y="63" width="11" height="11" rx="2" ry="2" fill="#161b22"><title>0 on 2025-03-05</title></rect><rect x="125" y="76" width="11" height="11" rx="2" ry="2" fill="#0e4429"><title>2 on 2025-03-06</title></rect><rect x="125" y="89" width="11" height="11" rx="2" ry="2" fill="#0e4429"><title>2 on 2025-03-07</title></rect><rect x="125" y="102" width="11" height="11" rx="2" ry="2" fill="#216e39"><title>64 on 2025-03-08</title></rect><rect x="138" y="24" width="11" height="11" rx="2" ry="2" fill="#161b22"><title>0 on 2025-03-09</title></rect><rect x="138" y="37" width="11" height="11" rx="2" ry="2" fill="#0e4429"><title>1 on 2025-03-10</title></rect><rect x="138" y="50" width="11" height="11" rx="2" ry="2" fill="#0e4429"><title>2 on 2025-03-11</title></rect><rect x="138" y="63" width="11" height="11" rx="2" ry="2" fill="#0e4429"><title>1 on 2025-03-12</title></rect><rect x="138" y="76" width="11" height="11" rx="2" ry="2" fill="#0e4429"><title>1 on 2025-03-13</title></rect><rect x="138" y="89" width="11" height="11" rx="2" ry="2" fill="#0e4429"><title>1 on 2025-03-14</title></rect><rect x="138" y="102" width="11" height="11" rx="2" ry="2" fill="#0e4429"><title>3 on 2025-03-15</title></rect><rect x="151" y="24" width="11" height="11" rx="2" ry="2" fill="#0e4429"><title>1 on 2025-03-16</title></rect><rect x="151" y="37" width="11" height="11" rx="2" ry="2" fill="#0e4429"><title>1 on 2025-03-17</title></rect><rect x="151" y="50" width="11" height="11" rx="2" ry="2" fill="#161b22"><title>0 on 2025-03-18</title></rect><rect x="151" y="63" width="11" height="11" rx="2" ry="2" fill="#0e4429"><title>1 on 2025-03-19</title></rect><rect x="151" y="76" width="11" height="11" rx="2" ry="2" fill="#216e39"><title>15 on 2025-03-20</title></rect><rect x="151" y="89" width="11" height="11" rx="2" ry="2" fill="#161b22"><title>0 on 2025-03-21</title></rect><rect x="151" y="102" width="11" height="11" rx="2" ry="2" fill="#161b22"><title>0 on 2025-03-22</title></rect><rect x="164" y="24" width="11" height="11" rx="2" ry="2" fill="#0e4429"><title>1 on 2025-03-23</title></rect><rect x="164" y="37" width="11" height="11" rx="2" ry="2" fill="#161b22"><title>0 on 2025-03-24</title></rect><rect x="164" y="50" width="11" height="11" rx="2" ry="2" fill="#161b22"><title>0 on 2025-03-25</title></rect><rect x="164" y="63" width="11" height="11" rx="2" ry="2" fill="#0e4429"><title>1 on 2025-03-26</title></rect><rect x="164" y="76" width="11" height="11" rx="2" ry="2" fill="#161b22"><title>0 on 2025-03-27</title></rect><rect x="164" y="89" width="11" height="11" rx="2" ry="2" fill="#0e4429"><title>1 on 2025-03-28</title></rect><rect x="164" y="102" width="11" height="11" rx="2" ry="2" fill="#161b22"><title>0 on 2025-03-29</title></rect><rect x="177" y="24" width="11" height="11" rx="2" ry="2" fill="#161b22"><title>0 on 2025-03-30</title></rect><rect x="177" y="37" width="11" height="11" rx="2" ry="2" fill="#161b22"><title>0 on 2025-03-31</title></rect><rect x="177" y="50" width="11" height="11" rx="2" ry="2" fill="#0e4429"><title>1 on 2025-04-01</title></rect><rect x="177" y="63" width="11" height="11" rx="2" ry="2" fill="#161b22"><title>0 on 2025-04-02</title></rect><rect x="177" y="76" width="11" height="11" rx="2" ry="2" fill="#161b22"><title>0 on 2025-04-03</title></rect><rect x="177" y="89" width="11" height="11" rx="2" ry="2" fill="#161b22"><title>0 on 2025-04-04</title></rect><rect x="177" y="102" width="11" height="11" rx="2" ry="2" fill="#161b22"><title>0 on 2025-04-05</title></rect><rect x="190" y="24" width="11" height="11" rx="2" ry="2" fill="#161b22"><title>0 on 2025-04-06</title></rect><rect x="190" y="37" width="11" height="11" rx="2" ry="2" fill="#161b22"><title>0 on 2025-04-07</title></rect><rect x="190" y="50" width="11" height="11" rx="2" ry="2" fill="#161b22"><title>0 on 2025-04-08</title></rect><rect x="190" y="63" width="11" height="11" rx="2" ry="2" fill="#161b22"><title>0 on 2025-04-09</title></rect><rect x="190" y="76" width="11" height="11" rx="2" ry="2" fill="#161b22"><title>0 on 2025-04-10</title></rect><rect x="190" y="89" width="11" height="11" rx="2" ry="2" fill="#161b22"><title>0 on 2025-04-11</title></rect><rect x="190" y="102" width="11" height="11" rx="2" ry="2" fill="#161b22"><title>0 on 2025-04-12</title></rect><rect x="203" y="24" width="11" height="11" rx="2" ry="2" fill="#161b22"><title>0 on 2025-04-13</title></rect><rect x="203" y="37" width="11" height="11" rx="2" ry="2" fill="#161b22"><title>0 on 2025-04-14</title></rect><rect x="203" y="50" width="11" height="11" rx="2" ry="2" fill="#0e4429"><title>1 on 2025-04-15</title></rect><rect x="203" y="63" width="11" height="11" rx="2" ry="2" fill="#0e4429"><title>1 on 2025-04-16</title></rect><rect x="203" y="76" width="11" height="11" rx="2" ry="2" fill="#0e4429"><title>1 on 2025-04-17</title></rect><rect x="203" y="89" width="11" height="11" rx="2" ry="2" fill="#161b22"><title>0 on 2025-04-18</title></rect><rect x="203" y="102" width="11" height="11" rx="2" ry="2" fill="#0e4429"><title>1 on 2025-04-19</title></rect><rect x="216" y="24" width="11" height="11" rx="2" ry="2" fill="#161b22"><title>0 on 2025-04-20</title></rect><rect x="216" y="37" width="11" height="11" rx="2" ry="2" fill="#0e4429"><title>1 on 2025-04-21</title></rect><rect x="216" y="50" width="11" height="11" rx="2" ry="2" fill="#161b22"><title>0 on 2025-04-22</title></rect><rect x="216" y="63" width="11" height="11" rx="2" ry="2" fill="#161b22"><title>0 on 2025-04-23</title></rect><rect x="216" y="76" width="11" height="11" rx="2" ry="2" fill="#161b22"><title>0 on 2025-04-24</title></rect><rect x="216" y="89" width="11" height="11" rx="2" ry="2" fill="#161b22"><title>0 on 2025-04-25</title></rect><rect x="216" y="102" width="11" height="11" rx="2" ry="2" fill="#161b22"><title>0 on 2025-04-26</title></rect><rect x="229" y="24" width="11" height="11" rx="2" ry="2" fill="#161b22"><title>0 on 2025-04-27</title></rect><rect x="229" y="37" width="11" height="11" rx="2" ry="2" fill="#161b22"><title>0 on 2025-04-28</title></rect><rect x="229" y="50" width="11" height="11" rx="2" ry="2" fill="#161b22"><title>0 on 2025-04-29</title></rect><rect x="229" y="63" width="11" height="11" rx="2" ry="2" fill="#161b22"><title>0 on 2025-04-30</title></rect><rect x="229" y="76" width="11" height="11" rx="2" ry="2" fill="#161b22"><title>0 on 2025-05-01</title></rect><rect x="229" y="89" width="11" height="11" rx="2" ry="2" fill="#161b22"><title>0 on 2025-05-02</title></rect><rect x="229" y="102" width="11" height="11" rx="2" ry="2" fill="#161b22"><title>0 on 2025-05-03</title></rect><rect x="242" y="24" width="11" height="11" rx="2" ry="2" fill="#161b22"><title>0 on 2025-05-04</title></rect><rect x="242" y="37" width="11" height="11" rx="2" ry="2" fill="#161b22"><title>0 on 2025-05-05</title></rect><rect x="242" y="50" width="11" height="11" rx="2" ry="2" fill="#161b22"><title>0 on 2025-05-06</title></rect><rect x="242" y="63" width="11" height="11" rx="2" ry="2" fill="#161b22"><title>0 on 2025-05-07</title></rect><rect x="242" y="76" width="11" height="11" rx="2" ry="2" fill="#161b22"><title>0 on 2025-05-08</title></rect><rect x="242" y="89" width="11" height="11" rx="2" ry="2" fill="#161b22"><title>0 on 2025-05-09</title></rect><rect x="242" y="102" width="11" height="11" rx="2" ry="2" fill="#161b22"><title>0 on 2025-05-10</title></rect><rect x="255" y="24" width="11" height="11" rx="2" ry="2" fill="#161b22"><title>0 on 2025-05-11</title></rect><rect x="255" y="37" width="11" height="11" rx="2" ry="2" fill="#161b22"><title>0 on 2025-05-12</title></rect><rect x="255" y="50" width="11" height="11" rx="2" ry="2" fill="#161b22"><title>0 on 2025-05-13</title></rect><rect x="255" y="63" width="11" height="11" rx="2" ry="2" fill="#161b22"><title>0 on 2025-05-14</title></rect><rect x="255" y="76" width="11" height="11" rx="2" ry="2" fill="#161b22"><title>0 on 2025-05-15</title></rect><rect x="255" y="89" width="11" height="11" rx="2" ry="2" fill="#161b22"><title>0 on 2025-05-16</title></rect><rect x="255" y="102" width="11" height="11" rx="2" ry="2" fill="#161b22"><title>0 on 2025-05-17</title></rect><rect x="268" y="24" width="11" height="11" rx="2" ry="2" fill="#161b22"><title>0 on 2025-05-18</title></rect><rect x="268" y="37" width="11" height="11" rx="2" ry="2" fill="#161b22"><title>0 on 2025-05-19</title></rect><rect x="268" y="50" width="11" height="11" rx="2" ry="2" fill="#161b22"><title>0 on 2025-05-20</title></rect><rect x="268" y="63" width="11" height="11" rx="2" ry="2" fill="#161b22"><title>0 on 2025-05-21</title></rect><rect x="268" y="76" width="11" height="11" rx="2" ry="2" fill="#161b22"><title>0 on 2025-05-22</title></rect><rect x="268" y="89" width="11" height="11" rx="2" ry="2" fill="#161b22"><title>0 on 2025-05-23</title></rect><rect x="268" y="102" width="11" height="11" rx="2" ry="2" fill="#161b22"><title>0 on 2025-05-24</title></rect><rect x="281" y="24" width="11" height="11" rx="2" ry="2" fill="#161b22"><title>0 on 2025-05-25</title></rect><rect x="281" y="37" width="11" height="11" rx="2" ry="2" fill="#161b22"><title>0 on 2025-05-26</title></rect><rect x="281" y="50" width="11" height="11" rx="2" ry="2" fill="#161b22"><title>0 on 2025-05-27</title></rect><rect x="281" y="63" width="11" height="11" rx="2" ry="2" fill="#161b22"><title>0 on 2025-05-28</title></rect><rect x="281" y="76" width="11" height="11" rx="2" ry="2" fill="#161b22"><title>0 on 2025-05-29</title></rect><rect x="281" y="89" width="11" height="11" rx="2" ry="2" fill="#161b22"><title>0 on 2025-05-30</title></rect><rect x="281" y="102" width="11" height="11" rx="2" ry="2" fill="#161b22"><title>0 on 2025-05-31</title></rect><rect x="294" y="24" width="11" height="11" rx="2" ry="2" fill="#161b22"><title>0 on 2025-06-01</title></rect><rect x="294" y="37" width="11" height="11" rx="2" ry="2" fill="#161b22"><title>0 on 2025-06-02</title></rect><rect x="294" y="50" width="11" height="11" rx="2" ry="2" fill="#161b22"><title>0 on 2025-06-03</title></rect><rect x="294" y="63" width="11" height="11" rx="2" ry="2" fill="#161b22"><title>0 on 2025-06-04</title></rect><rect x="294" y="76" width="11" height="11" rx="2" ry="2" fill="#161b22"><title>0 on 2025-06-05</title></rect><rect x="294" y="89" width="11" height="11" rx="2" ry="2" fill="#161b22"><title>0 on 2025-06-06</title></rect><rect x="294" y="102" width="11" height="11" rx="2" ry="2" fill="#161b22"><title>0 on 2025-06-07</title></rect><rect x="307" y="24" width="11" height="11" rx="2" ry="2" fill="#161b22"><title>0 on 2025-06-08</title></rect><rect x="307" y="37" width="11" height="11" rx="2" ry="2" fill="#161b22"><title>0 on 2025-06-09</title></rect><rect x="307" y="50" width="11" height="11" rx="2" ry="2" fill="#161b22"><title>0 on 2025-06-10</title></rect><rect x="307" y="63" width="11" height="11" rx="2" ry="2" fill="#161b22"><title>0 on 2025-06-11</title></rect><rect x="307" y="76" width="11" height="11" rx="2" ry="2" fill="#161b22"><title>0 on 2025-06-12</title></rect><rect x="307" y="89" width="11" height="11" rx="2" ry="2" fill="#161b22"><title>0 on 2025-06-13</title></rect><rect x="307" y="102" width="11" height="11" rx="2" ry="2" fill="#161b22"><title>0 on 2025-06-14</title></rect><rect x="320" y="24" width="11" height="11" rx="2" ry="2" fill="#161b22"><title>0 on 2025-06-15</title></rect><rect x="320" y="37" width="11" height="11" rx="2" ry="2" fill="#161b22"><title>0 on 2025-06-16</title></rect><rect x="320" y="50" width="11" height="11" rx="2" ry="2" fill="#161b22"><title>0 on 2025-06-17</title></rect><rect x="320" y="63" width="11" height="11" rx="2" ry="2" fill="#161b22"><title>0 on 2025-06-18</title></rect><rect x="320" y="76" width="11" height="11" rx="2" ry="2" fill="#161b22"><title>0 on 2025-06-19</title></rect><rect x="320" y="89" width="11" height="11" rx="2" ry="2" fill="#161b22"><title>0 on 2025-06-20</title></rect><rect x="320" y="102" width="11" height="11" rx="2" ry="2" fill="#161b22"><title>0 on 2025-06-21</title></rect><rect x="333" y="24" width="11" height="11" rx="2" ry="2" fill="#161b22"><title>0 on 2025-06-22</title></rect><rect x="333" y="37" width="11" height="11" rx="2" ry="2" fill="#161b22"><title>0 on 2025-06-23</title></rect><rect x="333" y="50" width="11" height="11" rx="2" ry="2" fill="#161b22"><title>0 on 2025-06-24</title></rect><rect x="333" y="63" width="11" height="11" rx="2" ry="2" fill="#161b22"><title>0 on 2025-06-25</title></rect><rect x="333" y="76" width="11" height="11" rx="2" ry="2" fill="#161b22"><title>0 on 2025-06-26</title></rect><rect x="333" y="89" width="11" height="11" rx="2" ry="2" fill="#161b22"><title>0 on 2025-06-27</title></rect><rect x="333" y="102" width="11" height="11" rx="2" ry="2" fill="#161b22"><title>0 on 2025-06-28</title></rect><rect x="346" y="24" width="11" height="11" rx="2" ry="2" fill="#161b22"><title>0 on 2025-06-29</title></rect><rect x="346" y="37" width="11" height="11" rx="2" ry="2" fill="#161b22"><title>0 on 2025-06-30</title></rect><rect x="346" y="50" width="11" height="11" rx="2" ry="2" fill="#161b22"><title>0 on 2025-07-01</title></rect><rect x="346" y="63" width="11" height="11" rx="2" ry="2" fill="#161b22"><title>0 on 2025-07-02</title></rect><rect x="346" y="76" width="11" height="11" rx="2" ry="2" fill="#161b22"><title>0 on 2025-07-03</title></rect><rect x="346" y="89" width="11" height="11" rx="2" ry="2" fill="#161b22"><title>0 on 2025-07-04</title></rect><rect x="346" y="102" width="11" height="11" rx="2" ry="2" fill="#161b22"><title>0 on 2025-07-05</title></rect><rect x="359" y="24" width="11" height="11" rx="2" ry="2" fill="#161b22"><title>0 on 2025-07-06</title></rect><rect x="359" y="37" width="11" height="11" rx="2" ry="2" fill="#161b22"><title>0 on 2025-07-07</title></rect><rect x="359" y="50" width="11" height="11" rx="2" ry="2" fill="#161b22"><title>0 on 2025-07-08</title></rect><rect x="359" y="63" width="11" height="11" rx="2" ry="2" fill="#161b22"><title>0 on 2025-07-09</title></rect><rect x="359" y="76" width="11" height="11" rx="2" ry="2" fill="#161b22"><title>0 on 2025-07-10</title></rect><rect x="359" y="89" width="11" height="11" rx="2" ry="2" fill="#161b22"><title>0 on 2025-07-11</title></rect><rect x="359" y="102" width="11" height="11" rx="2" ry="2" fill="#161b22"><title>0 on 2025-07-12</title></rect><rect x="372" y="24" width="11" height="11" rx="2" ry="2" fill="#161b22"><title>0 on 2025-07-13</title></rect><rect x="372" y="37" width="11" height="11" rx="2" ry="2" fill="#161b22"><title>0 on 2025-07-14</title></rect><rect x="372" y="50" width="11" height="11" rx="2" ry="2" fill="#161b22"><title>0 on 2025-07-15</title></rect><rect x="372" y="63" width="11" height="11" rx="2" ry="2" fill="#161b22"><title>0 on 2025-07-16</title></rect><rect x="372" y="76" width="11" height="11" rx="2" ry="2" fill="#161b22"><title>0 on 2025-07-17</title></rect><rect x="372" y="89" width="11" height="11" rx="2" ry="2" fill="#161b22"><title>0 on 2025-07-18</title></rect><rect x="372" y="102" width="11" height="11" rx="2" ry="2" fill="#161b22"><title>0 on 2025-07-19</title></rect><rect x="385" y="24" width="11" height="11" rx="2" ry="2" fill="#161b22"><title>0 on 2025-07-20</title></rect><rect x="385" y="37" width="11" height="11" rx="2" ry="2" fill="#161b22"><title>0 on 2025-07-21</title></rect><rect x="385" y="50" width="11" height="11" rx="2" ry="2" fill="#161b22"><title>0 on 2025-07-22</title></rect><rect x="385" y="63" width="11" height="11" rx="2" ry="2" fill="#161b22"><title>0 on 2025-07-23</title></rect><rect x="385" y="76" width="11" height="11" rx="2" ry="2" fill="#161b22"><title>0 on 2025-07-24</title></rect><rect x="385" y="89" width="11" height="11" rx="2" ry="2" fill="#161b22"><title>0 on 2025-07-25</title></rect><rect x="385" y="102" width="11" height="11" rx="2" ry="2" fill="#161b22"><title>0 on 2025-07-26</title></rect><rect x="398" y="24" width="11" height="11" rx="2" ry="2" fill="#161b22"><title>0 on 2025-07-27</title></rect><rect x="398" y="37" width="11" height="11" rx="2" ry="2" fill="#161b22"><title>0 on 2025-07-28</title></rect><rect x="398" y="50" width="11" height="11" rx="2" ry="2" fill="#161b22"><title>0 on 2025-07-29</title></rect><rect x="398" y="63" width="11" height="11" rx="2" ry="2" fill="#161b22"><title>0 on 2025-07-30</title></rect><rect x="398" y="76" width="11" height="11" rx="2" ry="2" fill="#161b22"><title>0 on 2025-07-31</title></rect><rect x="398" y="89" width="11" height="11" rx="2" ry="2" fill="#161b22"><title>0 on 2025-08-01</title></rect><rect x="398" y="102" width="11" height="11" rx="2" ry="2" fill="#161b22"><title>0 on 2025-08-02</title></rect><rect x="411" y="24" width="11" height="11" rx="2" ry="2" fill="#161b22"><title>0 on 2025-08-03</title></rect><rect x="411" y="37" width="11" height="11" rx="2" ry="2" fill="#161b22"><title>0 on 2025-08-04</title></rect><rect x="411" y="50" width="11" height="11" rx="2" ry="2" fill="#161b22"><title>0 on 2025-08-05</title></rect><rect x="411" y="63" width="11" height="11" rx="2" ry="2" fill="#161b22"><title>0 on 2025-08-06</title></rect><rect x="411" y="76" width="11" height="11" rx="2" ry="2" fill="#161b22"><title>0 on 2025-08-07</title></rect><rect x="411" y="89" width="11" height="11" rx="2" ry="2" fill="#161b22"><title>0 on 2025-08-08</title></rect><rect x="411" y="102" width="11" height="11" rx="2" ry="2" fill="#161b22"><title>0 on 2025-08-09</title></rect><rect x="424" y="24" width="11" height="11" rx="2" ry="2" fill="#161b22"><title>0 on 2025-08-10</title></rect><rect x="424" y="37" width="11" height="11" rx="2" ry="2" fill="#161b22"><title>0 on 2025-08-11</title></rect><rect x="424" y="50" width="11" height="11" rx="2" ry="2" fill="#161b22"><title>0 on 2025-08-12</title></rect><rect x="424" y="63" width="11" height="11" rx="2" ry="2" fill="#161b22"><title>0 on 2025-08-13</title></rect><rect x="424" y="76" width="11" height="11" rx="2" ry="2" fill="#161b22"><title>0 on 2025-08-14</title></rect><rect x="424" y="89" width="11" height="11" rx="2" ry="2" fill="#161b22"><title>0 on 2025-08-15</title></rect><rect x="424" y="102" width="11" height="11" rx="2" ry="2" fill="#161b22"><title>0 on 2025-08-16</title></rect><rect x="437" y="24" width="11" height="11" rx="2" ry="2" fill="#161b22"><title>0 on 2025-08-17</title></rect><rect x="437" y="37" width="11" height="11" rx="2" ry="2" fill="#161b22"><title>0 on 2025-08-18</title></rect><rect x="437" y="50" width="11" height="11" rx="2" ry="2" fill="#161b22"><title>0 on 2025-08-19</title></rect><rect x="437" y="63" width="11" height="11" rx="2" ry="2" fill="#0e4429"><title>2 on 2025-08-20</title></rect><rect x="437" y="76" width="11" height="11" rx="2" ry="2" fill="#161b22"><title>0 on 2025-08-21</title></rect><rect x="437" y="89" width="11" height="11" rx="2" ry="2" fill="#161b22"><title>0 on 2025-08-22</title></rect><rect x="437" y="102" width="11" height="11" rx="2" ry="2" fill="#161b22"><title>0 on 2025-08-23</title></rect><rect x="450" y="24" width="11" height="11" rx="2" ry="2" fill="#161b22"><title>0 on 2025-08-24</title></rect><rect x="450" y="37" width="11" height="11" rx="2" ry="2" fill="#161b22"><title>0 on 2025-08-25</title></rect><rect x="450" y="50" width="11" height="11" rx="2" ry="2" fill="#161b22"><title>0 on 2025-08-26</title></rect><rect x="450" y="63" width="11" height="11" rx="2" ry="2" fill="#161b22"><title>0 on 2025-08-27</title></rect><rect x="450" y="76" width="11" height="11" rx="2" ry="2" fill="#161b22"><title>0 on 2025-08-28</title></rect><rect x="450" y="89" width="11" height="11" rx="2" ry="2" fill="#161b22"><title>0 on 2025-08-29</title></rect><rect x="450" y="102" width="11" height="11" rx="2" ry="2" fill="#161b22"><title>0 on 2025-08-30</title></rect><rect x="463" y="24" width="11" height="11" rx="2" ry="2" fill="#161b22"><title>0 on 2025-08-31</title></rect><rect x="463" y="37" width="11" height="11" rx="2" ry="2" fill="#161b22"><title>0 on 2025-09-01</title></rect><rect x="463" y="50" width="11" height="11" rx="2" ry="2" fill="#161b22"><title>0 on 2025-09-02</title></rect><rect x="463" y="63" width="11" height="11" rx="2" ry="2" fill="#161b22"><title>0 on 2025-09-03</title></rect><rect x="463" y="76" width="11" height="11" rx="2" ry="2" fill="#161b22"><title>0 on 2025-09-04</title></rect><rect x="463" y="89" width="11" height="11" rx="2" ry="2" fill="#161b22"><title>0 on 2025-09-05</title></rect><rect x="463" y="102" width="11" height="11" rx="2" ry="2" fill="#161b22"><title>0 on 2025-09-06</title></rect><rect x="476" y="24" width="11" height="11" rx="2" ry="2" fill="#0e4429"><title>1 on 2025-09-07</title></rect><rect x="476" y="37" width="11" height="11" rx="2" ry="2" fill="#161b22"><title>0 on 2025-09-08</title></rect><rect x="476" y="50" width="11" height="11" rx="2" ry="2" fill="#161b22"><title>0 on 2025-09-09</title></rect><rect x="476" y="63" width="11" height="11" rx="2" ry="2" fill="#161b22"><title>0 on 2025-09-10</title></rect><rect x="476" y="76" width="11" height="11" rx="2" ry="2" fill="#161b22"><title>0 on 2025-09-11</title></rect><rect x="476" y="89" width="11" height="11" rx="2" ry="2" fill="#161b22"><title>0 on 2025-09-12</title></rect><rect x="476" y="102" width="11" height="11" rx="2" ry="2" fill="#161b22"><title>0 on 2025-09-13</title></rect><rect x="489" y="24" width="11" height="11" rx="2" ry="2" fill="#161b22"><title>0 on 2025-09-14</title></rect><rect x="489" y="37" width="11" height="11" rx="2" ry="2" fill="#161b22"><title>0 on 2025-09-15</title></rect><rect x="489" y="50" width="11" height="11" rx="2" ry="2" fill="#0e4429"><title>1 on 2025-09-16</title></rect><rect x="489" y="63" width="11" height="11" rx="2" ry="2" fill="#161b22"><title>0 on 2025-09-17</title></rect><rect x="489" y="76" width="11" height="11" rx="2" ry="2" fill="#161b22"><title>0 on 2025-09-18</title></rect><rect x="489" y="89" width="11" height="11" rx="2" ry="2" fill="#161b22"><title>0 on 2025-09-19</title></rect><rect x="489" y="102" width="11" height="11" rx="2" ry="2" fill="#161b22"><title>0 on 2025-09-20</title></rect><rect x="502" y="24" width="11" height="11" rx="2" ry="2" fill="#161b22"><title>0 on 2025-09-21</title></rect><rect x="502" y="37" width="11" height="11" rx="2" ry="2" fill="#161b22"><title>0 on 2025-09-22</title></rect><rect x="502" y="50" width="11" height="11" rx="2" ry="2" fill="#161b22"><title>0 on 2025-09-23</title></rect><rect x="502" y="63" width="11" height="11" rx="2" ry="2" fill="#161b22"><title>0 on 2025-09-24</title></rect><rect x="502" y="76" width="11" height="11" rx="2" ry="2" fill="#161b22"><title>0 on 2025-09-25</title></rect><rect x="502" y="89" width="11" height="11" rx="2" ry="2" fill="#161b22"><title>0 on 2025-09-26</title></rect><rect x="502" y="102" width="11" height="11" rx="2" ry="2" fill="#161b22"><title>0 on 2025-09-27</title></rect><rect x="515" y="24" width="11" height="11" rx="2" ry="2" fill="#161b22"><title>0 on 2025-09-28</title></rect><rect x="515" y="37" width="11" height="11" rx="2" ry="2" fill="#161b22"><title>0 on 2025-09-29</title></rect><rect x="515" y="50" width="11" height="11" rx="2" ry="2" fill="#161b22"><title>0 on 2025-09-30</title></rect><rect x="515" y="63" width="11" height="11" rx="2" ry="2" fill="#161b22"><title>0 on 2025-10-01</title></rect><rect x="515" y="76" width="11" height="11" rx="2" ry="2" fill="#161b22"><title>0 on 2025-10-02</title></rect><rect x="515" y="89" width="11" height="11" rx="2" ry="2" fill="#161b22"><title>0 on 2025-10-03</title></rect><rect x="515" y="102" width="11" height="11" rx="2" ry="2" fill="#161b22"><title>0 on 2025-10-04</title></rect><rect x="528" y="24" width="11" height="11" rx="2" ry="2" fill="#161b22"><title>0 on 2025-10-05</title></rect><rect x="528" y="37" width="11" height="11" rx="2" ry="2" fill="#161b22"><title>0 on 2025-10-06</title></rect><rect x="528" y="50" width="11" height="11" rx="2" ry="2" fill="#161b22"><title>0 on 2025-10-07</title></rect><rect x="528" y="63" width="11" height="11" rx="2" ry="2" fill="#0e4429"><title>1 on 2025-10-08</title></rect><rect x="528" y="76" width="11" height="11" rx="2" ry="2" fill="#161b22"><title>0 on 2025-10-09</title></rect><rect x="528" y="89" width="11" height="11" rx="2" ry="2" fill="#161b22"><title>0 on 2025-10-10</title></rect><rect x="528" y="102" width="11" height="11" rx="2" ry="2" fill="#161b22"><title>0 on 2025-10-11</title></rect><rect x="541" y="24" width="11" height="11" rx="2" ry="2" fill="#161b22"><title>0 on 2025-10-12</title></rect><rect x="541" y="37" width="11" height="11" rx="2" ry="2" fill="#161b22"><title>0 on 2025-10-13</title></rect><rect x="541" y="50" width="11" height="11" rx="2" ry="2" fill="#161b22"><title>0 on 2025-10-14</title></rect><rect x="541" y="63" width="11" height="11" rx="2" ry="2" fill="#161b22"><title>0 on 2025-10-15</title></rect><rect x="541" y="76" width="11" height="11" rx="2" ry="2" fill="#161b22"><title>0 on 2025-10-16</title></rect><rect x="541" y="89" width="11" height="11" rx="2" ry="2" fill="#161b22"><title>0 on 2025-10-17</title></rect><rect x="541" y="102" width="11" height="11" rx="2" ry="2" fill="#161b22"><title>0 on 2025-10-18</title></rect><rect x="554" y="24" width="11" height="11" rx="2" ry="2" fill="#161b22"><title>0 on 2025-10-19</title></rect><rect x="554" y="37" width="11" height="11" rx="2" ry="2" fill="#161b22"><title>0 on 2025-10-20</title></rect><rect x="554" y="50" width="11" height="11" rx="2" ry="2" fill="#161b22"><title>0 on 2025-10-21</title></rect><rect x="554" y="63" width="11" height="11" rx="2" ry="2" fill="#161b22"><title>0 on 2025-10-22</title></rect><rect x="554" y="76" width="11" height="11" rx="2" ry="2" fill="#161b22"><title>0 on 2025-10-23</title></rect><rect x="554" y="89" width="11" height="11" rx="2" ry="2" fill="#161b22"><title>0 on 2025-10-24</title></rect><rect x="554" y="102" width="11" height="11" rx="2" ry="2" fill="#161b22"><title>0 on 2025-10-25</title></rect><rect x="567" y="24" width="11" height="11" rx="2" ry="2" fill="#161b22"><title>0 on 2025-10-26</title></rect><rect x="567" y="37" width="11" height="11" rx="2" ry="2" fill="#161b22"><title>0 on 2025-10-27</title></rect><rect x="567" y="50" width="11" height="11" rx="2" ry="2" fill="#161b22"><title>0 on 2025-10-28</title></rect><rect x="567" y="63" width="11" height="11" rx="2" ry="2" fill="#161b22"><title>0 on 2025-10-29</title></rect><rect x="567" y="76" width="11" height="11" rx="2" ry="2" fill="#161b22"><title>0 on 2025-10-30</title></rect><rect x="567" y="89" width="11" height="11" rx="2" ry="2" fill="#161b22"><title>0 on 2025-10-31</title></rect><rect x="567" y="102" width="11" height="11" rx="2" ry="2" fill="#161b22"><title>0 on 2025-11-01</title></rect><rect x="580" y="24" width="11" height="11" rx="2" ry="2" fill="#161b22"><title>0 on 2025-11-02</title></rect><rect x="580" y="37" width="11" height="11" rx="2" ry="2" fill="#161b22"><title>0 on 2025-11-03</title></rect><rect x="580" y="50" width="11" height="11" rx="2" ry="2" fill="#161b22"><title>0 on 2025-11-04</title></rect><rect x="580" y="63" width="11" height="11" rx="2" ry="2" fill="#161b22"><title>0 on 2025-11-05</title></rect><rect x="580" y="76" width="11" height="11" rx="2" ry="2" fill="#161b22"><title>0 on 2025-11-06</title></rect><rect x="580" y="89" width="11" height="11" rx="2" ry="2" fill="#161b22"><title>0 on 2025-11-07</title></rect><rect x="580" y="102" width="11" height="11" rx="2" ry="2" fill="#161b22"><title>0 on 2025-11-08</title></rect><rect x="593" y="24" width="11" height="11" rx="2" ry="2" fill="#161b22"><title>0 on 2025-11-09</title></rect><rect x="593" y="37" width="11" height="11" rx="2" ry="2" fill="#161b22"><title>0 on 2025-11-10</title></rect><rect x="593" y="50" width="11" height="11" rx="2" ry="2" fill="#161b22"><title>0 on 2025-11-11</title></rect><rect x="593" y="63" width="11" height="11" rx="2" ry="2" fill="#0e4429"><title>1 on 2025-11-12</title></rect><rect x="593" y="76" width="11" height="11" rx="2" ry="2" fill="#161b22"><title>0 on 2025-11-13</title></rect><rect x="593" y="89" width="11" height="11" rx="2" ry="2" fill="#161b22"><title>0 on 2025-11-14</title></rect><rect x="593" y="102" width="11" height="11" rx="2" ry="2" fill="#0e4429"><title>1 on 2025-11-15</title></rect><rect x="606" y="24" width="11" height="11" rx="2" ry="2" fill="#161b22"><title>0 on 2025-11-16</title></rect><rect x="606" y="37" width="11" height="11" rx="2" ry="2" fill="#161b22"><title>0 on 2025-11-17</title></rect><rect x="606" y="50" width="11" height="11" rx="2" ry="2" fill="#161b22"><title>0 on 2025-11-18</title></rect><rect x="606" y="63" width="11" height="11" rx="2" ry="2" fill="#161b22"><title>0 on 2025-11-19</title></rect><rect x="606" y="76" width="11" height="11" rx="2" ry="2" fill="#0e4429"><title>1 on 2025-11-20</title></rect><rect x="606" y="89" width="11" height="11" rx="2" ry="2" fill="#161b22"><title>0 on 2025-11-21</title></rect><rect x="606" y="102" width="11" height="11" rx="2" ry="2" fill="#161b22"><title>0 on 2025-11-22</title></rect><rect x="619" y="24" width="11" height="11" rx="2" ry="2" fill="#161b22"><title>0 on 2025-11-23</title></rect><rect x="619" y="37" width="11" height="11" rx="2" ry="2" fill="#161b22"><title>0 on 2025-11-24</title></rect><rect x="619" y="50" width="11" height="11" rx="2" ry="2" fill="#161b22"><title>0 on 2025-11-25</title></rect><rect x="619" y="63" width="11" height="11" rx="2" ry="2" fill="#161b22"><title>0 on 2025-11-26</title></rect><rect x="619" y="76" width="11" height="11" rx="2" ry="2" fill="#161b22"><title>0 on 2025-11-27</title></rect><rect x="619" y="89" width="11" height="11" rx="2" ry="2" fill="#161b22"><title>0 on 2025-11-28</title></rect><rect x="619" y="102" width="11" height="11" rx="2" ry="2" fill="#161b22"><title>0 on 2025-11-29</title></rect><rect x="632" y="24" width="11" height="11" rx="2" ry="2" fill="#161b22"><title>0 on 2025-11-30</title></rect><rect x="632" y="37" width="11" height="11" rx="2" ry="2" fill="#161b22"><title>0 on 2025-12-01</title></rect><rect x="632" y="50" width="11" height="11" rx="2" ry="2" fill="#161b22"><title>0 on 2025-12-02</title></rect><rect x="632" y="63" width="11" height="11" rx="2" ry="2" fill="#161b22"><title>0 on 2025-12-03</title></rect><rect x="632" y="76" width="11" height="11" rx="2" ry="2" fill="#161b22"><title>0 on 2025-12-04</title></rect><rect x="632" y="89" width="11" height="11" rx="2" ry="2" fill="#161b22"><title>0 on 2025-12-05</title></rect><rect x="632" y="102" width="11" height="11" rx="2" ry="2" fill="#161b22"><title>0 on 2025-12-06</title></rect><rect x="645" y="24" width="11" height="11" rx="2" ry="2" fill="#161b22"><title>0 on 2025-12-07</title></rect><rect x="645" y="37" width="11" height="11" rx="2" ry="2" fill="#161b22"><title>0 on 2025-12-08</title></rect><rect x="645" y="50" width="11" height="11" rx="2" ry="2" fill="#161b22"><title>0 on 2025-12-09</title></rect><rect x="645" y="63" width="11" height="11" rx="2" ry="2" fill="#161b22"><title>0 on 2025-12-10</title></rect><rect x="645" y="76" width="11" height="11" rx="2" ry="2" fill="#161b22"><title>0 on 2025-12-11</title></rect><rect x="645" y="89" width="11" height="11" rx="2" ry="2" fill="#161b22"><title>0 on 2025-12-12</title></rect><rect x="645" y="102" width="11" height="11" rx="2" ry="2" fill="#161b22"><title>0 on 2025-12-13</title></rect><rect x="658" y="24" width="11" height="11" rx="2" ry="2" fill="#161b22"><title>0 on 2025-12-14</title></rect><rect x="658" y="37" width="11" height="11" rx="2" ry="2" fill="#161b22"><title>0 on 2025-12-15</title></rect><rect x="658" y="50" width="11" height="11" rx="2" ry="2" fill="#161b22"><title>0 on 2025-12-16</title></rect><rect x="658" y="63" width="11" height="11" rx="2" ry="2" fill="#161b22"><title>0 on 2025-12-17</title></rect><rect x="658" y="76" width="11" height="11" rx="2" ry="2" fill="#161b22"><title>0 on 2025-12-18</title></rect><rect x="658" y="89" width="11" height="11" rx="2" ry="2" fill="#161b22"><title>0 on 2025-12-19</title></rect><rect x="658" y="102" width="11" height="11" rx="2" ry="2" fill="#161b22"><title>0 on 2025-12-20</title></rect><rect x="671" y="24" width="11" height="11" rx="2" ry="2" fill="#161b22"><title>0 on 2025-12-21</title></rect><rect x="671" y="37" width="11" height="11" rx="2" ry="2" fill="#161b22"><title>0 on 2025-12-22</title></rect><rect x="671" y="50" width="11" height="11" rx="2" ry="2" fill="#161b22"><title>0 on 2025-12-23</title></rect><rect x="671" y="63" width="11" height="11" rx="2" ry="2" fill="#161b22"><title>0 on 2025-12-24</title></rect><rect x="671" y="76" width="11" height="11" rx="2" ry="2" fill="#161b22"><title>0 on 2025-12-25</title></rect><rect x="671" y="89" width="11" height="11" rx="2" ry="2" fill="#161b22"><title>0 on 2025-12-26</title></rect><rect x="671" y="102" width="11" height="11" rx="2" ry="2" fill="#161b22"><title>0 on 2025-12-27</title></rect><rect x="684" y="24" width="11" height="11" rx="2" ry="2" fill="#161b22"><title>0 on 2025-12-28</title></rect><rect x="684" y="37" width="11" height="11" rx="2" ry="2" fill="#161b22"><title>0 on 2025-12-29</title></rect><rect x="684" y="50" width="11" height="11" rx="2" ry="2" fill="#161b22"><title>0 on 2025-12-30</title></rect><rect x="684" y="63" width="11" height="11" rx="2" ry="2" fill="#161b22"><title>0 on 2025-12-31</title></rect></svg>