<svg xmlns="http://www.w3.org/2000/svg" viewBox="0 0 705 123" role="img" aria-label="AbdullahBakir97 contributions in 2023"><rect width="100%" height="100%" fill="#0d1117"/><style>text{font-family:-apple-system,Segoe UI,sans-serif;font-size:11px;fill:#8b949e}</style><text x="8" y="16"><tspan font-weight="600" fill="#c9d1d9">755</tspan> contributions in 2023</text><rect x="8" y="24" width="11" height="11" rx="2" ry="2" fill="#161b22"><title>0 on 2023-01-01</title></rect><rect x="8" y="37" width="11" height="11" rx="2" ry="2" fill="#161b22"><title>0 on 2023-01-02</title></rect><rect x="8" y="50" width="11" height="11" rx="2" ry="2" fill="#161b22"><title>0 on 2023-01-03</title></rect><rect x="8" y="63" width="11" height="11" rx="2" ry="2" fill="#161b22"><title>0 on 2023-01-04</title></rect><rect x="8" y="76" width="11" height="11" rx="2" ry="2" fill="#161b22"><title>0 on 2023-01-05</title></rect><rect x="8" y="89" width="11" height="11" rx="2" ry="2" fill="#161b22"><title>0 on 2023-01-06</title></rect><rect x="8" y="102" width="11" height="11" rx="2" ry="2" fill="#161b22"><title>0 on 2023-01-07</title></rect><rect x="21" y="24" width="11" height="11" rx="2" ry="2" fill="#161b22"><title>0 on 2023-01-08</title></rect><rect x="21" y="37" width="11" height="11" rx="2" ry="2" fill="#161b22"><title>0 on 2023-01-09</title></rect><rect x="21" y="50" width="11" height="11" rx="2" ry="2" fill="#161b22"><title>0 on 2023-01-10</title></rect><rect x="21" y="63" width="11" height="11" rx="2" ry="2" fill="#161b22"><title>0 on 2023-01-11</title></rect><rect x="21" y="76" width="11" height="11" rx="2" ry="2" fill="#161b22"><title>0 on 2023-01-12</title></rect><rect x="21" y="89" width="11" height="11" rx="2" ry="2" fill="#161b22"><title>0 on 2023-01-13</title></rect><rect x="21" y="102" width="11" height="11" rx="2" ry="2" fill="#161b22"><title>0 on 2023-01-14</title></rect><rect x="34" y="24" width="11" height="11" rx="2" ry="2" fill="#161b22"><title>0 on 2023-01-15</title></rect><rect x="34" y="37" width="11" height="11" rx="2" ry="2" fill="#161b22"><title>0 on 2023-01-16</title></rect><rect x="34" y="50" width="11" height="11" rx="2" ry="2" fill="#161b22"><title>0 on 2023-01-17</title></rect><rect x="34" y="63" width="11" height="11" rx="2" ry="2" fill="#161b22"><title>0 on 2023-01-18</title></rect><rect x="34" y="76" width="11" height="11" rx="2" ry="2" fill="#161b22"><title>0 on 2023-01-19</title></rect><rect x="34" y="89" width="11" height="11" rx="2" ry="2" fill="#161b22"><title>0 on 2023-01-20</title></rect><rect x="34" y="102" width="11" height="11" rx="2" ry="2" fill="#161b22"><title>0 on 2023-01-21</title></rect><rect x="47" y="24" width="11" height="11" rx="2" ry="2" fill="#161b22"><title>0 on 2023-01-22</title></rect><rect x="47" y="37" width="11" height="11" rx="2" ry="2" fill="#161b22"><title>0 on 2023-01-23</title></rect><rect x="47" y="50" width="11" height="11" rx="2" ry="2" fill="#161b22"><title>0 on 2023-01-24</title></rect><rect x="47" y="63" width="11" height="11" rx="2" ry="2" fill="#161b22"><title>0 on 2023-01-25</title></rect><rect x="47" y="76" width="11" height="11" rx="2" ry="2" fill="#161b22"><title>0 on 2023-01-26</title></rect><rect x="47" y="89" width="11" height="11" rx="2" ry="2" fill="#161b22"><title>0 on 2023-01-27</title></rect><rect x="47" y="102" width="11" height="11" rx="2" ry="2" fill="#161b22"><title>0 on 2023-01-28</title></rect><rect x="60" y="24" width="11" height="11" rx="2" ry="2" fill="#161b22"><title>0 on 2023-01-29</title></rect><rect x="60" y="37" width="11" height="11" rx="2" ry="2" fill="#161b22"><title>0 on 2023-01-30</title></rect><rect x="60" y="50" width="11" height="11" rx="2" ry="2" fill="#161b22"><title>0 on 2023-01-31</title></rect><rect x="60" y="63" width="11" height="11" rx="2" ry="2" fill="#161b22"><title>0 on 2023-02-01</title></rect><rect x="60" y="76" width="11" height="11" rx="2" ry="2" fill="#161b22"><title>0 on 2023-02-02</title></rect><rect x="60" y="89" width="11" height="11" rx="2" ry="2" fill="#161b22"><title>0 on 2023-02-03</title></rect><rect x="60" y="102" width="11" height="11" rx="2" ry="2" fill="#161b22"><title>0 on 2023-02-04</title></rect><rect x="73" y="24" width="11" height="11" rx="2" ry="2" fill="#161b22"><title>0 on 2023-02-05</title></rect><rect x="73" y="37" width="11" height="11" rx="2" ry="2" fill="#161b22"><title>0 on 2023-02-06</title></rect><rect x="73" y="50" width="11" height="11" rx="2" ry="2" fill="#161b22"><title>0 on 2023-02-07</title></rect><rect x="73" y="63" width="11" height="11" rx="2" ry="2" fill="#161b22"><title>0 on 2023-02-08</title></rect><rect x="73" y="76" width="11" height="11" rx="2" ry="2" fill="#161b22"><title>0 on 2023-02-09</title></rect><rect x="73" y="89" width="11" height="11" rx="2" ry="2" fill="#161b22"><title>0 on 2023-02-10</title></rect><rect x="73" y="102" width="11" height="11" rx="2" ry="2" fill="#161b22"><title>0 on 2023-02-11</title></rect><rect x="86" y="24" width="11" height="11" rx="2" ry="2" fill="#161b22"><title>0 on 2023-02-12</title></rect><rect x="86" y="37" width="11" height="11" rx="2" ry="2" fill="#161b22"><title>0 on 2023-02-13</title></rect><rect x="86" y="50" width="11" height="11" rx="2" ry="2" fill="#161b22"><title>0 on 2023-02-14</title></rect><rect x="86" y="63" width="11" height="11" rx="2" ry="2" fill="#161b22"><title>0 on 2023-02-15</title></rect><rect x="86" y="76" width="11" height="11" rx="2" ry="2" fill="#161b22"><title>0 on 2023-02-16</title></rect><rect x="86" y="89" width="11" height="11" rx="2" ry="2" fill="#161b22"><title>0 on 2023-02-17</title></rect><rect x="86" y="102" width="11" height="11" rx="2" ry="2" fill="#161b22"><title>0 on 2023-02-18</title></rect><rect x="99" y="24" width="11" height="11" rx="2" ry="2" fill="#161b22"><title>0 on 2023-02-19</title></rect><rect x="99" y="37" width="11" height="11" rx="2" ry="2" fill="#161b22"><title>0 on 2023-02-20</title></rect><rect x="99" y="50" width="11" height="11" rx="2" ry="2" fill="#161b22"><title>0 on 2023-02-21</title></rect><rect x="99" y="63" width="11" height="11" rx="2" ry="2" fill="#161b22"><title>0 on 2023-02-22</title></rect><rect x="99" y="76" width="11" height="11" rx="2" ry="2" fill="#161b22"><title>0 on 2023-02-23</title></rect><rect x="99" y="89" width="11" height="11" rx="2" ry="2" fill="#161b22"><title>0 on 2023-02-24</title></rect><rect x="99" y="102" width="11" height="11" rx="2" ry="2" fill="#161b22"><title>0 on 2023-02-25</title></rect><rect x="112" y="24" width="11" height="11" rx="2" ry="2" fill="#161b22"><title>0 on 2023-02-26</title></rect><rect x="112" y="37" width="11" height="11" rx="2" ry="2" fill="#161b22"><title>0 on 2023-02-27</title></rect><rect x="112" y="50" width="11" height="11" rx="2" ry="2" fill="#161b22"><title>0 on 2023-02-28</title></rect><rect x="112" y="63" width="11" height="11" rx="2" ry="2" fill="#161b22"><title>0 on 2023-03-01</title></rect><rect x="112" y="76" width="11" height="11" rx="2" ry="2" fill="#161b22"><title>0 on 2023-03-02</title></rect><rect x="112" y="89" width="11" height="11" rx="2" ry="2" fill="#161b22"><title>0 on 2023-03-03</title></rect><rect x="112" y="102" width="11" height="11" rx="2" ry="2" fill="#161b22"><title>0 on 2023-03-04</title></rect><rect x="125" y="24" width="11" height="11" rx="2" ry="2" fill="#161b22"><title>0 on 2023-03-05</title></rect><rect x="125" y="37" width="11" height="11" rx="2" ry="2" fill="#0e4429"><title>2 on 2023-03-06</title></rect><rect x="125" y="50" width="11" height="11" rx="2" ry="2" fill="#161b22"><title>0 on 2023-03-07</title></rect><rect x="125" y="63" width="11" height="11" rx="2" ry="2" fill="#161b22"><title>0 on 2023-03-08</title></rect><rect x="125" y="76" width="11" height="11" rx="2" ry="2" fill="#161b22"><title>0 on 2023-03-09</title></rect><rect x="125" y="89" width="11" height="11" rx="2" ry="2" fill="#0e4429"><title>3 on 2023-03-10</title></rect><rect x="125" y="102" width="11" height="11" rx="2" ry="2" fill="#0e4429"><title>1 on 2023-03-11</title></rect><rect x="138" y="24" width="11" height="11" rx="2" ry="2" fill="#161b22"><title>0 on 2023-03-12</title></rect><rect x="138" y="37" width="11" height="11" rx="2" ry="2" fill="#006d32"><title>4 on 2023-03-13</title></rect><rect x="138" y="50" width="11" height="11" rx="2" ry="2" fill="#161b22"><title>0 on 2023-03-14</title></rect><rect x="138" y="63" width="11" height="11" rx="2" ry="2" fill="#161b22"><title>0 on 2023-03-15</title></rect><rect x="138" y="76" width="11" height="11" rx="2" ry="2" fill="#161b22"><title>0 on 2023-03-16</title></rect><rect x="138" y="89" width="11" height="11" rx="2" ry="2" fill="#161b22"><title>0 on 2023-03-17</title></rect><rect x="138" y="102" width="11" height="11" rx="2" ry="2" fill="#161b22"><title>0 on 2023-03-18</title></rect><rect x="151" y="24" width="11" height="11" rx="2" ry="2" fill="#161b22"><title>0 on 2023-03-19</title></rect><rect x="151" y="37" width="11" height="11" rx="2" ry="2" fill="#161b22"><title>0 on 2023-03-20</title></rect><rect x="151" y="50" width="11" height="11" rx="2" ry="2" fill="#161b22"><title>0 on 2023-03-21</title></rect><rect x="151" y="63" width="11" height="11" rx="2" ry="2" fill="#161b22"><title>0 on 2023-03-22</title></rect><rect x="151" y="76" width="11" height="11" rx="2" ry="2" fill="#161b22"><title>0 on 2023-03-23</title></rect><rect x="151" y="89" width="11" height="11" rx="2" ry="2" fill="#161b22"><title>0 on 2023-03-24</title></rect><rect x="151" y="102" width="11" height="11" rx="2" ry="2" fill="#161b22"><title>0 on 2023-03-25</title></rect><rect x="164" y="24" width="11" height="11" rx="2" ry="2" fill="#161b22"><title>0 on 2023-03-26</title></rect><rect x="164" y="37" width="11" height="11" rx="2" ry="2" fill="#161b22"><title>0 on 2023-03-27</title></rect><rect x="164" y="50" width="11" height="11" rx="2" ry="2" fill="#161b22"><title>0 on 2023-03-28</title></rect><rect x="164" y="63" width="11" height="11" rx="2" ry="2" fill="#161b22"><title>0 on 2023-03-29</title></rect><rect x="164" y="76" width="11" height="11" rx="2" ry="2" fill="#161b22"><title>0 on 2023-03-30</title></rect><rect x="164" y="89" width="11" height="11" rx="2" ry="2" fill="#161b22"><title>0 on 2023-03-31</title></rect><rect x="164" y="102" width="11" height="11" rx="2" ry="2" fill="#161b22"><title>0 on 2023-04-01</title></rect><rect x="177" y="24" width="11" height="11" rx="2" ry="2" fill="#161b22"><title>0 on 2023-04-02</title></rect><rect x="177" y="37" width="11" height="11" rx="2" ry="2" fill="#161b22"><title>0 on 2023-04-03</title></rect><rect x="177" y="50" width="11" height="11" rx="2" ry="2" fill="#161b22"><title>0 on 2023-04-04</title></rect><rect x="177" y="63" width="11" height="11" rx="2" ry="2" fill="#161b22"><title>0 on 2023-04-05</title></rect><rect x="177" y="76" width="11" height="11" rx="2" ry="2" fill="#161b22"><title>0 on 2023-04-06</title></rect><rect x="177" y="89" width="11" height="11" rx="2" ry="2" fill="#161b22"><title>0 on 2023-04-07</title></rect><rect x="177" y="102" width="11" height="11" rx="2" ry="2" fill="#161b22"><title>0 on 2023-04-08</title></rect><rect x="190" y="24" width="11" height="11" rx="2" ry="2" fill="#161b22"><title>0 on 2023-04-09</title></rect><rect x="190" y="37" width="11" height="11" rx="2" ry="2" fill="#161b22"><title>0 on 2023-04-10</title></rect><rect x="190" y="50" width="11" height="11" rx="2" ry="2" fill="#161b22"><title>0 on 2023-04-11</title></rect><rect x="190" y="63" width="11" height="11" rx="2" ry="2" fill="#161b22"><title>0 on 2023-04-12</title></rect><rect x="190" y="76" width="11" height="11" rx="2" ry="2" fill="#161b22"><title>0 on 2023-04-13</title></rect><rect x="190" y="89" width="11" height="11" rx="2" ry="2" fill="#161b22"><title>0 on 2023-04-14</title></rect><rect x="190" y="102" width="11" height="11" rx="2" ry="2" fill="#161b22"><title>0 on 2023-04-15</title></rect><rect x="203" y="24" width="11" height="11" rx="2" ry="2" fill="#161b22"><title>0 on 2023-04-16</title></rect><rect x="203" y="37" width="11" height="11" rx="2" ry="2" fill="#161b22"><title>0 on 2023-04-17</title></rect><rect x="203" y="50" width="11" height="11" rx="2" ry="2" fill="#161b22"><title>0 on 2023-04-18</title></rect><rect x="203" y="63" width="11" height="11" rx="2" ry="2" fill="#161b22"><title>0 on 2023-04-19</title></rect><rect x="203" y="76" width="11" height="11" rx="2" ry="2" fill="#161b22"><title>0 on 2023-04-20</title></rect><rect x="203" y="89" width="11" height="11" rx="2" ry="2" fill="#161b22"><title>0 on 2023-04-21</title></rect><rect x="203" y="102" width="11" height="11" rx="2" ry="2" fill="#161b22"><title>0 on 2023-04-22</title></rect><rect x="216" y="24" width="11" height="11" rx="2" ry="2" fill="#161b22"><title>0 on 2023-04-23</title></rect><rect x="216" y="37" width="11" height="11" rx="2" ry="2" fill="#161b22"><title>0 on 2023-04-24</title></rect><rect x="216" y="50" width="11" height="11" rx="2" ry="2" fill="#161b22"><title>0 on 2023-04-25</title></rect><rect x="216" y="63" width="11" height="11" rx="2" ry="2" fill="#0e4429"><title>1 on 2023-04-26</title></rect><rect x="216" y="76" width="11" height="11" rx="2" ry="2" fill="#161b22"><title>0 on 2023-04-27</title></rect><rect x="216" y="89" width="11" height="11" rx="2" ry="2" fill="#26a641"><title>10 on 2023-04-28</title></rect><rect x="216" y="102" width="11" height="11" rx="2" ry="2" fill="#006d32"><title>4 on 2023-04-29</title></rect><rect x="229" y="24" width="11" height="11" rx="2" ry="2" fill="#161b22"><title>0 on 2023-04-30</title></rect><rect x="229" y="37" width="11" height="11" rx="2" ry="2" fill="#161b22"><title>0 on 2023-05-01</title></rect><rect x="229" y="50" width="11" height="11" rx="2" ry="2" fill="#161b22"><title>0 on 2023-05-02</title></rect><rect x="229" y="63" width="11" height="11" rx="2" ry="2" fill="#161b22"><title>0 on 2023-05-03</title></rect><rect x="229" y="76" width="11" height="11" rx="2" ry="2" fill="#161b22"><title>0 on 2023-05-04</title></rect><rect x="229" y="89" width="11" height="11" rx="2" ry="2" fill="#161b22"><title>0 on 2023-05-05</title></rect><rect x="229" y="102" width="11" height="11" rx="2" ry="2" fill="#161b22"><title>0 on 2023-05-06</title></rect><rect x="242" y="24" width="11" height="11" rx="2" ry="2" fill="#161b22"><title>0 on 2023-05-07</title></rect><rect x="242" y="37" width="11" height="11" rx="2" ry="2" fill="#161b22"><title>0 on 2023-05-08</title></rect><rect x="242" y="50" width="11" height="11" rx="2" ry="2" fill="#161b22"><title>0 on 2023-05-09</title></rect><rect x="242" y="63" width="11" height="11" rx="2" ry="2" fill="#161b22"><title>0 on 2023-05-10</title></rect><rect x="242" y="76" width="11" height="11" rx="2" ry="2" fill="#161b22"><title>0 on 2023-05-11</title></rect><rect x="242" y="89" width="11" height="11" rx="2" ry="2" fill="#161b22"><title>0 on 2023-05-12</title></rect><rect x="242" y="102" width="11" height="11" rx="2" ry="2" fill="#161b22"><title>0 on 2023-05-13</title></rect><rect x="255" y="24" width="11" height="11" rx="2" ry="2" fill="#161b22"><title>0 on 2023-05-14</title></rect><rect x="255" y="37" width="11" height="11" rx="2" ry="2" fill="#006d32"><title>4 on 2023-05-15</title></rect><rect x="255" y="50" width="11" height="11" rx="2" ry="2" fill="#216e39"><title>23 on 2023-05-16</title></rect><rect x="255" y="63" width="11" height="11" rx="2" ry="2" fill="#0e4429"><title>1 on 2023-05-17</title></rect><rect x="255" y="76" width="11" height="11" rx="2" ry="2" fill="#006d32"><title>6 on 2023-05-18</title></rect><rect x="255" y="89" width="11" height="11" rx="2" ry="2" fill="#006d32"><title>7 on 2023-05-19</title></rect><rect x="255" y="102" width="11" height="11" rx="2" ry="2" fill="#161b22"><title>0 on 2023-05-20</title></rect><rect x="268" y="24" width="11" height="11" rx="2" ry="2" fill="#161b22"><title>0 on 2023-05-21</title></rect><rect x="268" y="37" width="11" height="11" rx="2" ry="2" fill="#161b22"><title>0 on 2023-05-22</title></rect><rect x="268" y="50" width="11" height="11" rx="2" ry="2" fill="#161b22"><title>0 on 2023-05-23</title></rect><rect x="268" y="63" width="11" height="11" rx="2" ry="2" fill="#0e4429"><title>1 on 2023-05-24</title></rect><rect x="268" y="76" width="11" height="11" rx="2" ry="2" fill="#0e4429"><title>1 on 2023-05-25</title></rect><rect x="268" y="89" width="11" height="11" rx="2" ry="2" fill="#0e4429"><title>1 on 2023-05-26</title></rect><rect x="268" y="102" width="11" height="11" rx="2" ry="2" fill="#0e4429"><title>3 on 2023-05-27</title></rect><rect x="281" y="24" width="11" height="11" rx="2" ry="2" fill="#161b22"><title>0 on 2023-05-28</title></rect><rect x="281" y="37" width="11" height="11" rx="2" ry="2" fill="#161b22"><title>0 on 2023-05-29</title></rect><rect x="281" y="50" width="11" height="11" rx="2" ry="2" fill="#161b22"><title>0 on 2023-05-30</title></rect><rect x="281" y="63" width="11" height="11" rx="2" ry="2" fill="#161b22"><title>0 on 2023-05-31</title></rect><rect x="281" y="76" width="11" height="11" rx="2" ry="2" fill="#161b22"><title>0 on 2023-06-01</title></rect><rect x="281" y="89" width="11" height="11" rx="2" ry="2" fill="#161b22"><title>0 on 2023-06-02</title></rect><rect x="281" y="102" width="11" height="11" rx="2" ry="2" fill="#161b22"><title>0 on 2023-06-03</title></rect><rect x="294" y="24" width="11" height="11" rx="2" ry="2" fill="#161b22"><title>0 on 2023-06-04</title></rect><rect x="294" y="37" width="11" height="11" rx="2" ry="2" fill="#161b22"><title>0 on 2023-06-05</title></rect><rect x="294" y="50" width="11" height="11" rx="2" ry="2" fill="#26a641"><title>8 on 2023-06-06</title></rect><rect x="294" y="63" width="11" height="11" rx="2" ry="2" fill="#0e4429"><title>1 on 2023-06-07</title></rect><rect x="294" y="76" width="11" height="11" rx="2" ry="2" fill="#0e4429"><title>1 on 2023-06-08</title></rect><rect x="294" y="89" width="11" height="11" rx="2" ry="2" fill="#161b22"><title>0 on 2023-06-09</title></rect><rect x="294" y="102" width="11" height="11" rx="2" ry="2" fill="#161b22"><title>0 on 2023-06-10</title></rect><rect x="307" y="24" width="11" height="11" rx="2" ry="2" fill="#26a641"><title>9 on 2023-06-11</title></rect><rect x="307" y="37" width="11" height="11" rx="2" ry="2" fill="#161b22"><title>0 on 2023-06-12</title></rect><rect x="307" y="50" width="11" height="11" rx="2" ry="2" fill="#161b22"><title>0 on 2023-06-13</title></rect><rect x="307" y="63" width="11" height="11" rx="2" ry="2" fill="#161b22"><title>0 on 2023-06-14</title></rect><rect x="307" y="76" width="11" height="11" rx="2" ry="2" fill="#161b22"><title>0 on 2023-06-15</title></rect><rect x="307" y="89" width="11" height="11" rx="2" ry="2" fill="#006d32"><title>4 on 2023-06-16</title></rect><rect x="307" y="102" width="11" height="11" rx="2" ry="2" fill="#161b22"><title>0 on 2023-06-17</title></rect><rect x="320" y="24" width="11" height="11" rx="2" ry="2" fill="#161b22"><title>0 on 2023-06-18</title></rect><rect x="320" y="37" width="11" height="11" rx="2" ry="2" fill="#161b22"><title>0 on 2023-06-19</title></rect><rect x="320" y="50" width="11" height="11" rx="2" ry="2" fill="#161b22"><title>0 on 2023-06-20</title></rect><rect x="320" y="63" width="11" height="11" rx="2" ry="2" fill="#161b22"><title>0 on 2023-06-21</title></rect><rect x="320" y="76" width="11" height="11" rx="2" ry="2" fill="#161b22"><title>0 on 2023-06-22</title></rect><rect x="320" y="89" width="11" height="11" rx="2" ry="2" fill="#161b22"><title>0 on 2023-06-23</title></rect><rect x="320" y="102" width="11" height="11" rx="2" ry="2" fill="#161b22"><title>0 on 2023-06-24</title></rect><rect x="333" y="24" width="11" height="11" rx="2" ry="2" fill="#161b22"><title>0 on 2023-06-25</title></rect><rect x="333" y="37" width="11" height="11" rx="2" ry="2" fill="#161b22"><title>0 on 2023-06-26</title></rect><rect x="333" y="50" width="11" height="11" rx="2" ry="2" fill="#161b22"><title>0 on 2023-06-27</title></rect><rect x="333" y="63" width="11" height="11" rx="2" ry="2" fill="#161b22"><title>0 on 2023-06-28</title></rect><rect x="333" y="76" width="11" height="11" rx="2" ry="2" fill="#161b22"><title>0 on 2023-06-29</title></rect><rect x="333" y="89" width="11" height="11" rx="2" ry="2" fill="#161b22"><title>0 on 2023-06-30</title></rect><rect x="333" y="102" width="11" height="11" rx="2" ry="2" fill="#161b22"><title>0 on 2023-07-01</title></rect><rect x="346" y="24" width="11" height="11" rx="2" ry="2" fill="#161b22"><title>0 on 2023-07-02</title></rect><rect x="346" y="37" width="11" height="11" rx="2" ry="2" fill="#161b22"><title>0 on 2023-07-03</title></rect><rect x="346" y="50" width="11" height="11" rx="2" ry="2" fill="#161b22"><title>0 on 2023-07-04</title></rect><rect x="346" y="63" width="11" height="11" rx="2" ry="2" fill="#161b22"><title>0 on 2023-07-05</title></rect><rect x="346" y="76" width="11" height="11" rx="2" ry="2" fill="#161b22"><title>0 on 2023-07-06</title></rect><rect x="346" y="89" width="11" height="11" rx="2" ry="2" fill="#0e4429"><title>2 on 2023-07-07</title></rect><rect x="346" y="102" width="11" height="11" rx="2" ry="2" fill="#0e4429"><title>3 on 2023-07-08</title></rect><rect x="359" y="24" width="11" height="11" rx="2" ry="2" fill="#161b22"><title>0 on 2023-07-09</title></rect><rect x="359" y="37" width="11" height="11" rx="2" ry="2" fill="#0e4429"><title>1 on 2023-07-10</title></rect><rect x="359" y="50" width="11" height="11" rx="2" ry="2" fill="#161b22"><title>0 on 2023-07-11</title></rect><rect x="359" y="63" width="11" height="11" rx="2" ry="2" fill="#161b22"><title>0 on 2023-07-12</title></rect><rect x="359" y="76" width="11" height="11" rx="2" ry="2" fill="#161b22"><title>0 on 2023-07-13</title></rect><rect x="359" y="89" width="11" height="11" rx="2" ry="2" fill="#161b22"><title>0 on 2023-07-14</title></rect><rect x="359" y="102" width="11" height="11" rx="2" ry="2" fill="#161b22"><title>0 on 2023-07-15</title></rect><rect x="372" y="24" width="11" height="11" rx="2" ry="2" fill="#161b22"><title>0 on 2023-07-16</title></rect><rect x="372" y="37" width="11" height="11" rx="2" ry="2" fill="#0e4429"><title>1 on 2023-07-17</title></rect><rect x="372" y="50" width="11" height="11" rx="2" ry="2" fill="#161b22"><title>0 on 2023-07-18</title></rect><rect x="372" y="63" width="11" height="11" rx="2" ry="2" fill="#161b22"><title>0 on 2023-07-19</title></rect><rect x="372" y="76" width="11" height="11" rx="2" ry="2" fill="#161b22"><title>0 on 2023-07-20</title></rect><rect x="372" y="89" width="11" height="11" rx="2" ry="2" fill="#161b22"><title>0 on 2023-07-21</title></rect><rect x="372" y="102" width="11" height="11" rx="2" ry="2" fill="#161b22"><title>0 on 2023-07-22</title></rect><rect x="385" y="24" width="11" height="11" rx="2" ry="2" fill="#161b22"><title>0 on 2023-07-23</title></rect><rect x="385" y="37" width="11" height="11" rx="2" ry="2" fill="#006d32"><title>4 on 2023-07-24</title></rect><rect x="385" y="50" width="11" height="11" rx="2" ry="2" fill="#161b22"><title>0 on 2023-07-25</title></rect><rect x="385" y="63" width="11" height="11" rx="2" ry="2" fill="#161b22"><title>0 on 2023-07-26</title></rect><rect x="385" y="76" width="11" height="11" rx="2" ry="2" fill="#161b22"><title>0 on 2023-07-27</title></rect><rect x="385" y="89" width="11" height="11" rx="2" ry="2" fill="#006d32"><title>7 on 2023-07-28</title></rect><rect x="385" y="102" width="11" height="11" rx="2" ry="2" fill="#161b22"><title>0 on 2023-07-29</title></rect><rect x="398" y="24" width="11" height="11" rx="2" ry="2" fill="#161b22"><title>0 on 2023-07-30</title></rect><rect x="398" y="37" width="11" height="11" rx="2" ry="2" fill="#0e4429"><title>2 on 2023-07-31</title></rect><rect x="398" y="50" width="11" height="11" rx="2" ry="2" fill="#161b22"><title>0 on 2023-08-01</title></rect><rect x="398" y="63" width="11" height="11" rx="2" ry="2" fill="#161b22"><title>0 on 2023-08-02</title></rect><rect x="398" y="76" width="11" height="11" rx="2" ry="2" fill="#161b22"><title>0 on 2023-08-03</title></rect><rect x="398" y="89" width="11" height="11" rx="2" ry="2" fill="#30a14e"><title>15 on 2023-08-04</title></rect><rect x="398" y="102" width="11" height="11" rx="2" ry="2" fill="#0e4429"><title>1 on 2023-08-05</title></rect><rect x="411" y="24" width="11" height="11" rx="2" ry="2" fill="#161b22"><title>0 on 2023-08-06</title></rect><rect x="411" y="37" width="11" height="11" rx="2" ry="2" fill="#161b22"><title>0 on 2023-08-07</title></rect><rect x="411" y="50" width="11" height="11" rx="2" ry="2" fill="#161b22"><title>0 on 2023-08-08</title></rect><rect x="411" y="63" width="11" height="11" rx="2" ry="2" fill="#161b22"><title>0 on 2023-08-09</title></rect><rect x="411" y="76" width="11" height="11" rx="2" ry="2" fill="#161b22"><title>0 on 2023-08-10</title></rect><rect x="411" y="89" width="11" height="11" rx="2" ry="2" fill="#161b22"><title>0 on 2023-08-11</title></rect><rect x="411" y="102" width="11" height="11" rx="2" ry="2" fill="#161b22"><title>0 on 2023-08-12</title></rect><rect x="424" y="24" width="11" height="11" rx="2" ry="2" fill="#161b22"><title>0 on 2023-08-13</title></rect><rect x="424" y="37" width="11" height="11" rx="2" ry="2" fill="#161b22"><title>0 on 2023-08-14</title></rect><rect x="424" y="50" width="11" height="11" rx="2" ry="2" fill="#161b22"><title>0 on 2023-08-15</title></rect><rect x="424" y="63" width="11" height="11" rx="2" ry="2" fill="#161b22"><title>0 on 2023-08-16</title></rect><rect x="424" y="76" width="11" height="11" rx="2" ry="2" fill="#161b22"><title>0 on 2023-08-17</title></rect><rect x="424" y="89" width="11" height="11" rx="2" ry="2" fill="#161b22"><title>0 on 2023-08-18</title></rect><rect x="424" y="102" width="11" height="11" rx="2" ry="2" fill="#0e4429"><title>1 on 2023-08-19</title></rect><rect x="437" y="24" width="11" height="11" rx="2" ry="2" fill="#006d32"><title>6 on 2023-08-20</title></rect><rect x="437" y="37" width="11" height="11" rx="2" ry="2" fill="#0e4429"><title>1 on 2023-08-21</title></rect><rect x="437" y="50" width="11" height="11" rx="2" ry="2" fill="#161b22"><title>0 on 2023-08-22</title></rect><rect x="437" y="63" width="11" height="11" rx="2" ry="2" fill="#161b22"><title>0 on 2023-08-23</title></rect><rect x="437" y="76" width="11" height="11" rx="2" ry="2" fill="#161b22"><title>0 on 2023-08-24</title></rect><rect x="437" y="89" width="11" height="11" rx="2" ry="2" fill="#006d32"><title>5 on 2023-08-25</title></rect><rect x="437" y="102" width="11" height="11" rx="2" ry="2" fill="#0e4429"><title>1 on 2023-08-26</title></rect><rect x="450" y="24" width="11" height="11" rx="2" ry="2" fill="#161b22"><title>0 on 2023-08-27</title></rect><rect x="450" y="37" width="11" height="11" rx="2" ry="2" fill="#26a641"><title>9 on 2023-08-28</title></rect><rect x="450" y="50" width="11" height="11" rx="2" ry="2" fill="#161b22"><title>0 on 2023-08-29</title></rect><rect x="450" y="63" width="11" height="11" rx="2" ry="2" fill="#0e4429"><title>2 on 2023-08-30</title></rect><rect x="450" y="76" width="11" height="11" rx="2" ry="2" fill="#161b22"><title>0 on 2023-08-31</title></rect><rect x="450" y="89" width="11" height="11" rx="2" ry="2" fill="#0e4429"><title>1 on 2023-09-01</title></rect><rect x="450" y="102" width="11" height="11" rx="2" ry="2" fill="#0e4429"><title>3 on 2023-09-02</title></rect><rect x="463" y="24" width="11" height="11" rx="2" ry="2" fill="#161b22"><title>0 on 2023-09-03</title></rect><rect x="463" y="37" width="11" height="11" rx="2" ry="2" fill="#161b22"><title>0 on 2023-09-04</title></rect><rect x="463" y="50" width="11" height="11" rx="2" ry="2" fill="#161b22"><title>0 on 2023-09-05</title></rect><rect x="463" y="63" width="11" height="11" rx="2" ry="2" fill="#161b22"><title>0 on 2023-09-06</title></rect><rect x="463" y="76" width="11" height="11" rx="2" ry="2" fill="#161b22"><title>0 on 2023-09-07</title></rect><rect x="463" y="89" width="11" height="11" rx="2" ry="2" fill="#0e4429"><title>3 on 2023-09-08</title></rect><rect x="463" y="102" width="11" height="11" rx="2" ry="2" fill="#006d32"><title>6 on 2023-09-09</title></rect><rect x="476" y="24" width="11" height="11" rx="2" ry="2" fill="#0e4429"><title>2 on 2023-09-10</title></rect><rect x="476" y="37" width="11" height="11" rx="2" ry="2" fill="#0e4429"><title>1 on 2023-09-11</title></rect><rect x="476" y="50" width="11" height="11" rx="2" ry="2" fill="#006d32"><title>4 on 2023-09-12</title></rect><rect x="476" y="63" width="11" height="11" rx="2" ry="2" fill="#161b22"><title>0 on 2023-09-13</title></rect><rect x="476" y="76" width="11" height="11" rx="2" ry="2" fill="#161b22"><title>0 on 2023-09-14</title></rect><rect x="476" y="89" width="11" height="11" rx="2" ry="2" fill="#006d32"><title>5 on 2023-09-15</title></rect><rect x="476" y="102" width="11" height="11" rx="2" ry="2" fill="#0e4429"><title>2 on 2023-09-16</title></rect><rect x="489" y="24" width="11" height="11" rx="2" ry="2" fill="#161b22"><title>0 on 2023-09-17</title></rect><rect x="489" y="37" width="11" height="11" rx="2" ry="2" fill="#161b22"><title>0 on 2023-09-18</title></rect><rect x="489" y="50" width="11" height="11" rx="2" ry="2" fill="#26a641"><title>11 on 2023-09-19</title></rect><rect x="489" y="63" width="11" height="11" rx="2" ry="2" fill="#0e4429"><title>2 on 2023-09-20</title></rect><rect x="489" y="76" width="11" height="11" rx="2" ry="2" fill="#161b22"><title>0 on 2023-09-21</title></rect><rect x="489" y="89" width="11" height="11" rx="2" ry="2" fill="#0e4429"><title>1 on 2023-09-22</title></rect><rect x="489" y="102" width="11" height="11" rx="2" ry="2" fill="#161b22"><title>0 on 2023-09-23</title></rect><rect x="502" y="24" width="11" height="11" rx="2" ry="2" fill="#161b22"><title>0 on 2023-09-24</title></rect><rect x="502" y="37" width="11" height="11" rx="2" ry="2" fill="#26a641"><title>9 on 2023-09-25</title></rect><rect x="502" y="50" width="11" height="11" rx="2" ry="2" fill="#0e4429"><title>1 on 2023-09-26</title></rect><rect x="502" y="63" width="11" height="11" rx="2" ry="2" fill="#0e4429"><title>1 on 2023-09-27</title></rect><rect x="502" y="76" width="11" height="11" rx="2" ry="2" fill="#161b22"><title>0 on 2023-09-28</title></rect><rect x="502" y="89" width="11" height="11" rx="2" ry="2" fill="#006d32"><title>4 on 2023-09-29</title></rect><rect x="502" y="102" width="11" height="11" rx="2" ry="2" fill="#0e4429"><title>2 on 2023-09-30</title></rect><rect x="515" y="24" width="11" height="11" rx="2" ry="2" fill="#0e4429"><title>1 on 2023-10-01</title></rect><rect x="515" y="37" width="11" height="11" rx="2" ry="2" fill="#26a641"><title>8 on 2023-10-02</title></rect><rect x="515" y="50" width="11" height="11" rx="2" ry="2" fill="#161b22"><title>0 on 2023-10-03</title></rect><rect x="515" y="63" width="11" height="11" rx="2" ry="2" fill="#0e4429"><title>2 on 2023-10-04</title></rect><rect x="515" y="76" width="11" height="11" rx="2" ry="2" fill="#161b22"><title>0 on 2023-10-05</title></rect><rect x="515" y="89" width="11" height="11" rx="2" ry="2" fill="#0e4429"><title>1 on 2023-10-06</title></rect><rect x="515" y="102" width="11" height="11" rx="2" ry="2" fill="#161b22"><title>0 on 2023-10-07</title></rect><rect x="528" y="24" width="11" height="11" rx="2" ry="2" fill="#0e4429"><title>1 on 2023-10-08</title></rect><rect x="528" y="37" width="11" height="11" rx="2" ry="2" fill="#161b22"><title>0 on 2023-10-09</title></rect><rect x="528" y="50" width="11" height="11" rx="2" ry="2" fill="#161b22"><title>0 on 2023-10-10</title></rect><rect x="528" y="63" width="11" height="11" rx="2" ry="2" fill="#006d32"><title>5 on 2023-10-11</title></rect><rect x="528" y="76" width="11" height="11" rx="2" ry="2" fill="#161b22"><title>0 on 2023-10-12</title></rect><rect x="528" y="89" width="11" height="11" rx="2" ry="2" fill="#006d32"><title>5 on 2023-10-13</title></rect><rect x="528" y="102" width="11" height="11" rx="2" ry="2" fill="#0e4429"><title>2 on 2023-10-14</title></rect><rect x="541" y="24" width="11" height="11" rx="2" ry="2" fill="#161b22"><title>0 on 2023-10-15</title></rect><rect x="541" y="37" width="11" height="11" rx="2" ry="2" fill="#0e4429"><title>3 on 2023-10-16</title></rect><rect x="541" y="50" width="11" height="11" rx="2" ry="2" fill="#0e4429"><title>1 on 2023-10-17</title></rect><rect x="541" y="63" width="11" height="11" rx="2" ry="2" fill="#161b22"><title>0 on 2023-10-18</title></rect><rect x="541" y="76" width="11" height="11" rx="2" ry="2" fill="#0e4429"><title>1 on 2023-10-19</title></rect><rect x="541" y="89" width="11" height="11" rx="2" ry="2" fill="#161b22"><title>0 on 2023-10-20</title></rect><rect x="541" y="102" width="11" height="11" rx="2" ry="2" fill="#161b22"><title>0 on 2023-10-21</title></rect><rect x="554" y="24" width="11" height="11" rx="2" ry="2" fill="#161b22"><title>0 on 2023-10-22</title></rect><rect x="554" y="37" width="11" height="11" rx="2" ry="2" fill="#006d32"><title>4 on 2023-10-23</title></rect><rect x="554" y="50" width="11" height="11" rx="2" ry="2" fill="#0e4429"><title>1 on 2023-10-24</title></rect><rect x="554" y="63" width="11" height="11" rx="2" ry="2" fill="#161b22"><title>0 on 2023-10-25</title></rect><rect x="554" y="76" width="11" height="11" rx="2" ry="2" fill="#161b22"><title>0 on 2023-10-26</title></rect><rect x="554" y="89" width="11" height="11" rx="2" ry="2" fill="#0e4429"><title>3 on 2023-10-27</title></rect><rect x="554" y="102" width="11" height="11" rx="2" ry="2" fill="#161b22"><title>0 on 2023-10-28</title></rect><rect x="567" y="24" width="11" height="11" rx="2" ry="2" fill="#0e4429"><title>1 on 2023-10-29</title></rect><rect x="567" y="37" width="11" height="11" rx="2" ry="2" fill="#30a14e"><title>18 on 2023-10-30</title></rect><rect x="567" y="50" width="11" height="11" rx="2" ry="2" fill="#0e4429"><title>1 on 2023-10-31</title></rect><rect x="567" y="63" width="11" height="11" rx="2" ry="2" fill="#0e4429"><title>3 on 2023-11-01</title></rect><rect x="567" y="76" width="11" height="11" rx="2" ry="2" fill="#0e4429"><title>1 on 2023-11-02</title></rect><rect x="567" y="89" width="11" height="11" rx="2" ry="2" fill="#0e4429"><title>1 on 2023-11-03</title></rect><rect x="567" y="102" width="11" height="11" rx="2" ry="2" fill="#0e4429"><title>2 on 2023-11-04</title></rect><rect x="580" y="24" width="11" height="11" rx="2" ry="2" fill="#216e39"><title>54 on 2023-11-05</title></rect><rect x="580" y="37" width="11" height="11" rx="2" ry="2" fill="#30a14e"><title>20 on 2023-11-06</title></rect><rect x="580" y="50" width="11" height="11" rx="2" ry="2" fill="#0e4429"><title>2 on 2023-11-07</title></rect><rect x="580" y="63" width="11" height="11" rx="2" ry="2" fill="#40c463"><title>13 on 2023-11-08</title></rect><rect x="580" y="76" width="11" height="11" rx="2" ry="2" fill="#0e4429"><title>1 on 2023-11-09</title></rect><rect x="580" y="89" width="11" height="11" rx="2" ry="2" fill="#26a641"><title>8 on 2023-11-10</title></rect><rect x="580" y="102" width="11" height="11" rx="2" ry="2" fill="#0e4429"><title>1 on 2023-11-11</title></rect><rect x="593" y="24" width="11" height="11" rx="2" ry="2" fill="#0e4429"><title>1 on 2023-11-12</title></rect><rect x="593" y="37" width="11" height="11" rx="2" ry="2" fill="#0e4429"><title>1 on 2023-11-13</title></rect><rect x="593" y="50" width="11" height="11" rx="2" ry="2" fill="#0e4429"><title>1 on 2023-11-14</title></rect><rect x="593" y="63" width="11" height="11" rx="2" ry="2" fill="#0e4429"><title>3 on 2023-11-15</title></rect><rect x="593" y="76" width="11" height="11" rx="2" ry="2" fill="#0e4429"><title>1 on 2023-11-16</title></rect><rect x="593" y="89" width="11" height="11" rx="2" ry="2" fill="#40c463"><title>12 on 2023-11-17</title></rect><rect x="593" y="102" width="11" height="11" rx="2" ry="2" fill="#0e4429"><title>1 on 2023-11-18</title></rect><rect x="606" y="24" width="11" height="11" rx="2" ry="2" fill="#161b22"><title>0 on 2023-11-19</title></rect><rect x="606" y="37" width="11" height="11" rx="2" ry="2" fill="#006d32"><title>7 on 2023-11-20</title></rect><rect x="606" y="50" width="11" height="11" rx="2" ry="2" fill="#006d32"><title>4 on 2023-11-21</title></rect><rect x="606" y="63" width="11" height="11" rx="2" ry="2" fill="#161b22"><title>0 on 2023-11-22</title></rect><rect x="606" y="76" width="11" height="11" rx="2" ry="2" fill="#161b22"><title>0 on 2023-11-23</title></rect><rect x="606" y="89" width="11" height="11" rx="2" ry="2" fill="#0e4429"><title>2 on 2023-11-24</title></rect><rect x="606" y="102" width="11" height="11" rx="2" ry="2" fill="#006d32"><title>4 on 2023-11-25</title></rect><rect x="619" y="24" width="11" height="11" rx="2" ry="2" fill="#006d32"><title>4 on 2023-11-26</title></rect><rect x="619" y="37" width="11" height="11" rx="2" ry="2" fill="#0e4429"><title>2 on 2023-11-27</title></rect><rect x="619" y="50" width="11" height="11" rx="2" ry="2" fill="#161b22"><title>0 on 2023-11-28</title></rect><rect x="619" y="63" width="11" height="11" rx="2" ry="2" fill="#0e4429"><title>2 on 2023-11-29</title></rect><rect x="619" y="76" width="11" height="11" rx="2" ry="2" fill="#0e4429"><title>1 on 2023-11-30</title></rect><rect x="619" y="89" width="11" height="11" rx="2" ry="2" fill="#006d32"><title>6 on 2023-12-01</title></rect><rect x="619" y="102" width="11" height="11" rx="2" ry="2" fill="#0e4429"><title>1 on 2023-12-02</title></rect><rect x="632" y="24" width="11" height="11" rx="2" ry="2" fill="#161b22"><title>0 on 2023-12-03</title></rect><rect x="632" y="37" width="11" height="11" rx="2" ry="2" fill="#0e4429"><title>1 on 2023-12-04</title></rect><rect x="632" y="50" width="11" height="11" rx="2" ry="2" fill="#161b22"><title>0 on 2023-12-05</title></rect><rect x="632" y="63" width="11" height="11" rx="2" ry="2" fill="#161b22"><title>0 on 2023-12-06</title></rect><rect x="632" y="76" width="11" height="11" rx="2" ry="2" fill="#0e4429"><title>1 on 2023-12-07</title></rect><rect x="632" y="89" width="11" height="11" rx="2" ry="2" fill="#006d32"><title>5 on 2023-12-08</title></rect><rect x="632" y="102" width="11" height="11" rx="2" ry="2" fill="#216e39"><title>47 on 2023-12-09</title></rect><rect x="645" y="24" width="11" height="11" rx="2" ry="2" fill="#0e4429"><title>1 on 2023-12-10</title></rect><rect x="645" y="37" width="11" height="11" rx="2" ry="2" fill="#26a641"><title>11 on 2023-12-11</title></rect><rect x="645" y="50" width="11" height="11" rx="2" ry="2" fill="#30a14e"><title>15 on 2023-12-12</title></rect><rect x="645" y="63" width="11" height="11" rx="2" ry="2" fill="#161b22"><title>0 on 2023-12-13</title></rect><rect x="645" y="76" width="11" height="11" rx="2" ry="2" fill="#161b22"><title>0 on 2023-12-14</title></rect><rect x="645" y="89" width="11" height="11" rx="2" ry="2" fill="#0e4429"><title>1 on 2023-12-15</title></rect><rect x="645" y="102" width="11" height="11" rx="2" ry="2" fill="#0e4429"><title>1 on 2023-12-16</title></rect><rect x="658" y="24" width="11" height="11" rx="2" ry="2" fill="#0e4429"><title>3 on 2023-12-17</title></rect><rect x="658" y="37" width="11" height="11" rx="2" ry="2" fill="#0e4429"><title>1 on 2023-12-18</title></rect><rect x="658" y="50" width="11" height="11" rx="2" ry="2" fill="#161b22"><title>0 on 2023-12-19</title></rect><rect x="658" y="63" width="11" height="11" rx="2" ry="2" fill="#161b22"><title>0 on 2023-12-20</title></rect><rect x="658" y="76" width="11" height="11" rx="2" ry="2" fill="#161b22"><title>0 on 2023-12-21</title></rect><rect x="658" y="89" width="11" height="11" rx="2" ry="2" fill="#0e4429"><title>1 on 2023-12-22</title></rect><rect x="658" y="102" width="11" height="11" rx="2" ry="2" fill="#161b22"><title>0 on 2023-12-23</title></rect><rect x="671" y="24" width="11" height="11" rx="2" ry="2" fill="#161b22"><title>0 on 2023-12-24</title></rect><rect x="671" y="37" width="11" height="11" rx="2" ry="2" fill="#006d32"><title>4 on 2023-12-25</title></rect><rect x="671" y="50" width="11" height="11" rx="2" ry="2" fill="#161b22"><title>0 on 2023-12-26</title></rect><rect x="671" y="63" width="11" height="11" rx="2" ry="2" fill="#216e39"><title>28 on 2023-12-27</title></rect><rect x="671" y="76" width="11" height="11" rx="2" ry="2" fill="#216e39"><title>191 on 2023-12-28</title></rect><rect x="671" y="89" width="11" height="11" rx="2" ry="2" fill="#26a641"><title>11 on 2023-12-29</title></rect><rect x="671" y="102" width="11" height="11" rx="2" ry="2" fill="#0e4429"><title>2 on 2023-12-30</title></rect><rect x="684" y="24" width="11" height="11" rx="2" ry="2" fill="#161b22"><title>0 on 2023-12-31</title></rect></svg>