<svg xmlns="http://www.w3.org/2000/svg" viewBox="0 0 276 123" role="img" aria-label="AbdullahBakir97 contributions in 2026"><rect width="100%" height="100%" fill="#0d1117"/><style>text{font-family:-apple-system,Segoe UI,sans-serif;font-size:11px;fill:#8b949e}</style><text x="8" y="16"><tspan font-weight="600" fill="#c9d1d9">666</tspan> contributions in 2026</text><rect x="8" y="76" width="11" height="11" rx="2" ry="2" fill="#161b22"><title>0 on 2026-01-01</title></rect><rect x="8" y="89" width="11" height="11" rx="2" ry="2" fill="#161b22"><title>0 on 2026-01-02</title></rect><rect x="8" y="102" width="11" height="11" rx="2" ry="2" fill="#161b22"><title>0 on 2026-01-03</title></rect><rect x="21" y="24" width="11" height="11" rx="2" ry="2" fill="#161b22"><title>0 on 2026-01-04</title></rect><rect x="21" y="37" width="11" height="11" rx="2" ry="2" fill="#161b22"><title>0 on 2026-01-05</title></rect><rect x="21" y="50" width="11" height="11" rx="2" ry="2" fill="#161b22"><title>0 on 2026-01-06</title></rect><rect x="21" y="63" width="11" height="11" rx="2" ry="2" fill="#161b22"><title>0 on 2026-01-07</title></rect><rect x="21" y="76" width="11" height="11" rx="2" ry="2" fill="#161b22"><title>0 on 2026-01-08</title></rect><rect x="21" y="89" width="11" height="11" rx="2" ry="2" fill="#161b22"><title>0 on 2026-01-09</title></rect><rect x="21" y="102" width="11" height="11" rx="2" ry="2" fill="#161b22"><title>0 on 2026-01-10</title></rect><rect x="34" y="24" width="11" height="11" rx="2" ry="2" fill="#161b22"><title>0 on 2026-01-11</title></rect><rect x="34" y="37" width="11" height="11" rx="2" ry="2" fill="#161b22"><title>0 on 2026-01-12</title></rect><rect x="34" y="50" width="11" height="11" rx="2" ry="2" fill="#161b22"><title>0 on 2026-01-13</title></rect><rect x="34" y="63" width="11" height="11" rx="2" ry="2" fill="#161b22"><title>0 on 2026-01-14</title></rect><rect x="34" y="76" width="11" height="11" rx="2" ry="2" fill="#161b22"><title>0 on 2026-01-15</title></rect><rect x="34" y="89" width="11" height="11" rx="2" ry="2" fill="#161b22"><title>0 on 2026-01-16</title></rect><rect x="34" y="102" width="11" height="11" rx="2" ry="2" fill="#161b22"><title>0 on 2026-01-17</title></rect><rect x="47" y="24" width="11" height="11" rx="2" ry="2" fill="#161b22"><title>0 on 2026-01-18</title></rect><rect x="47" y="37" width="11" height="11" rx="2" ry="2" fill="#161b22"><title>0 on 2026-01-19</title></rect><rect x="47" y="50" width="11" height="11" rx="2" ry="2" fill="#161b22"><title>0 on 2026-01-20</title></rect><rect x="47" y="63" width="11" height="11" rx="2" ry="2" fill="#006d32"><title>5 on 2026-01-21</title></rect><rect x="47" y="76" width="11" height="11" rx="2" ry="2" fill="#0e4429"><title>1 on 2026-01-22</title></rect><rect x="47" y="89" width="11" height="11" rx="2" ry="2" fill="#006d32"><title>4 on 2026-01-23</title></rect><rect x="47" y="102" width="11" height="11" rx="2" ry="2" fill="#161b22"><title>0 on 2026-01-24</title></rect><rect x="60" y="24" width="11" height="11" rx="2" ry="2" fill="#161b22"><title>0 on 2026-01-25</title></rect><rect x="60" y="37" width="11" height="11" rx="2" ry="2" fill="#0e4429"><title>3 on 2026-01-26</title></rect><rect x="60" y="50" width="11" height="11" rx="2" ry="2" fill="#161b22"><title>0 on 2026-01-27</title></rect><rect x="60" y="63" width="11" height="11" rx="2" ry="2" fill="#161b22"><title>0 on 2026-01-28</title></rect><rect x="60" y="76" width="11" height="11" rx="2" ry="2" fill="#161b22"><title>0 on 2026-01-29</title></rect><rect x="60" y="89" width="11" height="11" rx="2" ry="2" fill="#161b22"><title>0 on 2026-01-30</title></rect><rect x="60" y="102" width="11" height="11" rx="2" ry="2" fill="#161b22"><title>0 on 2026-01-31</title></rect><rect x="73" y="24" width="11" height="11" rx="2" ry="2" fill="#161b22"><title>0 on 2026-02-01</title></rect><rect x="73" y="37" width="11" height="11" rx="2" ry="2" fill="#161b22"><title>0 on 2026-02-02</title></rect><rect x="73" y="50" width="11" height="11" rx="2" ry="2" fill="#161b22"><title>0 on 2026-02-03</title></rect><rect x="73" y="63" width="11" height="11" rx="2" ry="2" fill="#161b22"><title>0 on 2026-02-04</title></rect><rect x="73" y="76" width="11" height="11" rx="2" ry="2" fill="#161b22"><title>0 on 2026-02-05</title></rect><rect x="73" y="89" width="11" height="11" rx="2" ry="2" fill="#161b22"><title>0 on 2026-02-06</title></rect><rect x="73" y="102" width="11" height="11" rx="2" ry="2" fill="#161b22"><title>0 on 2026-02-07</title></rect><rect x="86" y="24" width="11" height="11" rx="2" ry="2" fill="#161b22"><title>0 on 2026-02-08</title></rect><rect x="86" y="37" width="11" height="11" rx="2" ry="2" fill="#161b22"><title>0 on 2026-02-09</title></rect><rect x="86" y="50" width="11" height="11" rx="2" ry="2" fill="#161b22"><title>0 on 2026-02-10</title></rect><rect x="86" y="63" width="11" height="11" rx="2" ry="2" fill="#161b22"><title>0 on 2026-02-11</title></rect><rect x="86" y="76" width="11" height="11" rx="2" ry="2" fill="#161b22"><title>0 on 2026-02-12</title></rect><rect x="86" y="89" width="11" height="11" rx="2" ry="2" fill="#161b22"><title>0 on 2026-02-13</title></rect><rect x="86" y="102" width="11" height="11" rx="2" ry="2" fill="#161b22"><title>0 on 2026-02-14</title></rect><rect x="99" y="24" width="11" height="11" rx="2" ry="2" fill="#161b22"><title>0 on 2026-02-15</title></rect><rect x="99" y="37" width="11" height="11" rx="2" ry="2" fill="#161b22"><title>0 on 2026-02-16</title></rect><rect x="99" y="50" width="11" height="11" rx="2" ry="2" fill="#161b22"><title>0 on 2026-02-17</title></rect><rect x="99" y="63" width="11" height="11" rx="2" ry="2" fill="#161b22"><title>0 on 2026-02-18</title></rect><rect x="99" y="76" width="11" height="11" rx="2" ry="2" fill="#0e4429"><title>3 on 2026-02-19</title></rect><rect x="99" y="89" width="11" height="11" rx="2" ry="2" fill="#161b22"><title>0 on 2026-02-20</title></rect><rect x="99" y="102" width="11" height="11" rx="2" ry="2" fill="#161b22"><title>0 on 2026-02-21</title></rect><rect x="112" y="24" width="11" height="11" rx="2" ry="2" fill="#161b22"><title>0 on 2026-02-22</title></rect><rect x="112" y="37" width="11" height="11" rx="2" ry="2" fill="#161b22"><title>0 on 2026-02-23</title></rect><rect x="112" y="50" width="11" height="11" rx="2" ry="2" fill="#161b22"><title>0 on 2026-02-24</title></rect><rect x="112" y="63" width="11" height="11" rx="2" ry="2" fill="#0e4429"><title>1 on 2026-02-25</title></rect><rect x="112" y="76" width="11" height="11" rx="2" ry="2" fill="#161b22"><title>0 on 2026-02-26</title></rect><rect x="112" y="89" width="11" height="11" rx="2" ry="2" fill="#161b22"><title>0 on 2026-02-27</title></rect><rect x="112" y="102" width="11" height="11" rx="2" ry="2" fill="#161b22"><title>0 on 2026-02-28</title></rect><rect x="125" y="24" width="11" height="11" rx="2" ry="2" fill="#161b22"><title>0 on 2026-03-01</title></rect><rect x="125" y="37" width="11" height="11" rx="2" ry="2" fill="#161b22"><title>0 on 2026-03-02</title></rect><rect x="125" y="50" width="11" height="11" rx="2" ry="2" fill="#161b22"><title>0 on 2026-03-03</title></rect><rect x="125" y="63" width="11" height="11" rx="2" ry="2" fill="#161b22"><title>0 on 2026-03-04</title></rect><rect x="125" y="76" width="11" height="11" rx="2" ry="2" fill="#161b22"><title>0 on 2026-03-05</title></rect><rect x="125" y="89" width="11" height="11" rx="2" ry="2" fill="#161b22"><title>0 on 2026-03-06</title></rect><rect x="125" y="102" width="11" height="11" rx="2" ry="2" fill="#161b22"><title>0 on 2026-03-07</title></rect><rect x="138" y="24" width="11" height="11" rx="2" ry="2" fill="#161b22"><title>0 on 2026-03-08</title></rect><rect x="138" y="37" width="11" height="11" rx="2" ry="2" fill="#161b22"><title>0 on 2026-03-09</title></rect><rect x="138" y="50" width="11" height="11" rx="2" ry="2" fill="#161b22"><title>0 on 2026-03-10</title></rect><rect x="138" y="63" width="11" height="11" rx="2" ry="2" fill="#161b22"><title>0 on 2026-03-11</title></rect><rect x="138" y="76" width="11" height="11" rx="2" ry="2" fill="#161b22"><title>0 on 2026-03-12</title></rect><rect x="138" y="89" width="11" height="11" rx="2" ry="2" fill="#161b22"><title>0 on 2026-03-13</title></rect><rect x="138" y="102" width="11" height="11" rx="2" ry="2" fill="#161b22"><title>0 on 2026-03-14</title></rect><rect x="151" y="24" width="11" height="11" rx="2" ry="2" fill="#161b22"><title>0 on 2026-03-15</title></rect><rect x="151" y="37" width="11" height="11" rx="2" ry="2" fill="#161b22"><title>0 on 2026-03-16</title></rect><rect x="151" y="50" width="11" height="11" rx="2" ry="2" fill="#161b22"><title>0 on 2026-03-17</title></rect><rect x="151" y="63" width="11" height="11" rx="2" ry="2" fill="#161b22"><title>0 on 2026-03-18</title></rect><rect x="151" y="76" width="11" height="11" rx="2" ry="2" fill="#161b22"><title>0 on 2026-03-19</title></rect><rect x="151" y="89" width="11" height="11" rx="2" ry="2" fill="#161b22"><title>0 on 2026-03-20</title></rect><rect x="151" y="102" width="11" height="11" rx="2" ry="2" fill="#26a641"><title>9 on 2026-03-21</title></rect><rect x="164" y="24" width="11" height="11" rx="2" ry="2" fill="#161b22"><title>0 on 2026-03-22</title></rect><rect x="164" y="37" width="11" height="11" rx="2" ry="2" fill="#161b22"><title>0 on 2026-03-23</title></rect><rect x="164" y="50" width="11" height="11" rx="2" ry="2" fill="#0e4429"><title>1 on 2026-03-24</title></rect><rect x="164" y="63" width="11" height="11" rx="2" ry="2" fill="#0e4429"><title>2 on 2026-03-25</title></rect><rect x="164" y="76" width="11" height="11" rx="2" ry="2" fill="#006d32"><title>6 on 2026-03-26</title></rect><rect x="164" y="89" width="11" height="11" rx="2" ry="2" fill="#161b22"><title>0 on 2026-03-27</title></rect><rect x="164" y="102" width="11" height="11" rx="2" ry="2" fill="#006d32"><title>7 on 2026-03-28</title></rect><rect x="177" y="24" width="11" height="11" rx="2" ry="2" fill="#0e4429"><title>1 on 2026-03-29</title></rect><rect x="177" y="37" width="11" height="11" rx="2" ry="2" fill="#0e4429"><title>3 on 2026-03-30</title></rect><rect x="177" y="50" width="11" height="11" rx="2" ry="2" fill="#006d32"><title>5 on 2026-03-31</title></rect><rect x="177" y="63" width="11" height="11" rx="2" ry="2" fill="#006d32"><title>4 on 2026-04-01</title></rect><rect x="177" y="76" width="11" height="11" rx="2" ry="2" fill="#0e4429"><title>1 on 2026-04-02</title></rect><rect x="177" y="89" width="11" height="11" rx="2" ry="2" fill="#161b22"><title>0 on 2026-04-03</title></rect><rect x="177" y="102" width="11" height="11" rx="2" ry="2" fill="#0e4429"><title>1 on 2026-04-04</title></rect><rect x="190" y="24" width="11" height="11" rx="2" ry="2" fill="#161b22"><title>0 on 2026-04-05</title></rect><rect x="190" y="37" width="11" height="11" rx="2" ry="2" fill="#0e4429"><title>3 on 2026-04-06</title></rect><rect x="190" y="50" width="11" height="11" rx="2" ry="2" fill="#26a641"><title>8 on 2026-04-07</title></rect><rect x="190" y="63" width="11" height="11" rx="2" ry="2" fill="#161b22"><title>0 on 2026-04-08</title></rect><rect x="190" y="76" width="11" height="11" rx="2" ry="2" fill="#161b22"><title>0 on 2026-04-09</title></rect><rect x="190" y="89" width="11" height="11" rx="2" ry="2" fill="#161b22"><title>0 on 2026-04-10</title></rect><rect x="190" y="102" width="11" height="11" rx="2" ry="2" fill="#26a641"><title>8 on 2026-04-11</title></rect><rect x="203" y="24" width="11" height="11" rx="2" ry="2" fill="#40c463"><title>13 on 2026-04-12</title></rect><rect x="203" y="37" width="11" height="11" rx="2" ry="2" fill="#0e4429"><title>1 on 2026-04-13</title></rect><rect x="203" y="50" width="11" height="11" rx="2" ry="2" fill="#161b22"><title>0 on 2026-04-14</title></rect><rect x="203" y="63" width="11" height="11" rx="2" ry="2" fill="#0e4429"><title>1 on 2026-04-15</title></rect><rect x="203" y="76" width="11" height="11" rx="2" ry="2" fill="#0e4429"><title>3 on 2026-04-16</title></rect><rect x="203" y="89" width="11" height="11" rx="2" ry="2" fill="#0e4429"><title>1 on 2026-04-17</title></rect><rect x="203" y="102" width="11" height="11" rx="2" ry="2" fill="#161b22"><title>0 on 2026-04-18</title></rect><rect x="216" y="24" width="11" height="11" rx="2" ry="2" fill="#26a641"><title>9 on 2026-04-19</title></rect><rect x="216" y="37" width="11" height="11" rx="2" ry="2" fill="#26a641"><title>10 on 2026-04-20</title></rect><rect x="216" y="50" width="11" height="11" rx="2" ry="2" fill="#26a641"><title>8 on 2026-04-21</title></rect><rect x="216" y="63" width="11" height="11" rx="2" ry="2" fill="#161b22"><title>0 on 2026-04-22</title></rect><rect x="216" y="76" width="11" height="11" rx="2" ry="2" fill="#0e4429"><title>2 on 2026-04-23</title></rect><rect x="216" y="89" width="11" height="11" rx="2" ry="2" fill="#006d32"><title>7 on 2026-04-24</title></rect><rect x="216" y="102" width="11" height="11" rx="2" ry="2" fill="#006d32"><title>5 on 2026-04-25</title></rect><rect x="229" y="24" width="11" height="11" rx="2" ry="2" fill="#216e39"><title>109 on 2026-04-26</title></rect><rect x="229" y="37" width="11" height="11" rx="2" ry="2" fill="#216e39"><title>29 on 2026-04-27</title></rect><rect x="229" y="50" width="11" height="11" rx="2" ry="2" fill="#0e4429"><title>3 on 2026-04-28</title></rect><rect x="229" y="63" width="11" height="11" rx="2" ry="2" fill="#006d32"><title>6 on 2026-04-29</title></rect><rect x="229" y="76" width="11" height="11" rx="2" ry="2" fill="#216e39"><title>28 on 2026-04-30</title></rect><rect x="229" y="89" width="11" height="11" rx="2" ry="2" fill="#216e39"><title>34 on 2026-05-01</title></rect><rect x="229" y="102" width="11" height="11" rx="2" ry="2" fill="#0e4429"><title>1 on 2026-05-02</title></rect><rect x="242" y="24" width="11" height="11" rx="2" ry="2" fill="#161b22"><title>0 on 2026-05-03</title></rect><rect x="242" y="37" width="11" height="11" rx="2" ry="2" fill="#216e39"><title>278 on 2026-05-04</title></rect><rect x="242" y="50" width="11" height="11" rx="2" ry="2" fill="#26a641"><title>10 on 2026-05-05</title></rect><rect x="242" y="63" width="11" height="11" rx="2" ry="2" fill="#006d32"><title>4 on 2026-05-06</title></rect><rect x="242" y="76" width="11" height="11" rx="2" ry="2" fill="#0e4429"><title>3 on 2026-05-07</title></rect><rect x="242" y="89" width="11" height="11" rx="2" ry="2" fill="#161b22"><title>0 on 2026-05-08</title></rect><rect x="242" y="102" width="11" height="11" rx="2" ry="2" fill="#40c463"><title>14 on 2026-05-09</title></rect><rect x="255" y="24" width="11" height="11" rx="2" ry="2" fill="#26a641"><title>11 on 2026-05-10</title></rect><rect x="255" y="37" width="11" height="11" rx="2" ry="2" fill="#161b22"><title>0 on 2026-05-11</title></rect><rect x="255" y="50" width="11" height="11" rx="2" ry="2" fill="#161b22"><title>0 on 2026-05-12</title></rect><rect x="255" y="63" width="11" height="11" rx="2" ry="2" fill="#161b22"><title>0 on 2026-05-13</title></rect></svg>